<?xml version="1.0" standalone="no"?>
<!DOCTYPE svg PUBLIC "-//W3C//DTD SVG 20010904//EN"
 "http://www.w3.org/TR/2001/REC-SVG-20010904/DTD/svg10.dtd">
<svg version="1.0" xmlns="http://www.w3.org/2000/svg"
 width="300.000000pt" height="312.000000pt" viewBox="0 0 300.000000 312.000000"
 preserveAspectRatio="xMidYMid meet">
<metadata>
Created by potrace 1.10, written by Peter Selinger 2001-2011
</metadata>
<g transform="translate(0.000000,312.000000) scale(0.100000,-0.100000)"
fill="#000000" stroke="none">
<path d="M1652 3107 c-12 -7 -29 -22 -37 -34 -15 -21 -15 -21 -52 -2 -65 33
-141 21 -187 -30 -14 -15 -23 -18 -37 -11 -36 20 -105 12 -138 -16 -17 -14
-31 -32 -31 -40 0 -9 -14 -4 -42 15 -24 16 -57 32 -75 35 -47 10 -110 -12
-141 -50 -21 -25 -31 -31 -42 -24 -23 15 -88 12 -120 -5 -16 -9 -37 -29 -45
-45 -15 -28 -17 -29 -38 -15 -51 33 -107 46 -151 34 -43 -12 -86 -50 -86 -76
0 -11 -5 -13 -17 -8 -80 34 -125 31 -174 -13 -26 -23 -32 -36 -32 -69 0 -32
-4 -43 -18 -46 -35 -9 -34 -36 4 -75 84 -87 161 -304 181 -507 2 -27 11 -84
20 -125 8 -41 20 -113 26 -160 6 -47 20 -125 31 -173 11 -49 17 -92 14 -97 -3
-5 -1 -11 4 -14 5 -3 12 -23 15 -43 23 -128 106 -390 161 -508 23 -50 45 -112
48 -138 10 -75 33 -151 161 -547 2 -8 5 19 5 60 1 64 -14 158 -44 285 -7 29
-6 29 21 -10 15 -22 33 -46 38 -52 123 -143 203 -219 250 -237 25 -9 81 7 516
144 295 94 355 109 630 160 63 12 134 25 157 29 43 9 43 9 53 -27 5 -20 8 -37
7 -38 -9 -7 -176 -48 -282 -69 -71 -14 -148 -30 -170 -35 -22 -5 -137 -28
-255 -51 -194 -37 -384 -82 -465 -109 -99 -33 616 67 865 122 52 11 113 24
135 29 22 5 67 15 100 23 33 8 61 14 62 13 5 -5 -28 -38 -85 -85 -106 -88
-214 -133 -357 -151 -116 -14 -252 -37 -395 -66 -123 -25 -155 -31 -295 -56
-95 -17 -370 -83 -425 -104 -93 -33 -170 -68 -170 -77 0 -5 4 -7 8 -4 11 7
222 61 322 82 47 10 91 24 98 31 7 7 21 13 30 12 14 0 13 -2 -3 -9 -30 -13
-14 -12 67 5 40 9 141 27 223 41 83 14 173 29 200 34 28 5 97 17 155 25 453
67 465 71 617 217 50 48 96 88 102 88 20 0 12 47 -19 111 l-30 64 68 18 c177
47 205 57 330 114 34 16 52 30 52 43 0 9 7 23 16 30 8 8 14 25 12 39 -3 22
-20 35 -109 81 -105 55 -206 128 -265 192 -46 49 -127 157 -156 208 -117 206
-152 298 -323 860 -73 237 -122 371 -179 490 -64 130 -92 160 -37 39 56 -125
236 -710 275 -896 1 -7 5 -16 9 -19 4 -4 7 -15 7 -25 0 -17 61 -205 104 -321
108 -288 306 -517 543 -628 l52 -24 -97 -32 c-53 -17 -142 -44 -197 -59 -55
-14 -113 -30 -130 -35 -16 -5 -73 -19 -125 -30 -178 -41 -215 -49 -345 -80
-330 -78 -613 -174 -782 -266 -71 -38 -83 -42 -83 -26 0 12 -32 44 -84 85
-228 178 -378 442 -499 877 -34 120 -100 461 -122 625 -8 61 -17 124 -21 141
-5 27 -2 34 23 51 35 24 113 57 220 94 70 23 172 47 388 89 105 21 218 31 440
40 127 5 251 12 275 15 147 21 318 74 239 75 -14 0 -45 -7 -70 -15 -79 -26
-249 -45 -494 -55 -290 -12 -487 -39 -670 -92 -98 -28 -239 -85 -298 -120 -54
-32 -66 -28 -67 22 0 38 -46 193 -74 256 -25 55 -73 123 -108 155 -17 16 -16
17 18 24 43 8 86 33 78 46 -3 5 -30 9 -60 9 -57 0 -62 6 -42 43 27 52 92 63
149 24 43 -29 47 -50 15 -88 -31 -37 -32 -45 -6 -59 38 -20 90 32 90 90 0 34
-23 86 -41 92 -22 7 46 41 91 46 35 3 51 -1 72 -18 33 -26 35 -43 8 -70 -38
-38 -16 -94 35 -88 20 2 37 14 53 38 20 30 23 43 17 85 -5 45 -3 53 19 74 44
42 138 28 166 -24 11 -20 9 -28 -15 -59 -22 -30 -25 -39 -15 -51 19 -23 46
-18 74 16 34 40 35 91 1 135 l-25 33 22 15 c28 20 80 20 117 1 38 -19 44 -39
20 -68 -25 -32 -25 -73 0 -87 37 -19 60 -11 87 29 21 33 25 47 19 80 -5 32 -3
43 14 60 11 11 32 23 46 27 34 8 95 -17 120 -51 l20 -27 -21 -17 c-32 -26 -45
-56 -32 -69 20 -20 56 -13 77 15 40 49 39 105 0 144 -24 24 -22 28 26 39 46
10 95 -4 117 -34 16 -23 16 -24 -7 -46 -29 -27 -32 -52 -9 -74 58 -59 145 57
103 137 -10 18 -8 24 15 44 32 27 50 28 100 8 55 -23 64 -54 32 -101 -28 -42
-22 -64 19 -64 36 0 65 44 65 100 0 42 -4 52 -36 80 -20 17 -47 36 -61 41 -34
13 -94 11 -121 -4z"/>
<path d="M88 2613 c-11 -27 -35 -79 -54 -117 -38 -77 -40 -88 -20 -105 8 -6
17 -33 20 -59 15 -106 105 -461 150 -590 13 -37 33 -101 46 -142 12 -41 41
-138 65 -215 24 -77 73 -261 110 -410 85 -350 113 -459 131 -520 67 -224 86
-280 114 -353 40 -100 62 -117 96 -76 13 16 31 49 40 74 10 25 21 50 26 56 5
7 14 31 21 55 l13 44 94 11 c102 13 126 19 152 41 26 23 11 43 -33 43 -45 0
-195 -54 -221 -79 -19 -18 -93 -134 -108 -170 -6 -13 -13 -22 -15 -19 -5 5
-51 135 -71 203 -30 98 -75 278 -118 465 -9 41 -26 109 -36 150 -24 96 -53
221 -56 240 -1 8 -10 42 -19 75 -10 33 -18 67 -19 75 -1 8 -7 31 -13 50 -6 19
-23 78 -38 130 -15 52 -31 104 -36 115 -5 11 -32 91 -60 179 l-51 159 71 71
c39 39 71 76 71 81 0 5 -34 -24 -75 -65 -51 -50 -76 -69 -79 -59 -3 8 -37 110
-77 227 l-71 214 25 26 c30 32 77 159 77 208 0 51 -27 44 -52 -13z"/>
<path d="M1563 2123 c9 -2 23 -2 30 0 6 3 -1 5 -18 5 -16 0 -22 -2 -12 -5z"/>
</g>
</svg>
