<?xml version="1.0" standalone="no"?>
<!DOCTYPE svg PUBLIC "-//W3C//DTD SVG 20010904//EN"
 "http://www.w3.org/TR/2001/REC-SVG-20010904/DTD/svg10.dtd">
<svg version="1.0" xmlns="http://www.w3.org/2000/svg"
 width="900.000000pt" height="900.000000pt" viewBox="0 0 900.000000 900.000000"
 preserveAspectRatio="xMidYMid meet">
<metadata>
Created by potrace 1.10, written by Peter Selinger 2001-2011
</metadata>
<g transform="translate(0.000000,900.000000) scale(0.100000,-0.100000)"
fill="#000000" stroke="none">
<path d="M4180 8981 c0 -14 -10 -22 -32 -26 -18 -4 -39 -11 -48 -15 -8 -4 -31
-14 -50 -22 -19 -9 -132 -63 -250 -121 -118 -57 -273 -132 -345 -166 -71 -34
-143 -69 -160 -78 -16 -8 -41 -21 -55 -28 -14 -7 -45 -22 -70 -33 -25 -11 -70
-32 -101 -46 -31 -14 -59 -26 -63 -26 -4 0 -20 -10 -35 -21 -28 -20 -37 -21
-163 -15 -203 10 -208 10 -256 -24 -23 -16 -51 -30 -61 -30 -21 0 -106 -87
-123 -127 -7 -15 -25 -46 -40 -67 -16 -21 -28 -46 -28 -55 0 -16 -13 -25 -125
-86 -33 -18 -76 -42 -95 -53 -19 -12 -57 -32 -85 -47 -27 -14 -77 -41 -110
-60 -33 -18 -80 -44 -105 -57 -25 -12 -65 -34 -90 -48 -25 -13 -65 -32 -90
-40 -38 -13 -46 -20 -48 -43 -4 -37 18 -53 81 -62 27 -3 59 -12 71 -19 11 -7
46 -21 76 -31 30 -10 82 -28 115 -41 33 -12 94 -32 135 -45 41 -12 84 -28 95
-34 11 -7 42 -18 68 -25 29 -8 54 -22 61 -34 9 -15 13 -87 15 -255 2 -171 6
-241 15 -260 8 -14 17 -63 21 -108 6 -69 10 -83 26 -88 14 -5 18 -12 14 -25
-8 -24 46 -81 102 -110 36 -19 48 -20 74 -11 43 15 46 14 52 -8 3 -12 18 -24
38 -29 31 -8 35 -7 43 14 16 39 35 29 33 -16 -1 -44 5 -55 27 -47 12 5 14 16
10 51 -4 25 -4 53 0 62 6 15 9 15 29 -5 26 -24 46 -27 48 -8 5 55 -5 495 -11
507 -4 8 -10 44 -12 80 -3 63 -2 65 22 68 14 1 63 -12 110 -28 47 -17 100 -35
119 -40 19 -5 41 -15 49 -24 14 -14 14 -20 -6 -59 -12 -24 -22 -48 -22 -53 0
-5 -11 -36 -23 -69 -33 -83 -54 -148 -77 -231 -11 -39 -33 -101 -50 -138 -16
-38 -30 -78 -30 -89 0 -12 -7 -40 -15 -62 -8 -22 -14 -67 -15 -100 -1 -73 -7
-101 -54 -230 -20 -55 -36 -113 -35 -130 0 -16 1 -56 0 -87 -1 -63 -18 -88
-76 -112 -52 -23 -66 -48 -76 -138 -11 -106 -11 -166 3 -191 5 -11 8 -32 5
-47 -3 -14 0 -39 8 -54 8 -15 17 -44 21 -64 4 -20 13 -44 21 -54 17 -19 30
-89 43 -233 17 -181 27 -240 44 -272 22 -41 36 -129 36 -226 0 -47 6 -92 15
-114 12 -28 14 -54 9 -106 -6 -61 -4 -72 15 -98 16 -21 23 -48 26 -100 3 -39
10 -79 15 -89 6 -10 10 -47 10 -82 0 -51 4 -67 20 -81 18 -15 19 -25 14 -86
-6 -66 -5 -72 20 -102 21 -25 26 -39 22 -63 -3 -19 0 -38 9 -50 22 -29 19
-112 -4 -135 -33 -33 -131 -188 -131 -208 0 -10 -7 -27 -15 -37 -18 -23 -19
-69 -4 -97 7 -15 7 -24 -1 -34 -6 -8 -10 -26 -8 -42 4 -25 5 -26 12 -8 4 11
14 35 22 53 36 83 42 100 53 137 6 22 20 54 31 70 30 46 36 56 62 110 19 38
30 49 44 47 10 -2 34 -4 52 -5 29 -1 32 -4 28 -27 -3 -14 -8 -47 -11 -75 -4
-27 -13 -81 -20 -120 -8 -38 -19 -173 -24 -300 -10 -232 -22 -309 -67 -413 -9
-20 -14 -67 -14 -123 0 -67 -4 -96 -17 -115 -9 -15 -17 -50 -19 -84 -1 -32 -5
-64 -9 -70 -4 -7 -11 -40 -16 -74 -4 -33 -13 -99 -19 -146 -6 -46 -17 -110
-25 -141 -8 -31 -15 -69 -15 -85 0 -15 -7 -50 -15 -78 -8 -28 -24 -103 -35
-166 -24 -133 -39 -203 -50 -245 -5 -16 -16 -66 -25 -110 -39 -186 -58 -262
-71 -293 -8 -18 -14 -48 -14 -66 0 -19 -7 -50 -15 -69 -8 -20 -15 -49 -15 -65
0 -16 -7 -47 -16 -67 -8 -21 -13 -47 -11 -57 3 -11 -4 -39 -15 -64 -10 -25
-18 -59 -17 -77 2 -18 -3 -43 -10 -56 -7 -13 -16 -48 -20 -77 l-8 -54 80 0
c86 0 96 11 19 20 -48 5 -60 22 -20 28 12 2 35 15 51 28 20 17 41 24 70 24 39
1 40 2 19 13 -12 7 -29 23 -38 35 -11 16 -25 22 -55 22 -44 0 -52 16 -14 30
14 5 25 13 25 18 0 5 19 14 42 21 28 9 37 15 28 21 -11 7 -10 13 4 34 9 14 22
26 28 26 9 0 9 3 1 11 -7 7 -23 7 -53 -1 -29 -8 -46 -8 -53 -1 -7 7 -4 13 9
18 10 3 25 15 32 25 7 10 26 18 42 18 26 0 29 3 28 33 -1 37 -12 47 -50 47
-18 0 -28 5 -28 15 0 8 6 15 14 15 7 0 19 7 26 15 7 8 30 20 51 27 37 10 44
21 40 56 -1 7 8 17 21 22 24 11 10 10 -84 -6 -31 -5 -38 -4 -38 10 0 9 10 20
23 25 13 5 29 16 36 25 8 9 31 19 53 22 21 4 41 11 44 15 11 18 32 8 42 -20
11 -31 7 -42 -23 -59 -11 -6 -14 -12 -7 -12 7 0 12 -13 12 -29 0 -16 4 -41 9
-55 8 -18 6 -28 -5 -37 -11 -9 -14 -30 -12 -81 1 -43 -2 -72 -10 -80 -14 -14
-16 -86 -2 -108 6 -10 4 -20 -7 -32 -12 -14 -15 -32 -11 -82 5 -55 3 -68 -13
-82 -26 -23 -24 -34 6 -34 32 0 48 32 43 85 -10 88 34 95 47 7 13 -95 11 -92
71 -92 63 0 62 -3 39 130 -14 83 -27 218 -45 485 -5 72 -13 177 -19 235 -8 83
-7 117 3 160 8 30 22 100 31 155 10 55 24 123 31 152 8 28 14 68 14 90 0 21 5
58 11 83 6 25 15 88 20 140 10 102 30 204 42 216 4 4 14 -1 21 -12 23 -30 27
-12 11 42 -19 64 -19 162 1 210 15 35 15 40 0 65 -27 46 -22 196 6 187 6 -2
21 -29 33 -61 13 -31 37 -76 53 -100 26 -39 81 -154 96 -200 10 -30 31 -13 34
28 4 46 -12 90 -48 130 -15 17 -31 42 -36 57 -5 14 -27 46 -49 70 -53 57 -68
82 -88 148 -31 101 -35 153 -20 323 7 89 12 175 10 190 -2 15 3 58 11 95 8 37
16 90 17 117 1 28 5 57 8 65 3 8 5 42 4 74 -2 47 -6 61 -22 70 -11 6 -22 12
-24 13 -2 2 8 15 22 29 28 28 35 54 16 54 -20 0 -59 -45 -59 -68 0 -26 -24
-39 -44 -23 -7 6 -21 9 -29 5 -9 -3 -21 -3 -27 1 -15 9 28 82 62 107 20 14 28
28 28 50 0 17 7 39 16 49 9 10 11 20 6 23 -5 3 -15 -1 -22 -9 -7 -8 -20 -15
-30 -15 -22 0 -32 -21 -19 -41 13 -21 11 -39 -6 -39 -8 0 -15 9 -15 20 0 11
-7 23 -15 26 -23 9 -18 34 15 83 35 52 37 61 10 68 -12 3 -20 14 -20 25 0 17
3 18 15 8 20 -16 35 -4 35 30 0 16 7 30 16 34 12 5 14 16 9 53 -10 79 -15 93
-31 93 -8 0 -17 7 -20 15 -4 8 -15 15 -26 15 -17 0 -19 5 -13 30 6 26 4 30
-14 30 -29 0 -35 17 -11 30 18 10 22 8 27 -9 7 -29 58 -29 73 -1 13 25 5 40
-20 40 -24 0 -33 15 -40 68 l-5 44 -27 -21 c-14 -12 -29 -21 -33 -21 -8 0 -1
53 10 82 4 11 0 18 -15 23 -17 5 -20 12 -15 39 6 27 3 35 -18 48 -21 14 -23
23 -22 70 2 41 -3 62 -22 90 -18 30 -23 51 -23 107 0 38 -4 73 -10 76 -5 3
-10 19 -10 34 0 15 -9 36 -19 46 -20 17 -20 17 1 46 17 23 19 32 10 41 -17 17
-15 129 3 152 8 11 15 36 15 55 0 22 3 32 10 25 5 -5 11 -58 12 -118 2 -65 7
-111 13 -113 7 -2 10 41 10 129 -1 73 4 167 11 208 12 74 8 112 -7 74 -10 -25
-3 246 10 356 5 47 15 130 20 185 15 139 41 276 58 300 17 25 17 55 -1 55 -10
0 -12 12 -8 49 2 30 0 51 -7 55 -18 11 -13 34 10 41 13 4 27 1 39 -10 17 -15
19 -15 25 5 9 30 -9 47 -30 30 -14 -12 -18 -11 -26 1 -5 8 -7 20 -4 28 3 7 0
20 -6 28 -9 10 -8 21 7 49 17 30 17 36 4 44 -8 5 -10 10 -4 10 6 0 18 15 25
33 7 17 49 67 93 110 102 99 189 142 383 191 84 21 349 22 390 2 52 -26 104
-46 118 -46 7 0 26 -6 42 -14 56 -28 104 -46 122 -46 22 0 65 -18 101 -42 20
-13 34 -14 75 -7 28 5 179 12 337 16 286 6 312 4 533 -31 66 -11 142 -29 172
-42 17 -8 36 -14 42 -14 6 0 40 -13 74 -30 35 -16 71 -30 80 -30 9 0 18 -4 22
-9 3 -6 30 -21 59 -35 30 -14 67 -38 83 -54 15 -15 60 -51 99 -80 72 -53 141
-133 168 -194 8 -18 26 -58 40 -89 30 -66 27 -124 -6 -132 -16 -5 -19 -13 -16
-44 2 -26 8 -38 18 -38 22 0 40 -60 29 -98 -12 -42 -11 -114 1 -122 12 -7 14
-112 2 -119 -5 -3 -25 2 -46 12 -25 11 -38 25 -42 42 -3 14 -11 37 -19 52 -12
23 -11 29 2 40 18 14 13 96 -10 161 -18 49 -30 61 -57 52 -22 -7 -22 -9 -15
-119 4 -64 13 -125 22 -144 12 -25 13 -35 3 -46 -9 -11 -9 -20 0 -36 6 -12 14
-76 16 -143 8 -190 11 -242 28 -390 9 -77 14 -143 11 -148 -3 -5 -1 -17 4 -27
8 -15 4 -24 -20 -44 -31 -28 -34 -35 -19 -58 8 -12 13 -13 30 -2 17 11 20 10
20 -7 0 -11 -5 -23 -10 -26 -19 -11 -50 -84 -50 -115 0 -25 4 -30 25 -30 24 0
45 -25 45 -54 0 -11 -9 -16 -29 -16 -30 0 -57 -22 -46 -39 3 -6 1 -20 -5 -31
-9 -16 -8 -25 1 -36 9 -11 6 -15 -20 -20 -24 -5 -31 -12 -31 -29 0 -12 6 -28
14 -34 8 -7 17 -28 21 -48 4 -21 14 -43 23 -49 15 -11 15 -13 2 -18 -8 -3 -28
-6 -45 -8 -26 -3 -30 -7 -30 -33 0 -16 -6 -42 -14 -56 -12 -24 -10 -31 15 -70
16 -26 29 -63 32 -91 2 -27 12 -55 23 -67 20 -21 26 -51 10 -51 -5 0 -11 9
-14 21 -3 12 -11 19 -18 17 -21 -7 -21 -23 1 -45 22 -25 18 -76 -8 -103 -13
-12 -12 -16 7 -28 20 -14 20 -15 4 -28 -10 -7 -28 -14 -39 -14 -12 0 -28 -7
-35 -16 -11 -14 -10 -19 7 -33 20 -16 20 -16 -8 -39 -15 -13 -28 -33 -28 -44
0 -17 -4 -19 -31 -13 -24 6 -30 4 -27 -6 3 -8 18 -14 34 -14 43 0 37 -27 -8
-38 -31 -7 -37 -13 -43 -45 -10 -56 -23 -72 -73 -94 -49 -21 -49 -23 13 -43
32 -10 -2 -25 -57 -25 -41 0 -48 -3 -48 -20 0 -25 29 -40 79 -40 42 0 63 -15
34 -24 -10 -3 -51 -10 -92 -16 -41 -6 -76 -11 -77 -13 -1 -1 -4 -13 -6 -27 -3
-23 1 -25 50 -33 28 -5 52 -12 52 -17 0 -13 -59 -30 -104 -30 -45 0 -72 -12
-62 -28 3 -5 30 -20 61 -32 30 -12 55 -26 55 -30 0 -12 -92 -30 -150 -30 -41
0 -52 4 -69 26 -23 29 -14 54 18 54 9 0 24 7 34 14 18 14 18 16 1 41 -14 21
-23 25 -53 23 -35 -3 -36 -4 -39 -51 -2 -32 -13 -65 -33 -96 -16 -27 -29 -57
-29 -68 0 -11 -7 -26 -15 -33 -8 -7 -15 -20 -15 -29 0 -9 -7 -25 -15 -35 -8
-11 -15 -28 -15 -37 0 -10 -8 -32 -17 -51 -9 -18 -22 -44 -29 -58 -6 -14 -27
-68 -44 -120 -18 -52 -39 -104 -46 -115 -8 -11 -14 -32 -14 -46 0 -15 -4 -29
-8 -31 -13 -5 -64 -117 -58 -127 3 -5 -1 -14 -9 -21 -8 -7 -15 -25 -15 -41 0
-15 -4 -31 -10 -34 -6 -3 -10 -16 -10 -27 0 -11 -9 -35 -19 -52 -10 -17 -22
-47 -26 -66 -4 -19 -18 -57 -31 -83 -13 -27 -24 -58 -24 -70 0 -11 -6 -28 -14
-36 -7 -9 -21 -41 -31 -71 -10 -30 -24 -67 -31 -82 -8 -14 -14 -35 -14 -46 0
-23 -26 -113 -46 -160 -8 -18 -14 -45 -14 -60 0 -16 -5 -33 -10 -38 -6 -6 -13
-35 -17 -65 -3 -30 -12 -66 -19 -81 -8 -15 -14 -46 -14 -70 -1 -24 -7 -54 -15
-68 -8 -14 -15 -43 -15 -65 0 -22 -7 -51 -15 -65 -8 -14 -14 -39 -15 -56 0
-18 -12 -48 -30 -72 -16 -23 -30 -44 -30 -46 0 -2 -17 -30 -39 -62 -21 -33
-49 -79 -63 -104 -16 -28 -33 -46 -46 -48 -15 -2 -22 -10 -22 -26 0 -30 31
-58 50 -46 8 5 24 7 35 4 14 -3 24 3 36 24 11 20 27 31 50 36 20 4 29 10 22
14 -6 4 -11 18 -10 32 0 14 -3 32 -7 40 -3 9 0 24 8 35 13 18 29 20 129 23 75
3 123 0 137 -8 38 -21 8 -31 -116 -41 -160 -13 -163 -19 -9 -23 32 -1 40 -4
38 -18 -2 -10 -4 -26 -5 -35 -2 -13 7 -20 35 -27 49 -13 47 -30 -5 -42 -30 -6
-43 -14 -43 -26 0 -10 -8 -25 -18 -35 -22 -22 -53 -6 -50 26 3 25 -23 39 -39
23 -9 -9 -7 -16 5 -30 22 -24 21 -29 -5 -35 -38 -10 -9 -22 55 -23 102 -1 145
-38 60 -49 -74 -10 -83 -14 -76 -33 4 -9 11 -20 16 -23 19 -13 -5 -30 -34 -24
-16 4 -43 3 -60 0 -49 -11 -15 -25 59 -25 102 0 137 -36 65 -67 -47 -19 -45
-17 -37 -37 5 -12 19 -16 59 -16 l52 0 7 56 c3 31 11 65 17 76 6 10 12 46 15
79 2 34 8 68 13 78 5 9 12 39 16 66 4 28 13 71 22 97 8 26 13 58 12 70 -1 13
6 40 15 62 10 21 16 56 15 76 -2 22 3 45 11 55 9 11 15 40 15 74 0 36 5 60 14
67 16 13 31 108 20 126 -6 9 -16 9 -47 0 -81 -24 -233 -9 -203 21 14 14 166
17 223 4 44 -11 54 3 60 80 2 28 9 57 15 64 6 8 13 30 16 49 5 32 11 59 49
210 8 30 20 65 26 77 7 12 12 37 12 57 0 19 4 37 9 40 10 7 41 97 41 120 0 9
9 33 20 53 11 21 20 45 20 54 0 10 14 47 30 84 17 37 27 71 24 76 -3 5 4 21
15 35 12 15 21 37 21 50 0 12 5 26 10 29 6 3 10 14 10 23 0 10 9 34 20 55 11
20 20 48 20 61 0 13 7 29 15 36 8 7 15 20 15 30 0 10 7 23 15 30 8 7 15 25 15
40 0 16 4 30 8 32 13 5 52 87 52 108 0 10 4 21 9 24 13 8 51 89 51 109 0 9 4
18 9 21 15 9 51 85 51 106 0 11 4 20 10 20 5 0 12 11 16 25 3 13 12 29 20 36
8 7 12 20 9 30 -4 12 -1 21 9 25 16 6 56 76 56 99 0 8 3 15 8 15 4 0 19 21 32
47 14 26 37 66 53 89 15 23 27 49 27 58 0 9 4 16 9 16 9 0 51 74 51 90 0 6 14
29 30 52 17 22 30 45 30 50 0 5 11 24 25 42 14 18 25 37 25 43 0 6 8 21 19 34
10 13 26 47 35 74 9 28 24 65 33 84 12 27 14 57 11 138 -3 59 -10 109 -16 115
-17 17 -15 73 3 88 19 16 19 51 -1 98 -22 51 -11 204 17 243 10 15 19 35 19
44 0 9 18 35 40 57 21 22 47 61 56 87 8 25 32 79 51 120 19 40 37 90 40 110 3
20 11 42 16 49 6 8 14 35 19 60 15 96 21 117 33 132 7 8 16 30 20 48 4 18 13
45 21 60 8 15 14 36 14 47 0 12 6 27 13 34 8 8 12 50 12 134 0 118 -1 124 -30
170 -18 28 -38 48 -50 49 -44 3 -51 5 -72 12 -23 8 -41 62 -29 91 6 16 -16
115 -31 138 -4 6 -9 62 -9 122 -2 189 -21 470 -33 493 -6 11 -11 43 -11 70 0
27 -7 69 -15 92 -8 23 -15 57 -15 74 0 17 -9 58 -21 90 -26 74 -22 94 21 117
32 17 268 130 415 199 33 15 103 48 155 72 52 25 124 58 160 73 63 27 124 55
313 144 48 22 90 41 94 41 4 0 37 14 73 32 36 17 79 36 95 43 17 6 59 26 95
42 127 60 196 91 275 122 44 18 92 39 107 47 14 8 33 14 40 14 35 0 67 76 36
84 -67 17 -146 43 -209 67 -41 16 -84 29 -95 29 -11 0 -24 4 -29 9 -6 4 -44
19 -85 32 -41 12 -84 29 -95 36 -11 7 -30 13 -42 13 -22 0 -69 18 -125 46 -14
8 -38 14 -52 14 -15 0 -37 6 -49 14 -12 8 -89 37 -172 65 -82 27 -163 55 -180
61 -16 6 -77 26 -135 45 -58 18 -118 39 -135 44 -148 51 -254 87 -335 113 -72
23 -168 58 -245 88 -28 11 -62 20 -77 20 -15 0 -29 4 -33 9 -3 5 -38 19 -78
31 -39 12 -83 27 -97 34 -14 8 -41 17 -60 21 -19 4 -59 18 -89 31 -29 13 -63
24 -75 24 -12 0 -27 5 -32 10 -9 9 -93 41 -264 101 -19 6 -44 16 -55 20 -11 5
-38 15 -60 23 -22 7 -67 23 -100 35 -33 12 -72 28 -87 36 -14 8 -32 15 -40 15
-16 0 -189 65 -230 86 -15 8 -28 21 -28 29 0 9 -10 15 -25 15 -31 0 -33 -20
-6 -64 11 -17 21 -40 23 -51 8 -47 124 -117 218 -130 24 -3 51 -12 60 -19 8
-7 29 -17 45 -20 17 -4 37 -13 45 -20 8 -7 42 -20 75 -30 33 -10 65 -22 70
-26 19 -16 120 -50 147 -50 15 0 29 -4 33 -9 3 -5 31 -17 63 -26 31 -9 62 -21
67 -25 6 -5 28 -12 50 -16 22 -4 64 -20 94 -35 30 -16 60 -29 67 -29 13 0 35
-8 119 -45 38 -17 109 -37 187 -54 21 -5 43 -13 50 -18 7 -5 33 -16 58 -23 25
-7 50 -17 55 -21 6 -3 35 -12 65 -19 30 -6 69 -18 85 -24 46 -19 97 -37 131
-46 17 -4 44 -15 60 -24 38 -21 107 -45 174 -61 82 -19 371 -113 550 -179 19
-8 53 -19 75 -25 22 -7 54 -19 70 -26 17 -8 55 -21 85 -30 30 -8 71 -22 90
-29 19 -8 55 -20 80 -27 25 -7 54 -20 65 -29 11 -9 28 -20 38 -24 10 -3 17
-12 15 -19 -5 -15 -105 -67 -129 -67 -10 0 -21 -5 -24 -10 -8 -13 -164 -87
-255 -121 -19 -7 -46 -21 -59 -31 -13 -10 -30 -18 -38 -18 -8 0 -53 -20 -101
-45 -47 -25 -91 -45 -98 -45 -6 0 -25 -7 -40 -15 -16 -8 -36 -15 -45 -15 -9 0
-22 -7 -29 -15 -7 -8 -26 -15 -42 -15 -16 0 -31 -6 -34 -15 -3 -8 -16 -17 -27
-21 -12 -4 -47 -21 -77 -38 -30 -17 -82 -42 -115 -55 -55 -22 -213 -93 -377
-170 -36 -17 -73 -31 -81 -31 -8 0 -22 -17 -30 -38 -8 -21 -23 -44 -32 -52 -9
-7 -25 -32 -35 -56 -16 -34 -18 -48 -9 -73 8 -23 8 -35 0 -45 -7 -8 -8 -17 -3
-20 10 -6 20 -43 48 -168 17 -74 17 -78 0 -97 -14 -15 -15 -24 -7 -40 14 -25
-2 -71 -24 -71 -9 0 -39 22 -68 50 -29 27 -55 50 -59 50 -4 0 -28 23 -54 50
-26 28 -53 50 -60 50 -7 0 -20 10 -28 22 -15 21 -99 68 -123 68 -7 0 -20 11
-29 25 -12 18 -25 25 -50 25 -18 0 -36 4 -39 10 -3 5 -28 12 -55 16 -29 4 -56
14 -66 25 -21 23 -31 24 -50 4 -19 -19 -84 -19 -129 -1 -20 9 -37 11 -40 6 -4
-6 -17 -2 -32 7 -17 11 -50 17 -98 19 -40 1 -82 7 -94 13 -15 9 -25 8 -40 -1
-16 -10 -27 -10 -53 0 -18 6 -43 9 -54 6 -12 -3 -38 -1 -57 4 -28 8 -39 7 -48
-4 -14 -17 -43 -18 -68 -2 -15 9 -26 8 -56 -6 -25 -12 -50 -16 -73 -12 -20 3
-42 1 -49 -5 -8 -7 -24 -8 -40 -4 -16 5 -36 7 -45 6 -12 -1 -16 3 -12 12 2 7
-2 20 -11 27 -13 11 -19 10 -35 -5 -19 -17 -21 -17 -45 10 -22 23 -31 26 -60
21 -28 -6 -36 -3 -45 14 -8 15 -17 19 -31 15 -19 -6 -122 24 -159 47 -15 9
-24 9 -43 -1 -20 -11 -34 -10 -93 8 -70 21 -134 20 -161 -2 -9 -6 -18 -6 -27
2 -17 15 -132 3 -147 -15 -7 -8 -31 -14 -60 -14 -26 0 -51 -4 -54 -10 -3 -5
-17 -10 -30 -10 -13 0 -37 -11 -53 -25 -17 -14 -35 -25 -40 -25 -16 0 -30 30
-25 50 3 12 -3 19 -21 24 -32 8 -32 8 -2 84 14 34 20 64 15 67 -5 4 -9 18 -9
32 0 14 -10 38 -22 53 -13 15 -31 41 -40 58 -12 23 -28 34 -60 42 -24 6 -61
18 -83 26 -22 9 -50 20 -63 25 -33 13 -63 68 -56 102 4 19 1 34 -10 46 -25 27
-31 83 -13 118 16 30 11 80 -13 143 -5 14 -11 129 -12 255 -3 203 -1 234 15
264 9 19 17 39 17 46 0 6 21 12 53 13 84 3 101 6 130 25 14 9 33 17 40 17 8 0
20 6 26 14 6 7 29 16 50 20 21 3 50 15 64 26 14 11 31 20 39 20 21 0 104 45
145 79 21 17 44 31 51 31 8 0 42 13 76 28 65 30 111 48 164 63 17 6 32 14 32
18 0 10 97 61 115 61 8 0 18 7 23 15 4 9 23 18 42 20 18 3 43 13 54 23 12 10
55 35 96 56 88 44 172 101 198 136 28 36 19 90 -14 90 -17 0 -24 -6 -24 -19z
m-1430 -707 c0 -13 -5 -58 -11 -100 -9 -58 -9 -108 0 -208 7 -72 15 -191 18
-264 3 -77 10 -143 17 -158 9 -17 12 -66 10 -166 -4 -171 -8 -192 -34 -185
-14 4 -21 -3 -29 -26 -14 -39 -14 -110 0 -141 7 -14 8 -33 5 -43 -7 -17 -8
-17 -22 1 -8 11 -14 37 -14 57 0 36 -20 69 -42 69 -6 0 -8 -13 -5 -32 4 -18 9
-49 12 -68 4 -19 11 -45 17 -57 6 -12 7 -36 4 -55 -16 -77 -18 -99 -12 -124 4
-15 12 -24 20 -21 14 6 42 -85 31 -103 -11 -17 -24 -11 -31 14 -4 17 -11 22
-25 19 -10 -3 -19 -9 -19 -14 0 -18 -59 -39 -90 -33 -26 6 -32 3 -37 -15 -8
-32 -21 -25 -32 17 -13 46 -14 69 -2 76 26 16 -28 80 -68 81 -30 0 -43 199
-16 245 18 32 19 64 1 79 -8 7 -16 42 -20 89 -11 125 -16 143 -42 152 -15 6
-27 23 -35 49 -7 23 -19 41 -30 44 -31 8 -39 72 -35 266 5 193 13 227 57 238
10 3 25 16 34 30 11 17 23 23 36 20 26 -7 54 31 73 97 14 46 23 58 77 96 95
70 149 96 197 96 37 1 42 -2 42 -22z m-565 -451 c4 -10 8 -80 10 -155 l3 -138
-29 0 c-15 0 -36 9 -46 19 -14 15 -30 19 -65 18 -30 -1 -52 4 -64 14 -11 9
-44 22 -74 30 -53 12 -90 33 -90 51 0 5 12 14 28 20 15 7 35 18 44 26 26 22
241 131 259 131 9 1 20 -7 24 -16z m553 -964 c-2 -24 -7 -44 -13 -43 -14 1
-18 30 -10 71 9 50 27 28 23 -28z m-80 -248 c4 -27 -13 -50 -27 -35 -13 12 -1
66 13 61 6 -2 13 -14 14 -26z m104 -948 c43 -70 59 -114 47 -129 -16 -19 -61
15 -94 70 -30 50 -31 71 -7 85 26 15 28 14 54 -26z m3483 -113 c17 -19 16 -21
-44 -80 -33 -33 -61 -63 -61 -66 0 -4 11 -4 25 -2 14 3 33 0 42 -7 15 -11 16
-19 5 -77 -16 -88 -15 -131 5 -194 14 -44 14 -61 4 -116 -20 -108 -23 -117
-37 -129 -8 -6 -14 -19 -14 -28 0 -10 -11 -28 -25 -41 -32 -30 -32 -50 1 -50
30 0 28 -23 -2 -28 -29 -6 -40 -20 -26 -34 18 -18 14 -56 -7 -68 -29 -15 -31
-13 -31 31 0 22 -5 49 -11 60 -7 15 -7 24 2 35 9 11 9 21 -1 44 -10 25 -10 36
0 54 10 20 9 28 -6 51 -13 20 -17 44 -16 85 1 31 -4 72 -12 90 -9 23 -11 43
-5 63 6 21 4 38 -7 59 -14 27 -14 34 -1 67 9 20 14 56 13 81 -4 57 18 100 81
168 55 58 95 68 128 32z m-3538 -12 c13 -12 23 -27 23 -34 0 -8 6 -11 15 -8
24 10 64 -5 75 -27 13 -24 -14 -337 -31 -353 -5 -6 -9 -20 -9 -32 0 -35 -11
-54 -30 -54 -23 0 -30 27 -30 124 0 67 -3 83 -21 102 -25 27 -58 141 -59 202
0 40 22 102 37 102 4 0 17 -10 30 -22z m3594 -129 c18 -18 20 -29 16 -83 -11
-114 -31 -201 -47 -201 -12 0 -16 20 -18 110 -3 121 4 195 19 195 5 0 18 -9
30 -21z m-311 -782 c0 -21 -12 -28 -27 -16 -19 16 -16 29 7 29 11 0 20 -6 20
-13z m-76 -620 c-7 -20 -34 -23 -34 -4 0 19 22 39 32 29 5 -5 6 -16 2 -25z
m-2848 -204 c-7 -17 -8 -17 -22 1 -8 11 -14 29 -14 40 0 20 0 20 21 -1 15 -14
19 -27 15 -40z m-46 -23 c0 -5 -7 -10 -15 -10 -8 0 -15 5 -15 10 0 6 7 10 15
10 8 0 15 -4 15 -10z m2433 -992 c25 -13 16 -32 -19 -39 -46 -10 -140 -10
-168 1 -35 13 -24 40 18 41 17 1 42 5 56 9 28 10 85 4 113 -12z m-53 -128 c12
-7 12 -12 2 -22 -17 -17 -187 -17 -203 -1 -9 9 -3 14 22 21 44 13 160 14 179
2z m-50 -120 c28 -18 -8 -34 -83 -38 -68 -3 -138 11 -123 25 18 18 181 29 206
13z m-53 -123 c16 -17 -22 -31 -99 -37 -46 -4 -85 -5 -88 -3 -11 9 20 39 46
45 34 8 131 4 141 -5z m-2227 -87 c0 -25 -4 -30 -23 -30 -37 0 -40 12 -10 37
16 12 29 22 31 23 1 0 2 -13 2 -30z m2142 -51 c44 -32 23 -44 -74 -42 -85 2
-123 17 -72 28 16 4 47 13 69 20 22 7 42 14 43 14 2 1 17 -9 34 -20z m-2139
-73 c7 -19 -18 -40 -38 -32 -18 7 -20 32 -2 39 22 10 35 7 40 -7z m2114 -59
c23 -23 -74 -45 -142 -33 -42 8 -42 28 1 38 34 8 131 4 141 -5z m-2127 -73 c0
-16 -31 -34 -60 -34 -19 0 -20 1 -5 29 8 16 20 31 27 34 16 5 38 -11 38 -29z
m2054 -68 l30 -23 -38 -13 c-25 -8 -60 -10 -102 -5 -62 6 -82 20 -46 31 9 3
31 12 47 19 44 20 76 18 109 -9z m-2069 -71 c0 -28 -2 -30 -38 -29 -50 2 -55
9 -27 39 33 35 65 30 65 -10z m2013 -51 c12 -4 22 -10 22 -15 0 -16 -35 -27
-108 -34 -73 -7 -73 -7 -60 14 21 34 88 50 146 35z m-2031 -69 c6 -20 -13 -32
-57 -38 -39 -6 -43 -5 -27 7 9 7 17 18 17 24 0 21 60 28 67 7z m2023 -90 c21
-13 -12 -25 -84 -32 -72 -6 -119 2 -113 20 2 6 14 15 28 19 29 9 151 4 169 -7z
m-2040 -54 c0 -34 -16 -42 -64 -34 -42 7 -46 20 -12 33 13 5 27 14 31 19 3 6
15 11 26 11 14 0 19 -7 19 -29z m1966 -95 c18 -14 18 -15 -9 -25 -57 -22 -217
-6 -191 18 24 24 170 28 200 7z m-1988 -28 c15 -15 -3 -38 -29 -38 -10 0 -21
-4 -24 -10 -6 -10 -45 -14 -45 -4 0 3 12 18 28 34 29 31 51 37 70 18z m1958
-92 c10 -8 16 -17 13 -20 -3 -3 -38 -12 -78 -21 -125 -26 -187 -15 -119 22 62
34 151 43 184 19z m-1968 -63 c3 -19 -3 -23 -37 -29 -23 -4 -41 -10 -41 -15 0
-5 -11 -9 -25 -9 -16 0 -25 6 -25 15 0 8 7 15 15 15 7 0 18 6 22 14 10 17 51
36 73 33 8 -1 16 -12 18 -24z m1924 -84 c21 -11 21 -12 3 -25 -19 -14 -148
-20 -179 -8 -23 9 -20 23 7 34 32 13 145 12 169 -1z m-1947 -45 c0 -13 -17
-28 -54 -47 -63 -32 -96 -30 -65 5 11 11 33 27 51 34 17 8 35 19 38 24 10 17
30 6 30 -16z m1921 -108 c18 -14 18 -15 -9 -25 -36 -14 -148 -14 -184 0 l-28
11 25 13 c34 19 170 20 196 1z m-1942 -22 c9 -3 16 -11 16 -18 0 -13 -139 -81
-148 -72 -7 8 21 36 68 70 40 27 42 28 64 20z m1864 -67 c2 -12 -3 -17 -17
-17 -12 0 -21 6 -21 13 0 31 32 34 38 4z m-1873 -87 c10 -16 -15 -40 -41 -40
-13 0 -24 -4 -24 -8 0 -9 -61 -34 -68 -28 -8 8 19 46 33 46 8 0 18 6 22 14 14
24 67 34 78 16z m1835 -54 c0 -21 -21 -31 -31 -15 -14 22 -11 29 11 29 11 0
20 -6 20 -14z m49 -68 c31 -11 22 -19 -36 -30 -85 -17 -183 -8 -183 17 0 27
155 37 219 13z m-1894 -43 c0 -17 -8 -20 -47 -23 -34 -2 -48 -7 -48 -18 0 -16
-38 -19 -60 -3 -13 9 -13 12 3 22 10 7 28 20 40 30 15 13 34 17 67 15 37 -3
45 -6 45 -23z m1815 -35 c0 -5 -9 -19 -20 -30 -22 -22 -19 -25 33 -34 41 -8
47 -20 18 -36 -24 -13 -191 -13 -211 0 -24 15 0 29 66 38 49 6 58 11 56 26 -2
9 2 24 9 32 13 16 49 19 49 4z m-50 -160 c0 -15 -7 -20 -25 -20 -18 0 -25 5
-25 20 0 15 7 20 25 20 18 0 25 -5 25 -20z"/>
<path d="M2390 7905 c0 -28 24 -34 34 -9 10 26 7 34 -14 34 -15 0 -20 -7 -20
-25z"/>
<path d="M2531 7600 c1 -34 14 -66 22 -53 4 6 0 26 -8 44 -13 31 -14 32 -14 9z"/>
<path d="M2719 5433 c-11 -30 -5 -98 11 -123 7 -10 10 11 10 68 0 45 -2 82 -5
82 -3 0 -10 -12 -16 -27z"/>
<path d="M4563 8134 c-7 -19 0 -26 21 -18 20 8 21 20 1 28 -9 3 -18 -1 -22
-10z"/>
<path d="M4385 8120 c-3 -5 3 -10 15 -10 12 0 18 5 15 10 -3 6 -10 10 -15 10
-5 0 -12 -4 -15 -10z"/>
<path d="M4658 8103 c12 -2 32 -2 45 0 12 2 2 4 -23 4 -25 0 -35 -2 -22 -4z"/>
<path d="M4436 7515 c-4 -14 -3 -33 2 -42 7 -12 10 -8 16 18 8 40 -9 62 -18
24z"/>
<path d="M4406 7288 c-5 -16 -5 -36 0 -45 7 -16 8 -15 11 5 3 12 3 32 0 45 -3
21 -4 20 -11 -5z"/>
<path d="M4400 7145 c0 -8 5 -15 10 -15 6 0 10 7 10 15 0 8 -4 15 -10 15 -5 0
-10 -7 -10 -15z"/>
<path d="M4375 7010 c-10 -16 4 -62 15 -55 13 8 13 52 1 60 -5 3 -13 0 -16 -5z"/>
<path d="M3085 6440 c-7 -12 2 -30 16 -30 5 0 9 9 9 20 0 21 -15 27 -25 10z"/>
<path d="M5660 6235 c-16 -19 16 -75 44 -75 25 0 96 -75 96 -102 0 -11 15 -35
34 -52 18 -18 36 -42 40 -53 10 -30 34 -36 47 -12 8 16 7 26 -5 44 -9 14 -16
35 -16 48 0 27 -135 174 -155 169 -7 -1 -20 9 -29 23 -19 28 -38 32 -56 10z"/>
<path d="M3670 6135 c-10 -12 -9 -16 5 -21 19 -8 40 9 31 25 -10 15 -21 14
-36 -4z"/>
<path d="M3504 5889 c-3 -6 -17 -9 -31 -6 -63 12 -190 -49 -258 -125 -19 -21
-42 -38 -51 -38 -9 0 -14 -7 -12 -17 3 -13 13 -18 40 -18 20 0 40 -3 44 -7 12
-13 24 -9 24 7 0 40 28 70 76 83 27 8 58 18 69 22 36 16 166 5 219 -18 27 -12
67 -22 90 -22 23 0 48 -6 54 -12 8 -8 40 -12 90 -12 131 2 142 4 142 30 0 12
-12 35 -27 51 -23 24 -41 32 -103 41 -70 11 -150 10 -212 -4 -18 -4 -28 -2
-28 5 0 32 -109 66 -126 40z"/>
<path d="M4985 5881 c-11 -5 -58 -12 -105 -16 -47 -3 -101 -11 -120 -17 -27
-7 -42 -6 -64 6 -33 17 -58 9 -79 -24 -15 -25 -34 -26 -42 -1 -9 29 -63 6 -67
-29 -2 -19 -8 -24 -25 -22 -17 2 -24 -5 -33 -33 -7 -20 -9 -39 -5 -43 3 -4 23
3 44 14 33 18 40 19 58 7 19 -13 23 -11 43 16 25 37 47 40 52 9 3 -21 9 -23
84 -26 71 -2 91 1 158 28 42 16 80 29 84 28 4 -1 42 4 85 11 59 11 84 11 103
2 14 -6 35 -11 47 -11 12 0 35 -7 51 -15 15 -8 35 -15 42 -15 24 0 157 -73
180 -98 22 -25 39 -20 24 9 -6 9 -7 25 -4 33 4 10 1 16 -8 16 -8 0 -34 18 -59
40 -72 65 -203 120 -294 124 -27 2 -68 5 -90 9 -22 4 -49 3 -60 -2z"/>
<path d="M4087 5782 c-23 -25 -21 -59 4 -72 27 -15 30 -10 36 45 6 50 -10 61
-40 27z"/>
<path d="M3505 5660 c-41 -10 -124 -50 -133 -64 -4 -6 -7 -39 -7 -72 0 -51 3
-63 20 -70 11 -5 22 -23 26 -43 8 -37 23 -51 57 -51 25 0 28 10 10 28 -10 10
-10 17 -1 31 10 16 8 23 -13 42 -34 32 -31 68 7 102 61 53 89 69 113 63 21 -5
22 -10 18 -59 -3 -40 0 -56 12 -66 9 -7 16 -19 16 -26 0 -19 23 -24 84 -18 50
5 56 9 70 38 9 18 16 52 16 74 0 27 5 44 14 47 19 7 66 -18 93 -50 26 -29 43
-34 43 -11 0 8 9 15 20 15 11 0 20 -5 20 -11 0 -6 12 -9 28 -7 27 3 38 -7 62
-60 7 -17 6 -30 -4 -50 -8 -15 -12 -39 -9 -53 3 -15 -2 -40 -10 -56 -8 -16
-15 -49 -15 -75 1 -35 -9 -66 -43 -133 -24 -48 -49 -90 -56 -92 -7 -3 -13 -15
-13 -27 0 -12 -6 -31 -14 -42 -20 -28 -24 -178 -6 -226 15 -42 13 -40 85 -42
38 -1 59 -8 86 -28 52 -40 126 -39 200 2 70 38 164 43 193 9 14 -16 25 -20 48
-15 37 7 58 23 58 43 0 8 7 21 15 30 23 23 17 107 -8 111 -16 3 -17 -1 -12
-31 9 -46 -17 -103 -52 -112 -19 -4 -35 2 -68 30 -51 42 -69 43 -131 10 -26
-14 -55 -25 -65 -25 -28 0 -49 -11 -49 -26 0 -7 -11 -16 -25 -20 -30 -7 -75
19 -128 75 -33 35 -37 43 -27 62 9 16 8 24 -4 38 -9 10 -16 27 -16 38 0 12 -8
23 -20 26 -18 5 -19 8 -8 34 7 15 20 39 30 52 10 13 18 29 18 35 0 6 11 33 24
61 37 78 55 153 55 234 0 40 5 78 10 85 16 19 23 119 11 150 -14 38 -70 96
-92 96 -22 0 -22 -1 -3 -47 20 -47 5 -66 -27 -36 -13 11 -31 23 -40 26 -10 4
-18 11 -18 17 0 5 -11 10 -24 10 -13 0 -41 6 -62 13 -45 16 -314 29 -359 17z
m234 -59 c12 -8 13 -14 3 -36 -13 -29 -38 -31 -55 -4 -22 35 15 63 52 40z
m222 -726 c4 -22 16 -45 28 -54 l22 -17 -32 -23 c-28 -21 -33 -22 -46 -8 -12
12 -14 29 -8 82 8 74 26 84 36 20z"/>
<path d="M4794 5636 c-56 -10 -164 -66 -164 -84 0 -9 58 -42 75 -42 7 0 24 13
37 28 26 31 81 62 110 62 14 0 18 -8 18 -39 0 -50 18 -99 40 -111 10 -6 39
-10 65 -10 37 0 51 5 71 27 23 25 28 38 37 88 4 28 57 24 77 -7 8 -12 23 -31
33 -40 23 -24 22 -55 -4 -69 -16 -8 -18 -13 -9 -19 9 -6 9 -13 1 -28 -12 -23
-4 -55 13 -49 6 2 12 13 14 25 2 12 18 33 35 46 39 30 68 126 46 152 -19 24
-90 54 -124 54 -17 0 -36 5 -42 11 -15 15 -256 19 -329 5z m209 -70 c7 -18
-12 -36 -39 -36 -26 0 -38 14 -30 35 7 19 62 20 69 1z"/>
<path d="M3240 5610 c-17 -32 -1 -44 26 -19 13 12 21 26 18 30 -9 16 -33 9
-44 -11z"/>
<path d="M4468 5539 c-27 -27 -48 -59 -49 -71 0 -13 -4 -32 -8 -43 -9 -21 18
-77 34 -72 6 2 11 32 13 66 3 59 5 63 36 82 28 16 34 26 34 54 0 19 -3 35 -6
34 -4 0 -28 -23 -54 -50z"/>
<path d="M3956 5532 c-3 -6 -1 -14 5 -17 15 -10 25 3 12 16 -7 7 -13 7 -17 1z"/>
<path d="M4627 5483 c-12 -11 -8 -23 8 -23 8 0 15 7 15 15 0 16 -12 20 -23 8z"/>
<path d="M4732 5363 c2 -14 15 -19 48 -21 l45 -3 -40 21 c-48 25 -57 25 -53 3z"/>
<path d="M4965 5321 c-6 -11 15 -18 59 -20 35 -1 53 9 35 20 -19 12 -86 11
-94 0z"/>
<path d="M3307 5149 c-24 -14 -12 -29 24 -29 24 0 30 4 27 17 -4 21 -26 27
-51 12z"/>
<path d="M2900 4788 c0 -18 5 -40 10 -48 7 -11 10 -2 10 33 0 26 -4 47 -10 47
-5 0 -10 -15 -10 -32z"/>
<path d="M3975 4614 c-10 -24 -20 -34 -29 -31 -17 7 -56 -33 -56 -56 0 -22 18
-31 36 -16 21 17 34 1 45 -57 5 -27 13 -52 18 -57 6 -6 29 9 57 37 27 25 52
46 57 46 11 0 77 70 77 81 0 17 -39 9 -50 -10 -12 -24 -47 -36 -64 -22 -6 5
-23 7 -36 4 -20 -5 -22 -4 -15 13 28 69 29 72 16 88 -21 25 -40 19 -56 -20z"/>
<path d="M4367 4609 c-10 -6 -22 -22 -27 -35 -5 -13 -16 -24 -25 -24 -8 0 -15
-5 -15 -11 0 -6 -7 -8 -16 -5 -14 6 -16 0 -12 -39 8 -68 30 -95 79 -95 26 0
42 5 46 15 7 21 -4 32 -19 17 -16 -16 -28 -15 -28 3 0 8 16 31 35 51 29 30 35
43 35 79 0 30 -5 45 -16 49 -19 7 -15 8 -37 -5z"/>
<path d="M5403 4613 c-15 -5 -17 -51 -4 -72 7 -11 13 -9 30 8 36 36 17 82 -26
64z"/>
<path d="M3766 4566 c-14 -19 -26 -39 -26 -44 0 -6 -23 -10 -51 -10 -29 -1
-57 -6 -62 -11 -6 -6 -23 -11 -37 -11 -27 0 -45 -21 -68 -80 -20 -50 -24 -83
-13 -99 12 -18 52 -3 114 43 23 17 55 38 72 46 32 16 45 48 25 60 -24 15 -2
40 33 40 42 0 61 21 63 66 1 44 -16 44 -50 0z"/>
<path d="M4530 4555 c0 -14 5 -36 12 -48 6 -12 14 -38 18 -57 4 -26 10 -35 25
-35 14 0 19 6 17 18 -7 41 48 6 62 -40 4 -13 11 -23 16 -23 5 0 16 10 24 23
12 18 13 31 3 71 -9 39 -18 53 -48 72 -21 13 -50 26 -66 30 -15 3 -36 8 -45
11 -14 3 -18 -2 -18 -22z"/>
<path d="M4430 4475 c0 -40 9 -44 35 -15 21 23 13 50 -15 50 -16 0 -20 -6 -20
-35z"/>
<path d="M3833 4474 c-3 -8 -1 -20 6 -27 8 -8 11 -4 11 16 0 30 -7 35 -17 11z"/>
<path d="M4800 4481 c0 -6 5 -13 10 -16 6 -3 10 -17 10 -30 0 -12 7 -25 15
-29 9 -3 15 -18 15 -39 0 -18 4 -37 10 -43 20 -20 -9 -35 -88 -44 -46 -5 -88
-8 -95 -6 -175 52 -259 66 -388 66 -50 0 -99 5 -110 11 -14 7 -61 6 -167 -7
-137 -15 -226 -15 -310 2 -24 5 -33 3 -38 -10 -10 -27 53 -66 164 -100 58 -18
76 -14 67 16 -4 10 -4 31 -1 44 l7 25 33 -20 c30 -19 35 -19 46 -6 16 19 43
19 83 -1 21 -12 32 -13 35 -5 5 16 69 13 121 -5 40 -13 48 -13 83 1 49 19 102
19 118 0 10 -13 25 -14 73 -9 52 6 62 4 74 -12 9 -13 26 -19 51 -19 31 0 38
-4 40 -24 3 -22 7 -23 60 -19 32 2 78 14 103 26 61 30 73 28 105 -13 29 -38
50 -45 57 -17 13 47 17 93 8 109 -5 10 -14 30 -20 46 -6 15 -22 32 -36 37 -14
5 -25 14 -25 18 0 5 -19 22 -42 38 -24 16 -44 32 -46 37 -5 10 -22 9 -22 -2z"/>
<path d="M4736 4462 c-3 -6 -1 -14 5 -17 15 -10 25 3 12 16 -7 7 -13 7 -17 1z"/>
<path d="M3887 4432 c-21 -23 -13 -32 25 -32 23 0 28 4 28 25 0 30 -29 34 -53
7z"/>
<path d="M4500 4420 c0 -16 4 -30 9 -30 12 0 19 21 13 43 -7 28 -22 20 -22
-13z"/>
<path d="M5785 4431 c-3 -6 -3 -26 1 -45 6 -32 8 -34 28 -23 11 7 22 12 22 12
1 0 4 10 8 21 5 15 2 23 -11 28 -10 3 -23 8 -30 12 -6 3 -14 0 -18 -5z"/>
<path d="M3802 4421 c2 -7 7 -12 11 -12 12 1 9 15 -3 20 -7 2 -11 -2 -8 -8z"/>
<path d="M4790 4376 c0 -20 11 -46 19 -46 4 0 6 14 3 30 -4 30 -22 43 -22 16z"/>
<path d="M5787 4313 c-13 -12 -7 -43 7 -43 19 0 28 14 20 34 -7 17 -16 20 -27
9z"/>
<path d="M5605 4270 c-9 -14 4 -52 16 -45 12 8 12 42 0 50 -5 3 -12 1 -16 -5z"/>
<path d="M4550 4217 c0 -9 -3 -23 -6 -32 -5 -13 -2 -16 17 -13 18 2 24 9 24
28 0 16 -6 26 -17 28 -11 2 -18 -3 -18 -11z"/>
<path d="M5798 4223 c-26 -7 -22 -28 7 -41 24 -11 25 -10 25 18 0 17 -3 29 -7
29 -5 -1 -16 -3 -25 -6z"/>
<path d="M5475 4173 c3 -21 13 -49 20 -63 40 -73 40 -70 22 -100 -22 -37 -23
-57 -2 -40 8 7 15 17 15 23 0 5 7 15 15 21 19 15 4 81 -30 132 -14 20 -25 43
-25 50 0 8 -5 14 -11 14 -8 0 -9 -13 -4 -37z"/>
<path d="M4061 4183 c-9 -3 9 -12 39 -20 35 -9 57 -10 63 -4 7 7 6 12 -4 15
-29 9 -84 14 -98 9z"/>
<path d="M5600 4169 c-14 -25 -4 -93 16 -110 8 -6 14 -17 14 -24 0 -7 11 -20
25 -29 33 -22 33 -4 0 49 -17 27 -24 55 -25 88 0 50 -12 60 -30 26z"/>
<path d="M4245 4170 c-3 -5 -4 -14 -1 -19 9 -14 67 -22 84 -11 14 7 11 10 -15
16 -18 3 -33 10 -33 15 0 12 -27 11 -35 -1z"/>
<path d="M4410 4170 c-8 -5 -24 -11 -34 -15 -14 -4 -16 -9 -9 -16 8 -8 17 -7
33 1 12 7 35 10 50 6 35 -6 45 3 22 20 -20 15 -40 17 -62 4z"/>
<path d="M4196 4163 c-11 -11 -6 -23 9 -23 8 0 15 4 15 9 0 13 -16 22 -24 14z"/>
<path d="M5730 4081 c0 -49 4 -70 14 -74 10 -4 13 8 14 51 0 64 -5 92 -19 92
-5 0 -9 -31 -9 -69z"/>
<path d="M5207 4103 c-2 -5 -7 -20 -11 -35 -3 -16 -13 -28 -21 -28 -8 0 -19
-18 -26 -41 -11 -34 -10 -42 2 -49 20 -13 30 1 36 49 4 26 13 45 24 52 11 5
19 21 19 34 0 24 -14 34 -23 18z"/>
<path d="M5300 4091 c0 -12 6 -21 16 -21 9 0 14 7 12 17 -5 25 -28 28 -28 4z"/>
<path d="M4955 4079 c-4 -6 -6 -43 -4 -82 1 -40 -1 -85 -5 -100 -5 -18 -4 -37
3 -50 6 -12 15 -35 21 -52 19 -50 30 -10 30 106 0 93 -2 108 -20 124 -14 12
-18 25 -14 41 6 25 0 32 -11 13z"/>
<path d="M3105 4009 c-9 -13 3 -59 14 -59 5 0 11 9 14 21 10 36 -12 65 -28 38z"/>
<path d="M4583 3992 c-30 -10 -60 -51 -68 -95 -6 -32 -5 -37 11 -37 11 1 29 9
41 19 32 27 69 123 46 120 -5 -1 -18 -4 -30 -7z"/>
<path d="M5337 3977 c-4 -10 -7 -57 -7 -104 0 -63 3 -84 13 -81 15 6 20 77 10
148 -6 38 -11 49 -16 37z"/>
<path d="M3228 3956 c-6 -30 -2 -36 24 -36 15 0 19 6 16 27 -4 37 -34 43 -40
9z"/>
<path d="M5595 3970 c-19 -7 -18 -7 4 -19 19 -11 26 -10 38 2 13 12 12 15 -4
19 -10 3 -27 2 -38 -2z"/>
<path d="M3880 3918 c-21 -17 -21 -17 -2 -39 30 -32 74 -19 88 26 l11 34 -38
-2 c-20 0 -47 -9 -59 -19z"/>
<path d="M4193 3913 c-7 -3 -13 -15 -13 -28 0 -13 -5 -27 -10 -30 -6 -4 -8
-11 -4 -16 13 -21 -8 -69 -32 -75 -29 -7 -32 -24 -4 -24 11 0 20 -2 20 -3 0
-13 -33 -67 -41 -67 -5 0 -9 -7 -9 -15 0 -8 5 -15 11 -15 19 0 79 67 79 89 0
24 30 103 42 112 11 7 0 55 -15 67 -7 5 -18 7 -24 5z"/>
<path d="M5220 3912 c0 -19 12 -42 22 -42 14 0 5 43 -9 48 -7 2 -13 -1 -13 -6z"/>
<path d="M5490 3905 c0 -8 7 -15 15 -15 8 0 15 -5 15 -12 0 -6 3 -9 6 -6 7 7
-18 48 -28 48 -5 0 -8 -7 -8 -15z"/>
<path d="M5140 3886 c0 -16 5 -26 15 -26 8 0 15 6 15 14 0 7 -7 19 -15 26 -13
11 -15 8 -15 -14z"/>
<path d="M5457 3883 c-13 -12 -7 -43 8 -43 9 0 15 9 15 25 0 24 -10 32 -23 18z"/>
<path d="M3240 3829 c0 -17 4 -28 10 -24 6 3 10 17 10 31 0 13 -4 24 -10 24
-5 0 -10 -14 -10 -31z"/>
<path d="M3797 3853 c-13 -12 -7 -23 13 -23 11 0 20 7 20 15 0 15 -21 21 -33
8z"/>
<path d="M4834 3835 c-10 -26 1 -35 13 -10 6 14 7 25 2 25 -5 0 -12 -7 -15
-15z"/>
<path d="M4034 3826 c-21 -16 -22 -14 31 -31 10 -3 15 3 16 18 1 17 2 18 6 5
6 -25 43 -23 43 2 0 16 -7 20 -38 20 -21 0 -47 -6 -58 -14z"/>
<path d="M4261 3812 c3 -36 -8 -69 -27 -76 -8 -3 -13 -10 -9 -16 4 -6 14 -5
30 2 39 18 52 6 50 -49 -1 -26 -5 -63 -10 -80 -6 -27 -5 -33 9 -33 8 0 24 12
33 28 21 31 53 61 68 62 22 1 37 18 29 31 -8 14 -9 17 -12 48 -1 10 -14 4 -37
-19 l-35 -34 -6 32 c-4 18 -10 35 -15 38 -5 2 -13 22 -19 43 -7 25 -17 41 -31
44 -17 5 -20 1 -18 -21z"/>
<path d="M5544 3785 c-15 -47 2 -63 29 -28 15 18 18 30 10 41 -16 27 -28 23
-39 -13z"/>
<path d="M5730 3795 c0 -14 2 -25 4 -25 2 0 11 -3 19 -6 10 -3 18 5 25 25 11
30 10 31 -19 31 -24 0 -29 -4 -29 -25z"/>
<path d="M3981 3791 c-8 -5 -11 -16 -6 -30 7 -22 18 -25 50 -11 18 7 19 8 3
15 -10 4 -18 13 -18 21 0 16 -9 18 -29 5z"/>
<path d="M5314 3767 c-3 -9 -3 -25 1 -34 6 -16 8 -16 18 5 7 16 7 26 -1 34 -8
8 -13 7 -18 -5z"/>
<path d="M5034 3746 c-3 -13 -12 -27 -20 -30 -29 -11 -6 -86 27 -86 5 0 14
-12 20 -27 7 -19 13 -23 21 -15 8 8 6 22 -6 53 -10 23 -16 61 -14 83 3 45 -18
62 -28 22z"/>
<path d="M3490 3741 c0 -11 -4 -23 -10 -26 -14 -8 -13 -35 1 -35 17 0 38 32
39 58 0 13 -6 22 -15 22 -8 0 -15 -9 -15 -19z"/>
<path d="M5406 3728 c-9 -12 -16 -28 -16 -35 0 -6 -6 -16 -14 -20 -19 -11 -24
-45 -8 -50 6 -3 12 2 12 10 0 7 9 22 20 32 11 10 20 24 20 32 0 7 5 13 10 13
6 0 10 9 10 20 0 26 -15 25 -34 -2z"/>
<path d="M3170 3730 c-12 -8 -11 -13 8 -32 20 -22 20 -25 6 -40 -15 -15 -14
-19 21 -55 24 -24 39 -33 42 -25 3 6 18 12 33 12 34 0 37 4 46 58 5 33 3 42
-8 42 -17 0 -58 -41 -58 -58 0 -16 -16 -23 -35 -16 -11 5 -14 14 -10 33 4 21
-18 92 -28 91 -1 0 -9 -5 -17 -10z"/>
<path d="M3914 3705 c-5 -26 -2 -41 10 -54 21 -23 21 -24 -9 -71 -29 -45 -32
-70 -9 -70 8 0 24 19 35 45 11 25 24 45 29 45 15 0 12 21 -5 40 -13 14 -14 22
-4 43 15 32 6 57 -20 57 -15 0 -22 -9 -27 -35z"/>
<path d="M5763 3713 c1 -16 -1 -34 -4 -42 -7 -24 17 -22 30 3 10 18 10 29 2
45 -16 29 -28 26 -28 -6z"/>
<path d="M5597 3691 c-15 -26 -15 -29 -1 -35 22 -9 34 1 34 29 0 35 -14 38
-33 6z"/>
<path d="M3534 3668 c-5 -8 -17 -17 -26 -21 -24 -8 -23 -27 0 -27 26 0 59 37
45 51 -8 8 -13 7 -19 -3z"/>
<path d="M3788 3669 c-18 -10 -24 -40 -12 -52 9 -9 64 34 64 50 0 15 -28 17
-52 2z"/>
<path d="M3452 3636 c1 -10 8 -17 13 -17 15 1 12 24 -3 29 -9 3 -13 -2 -10
-12z"/>
<path d="M5430 3635 c0 -8 5 -15 10 -15 6 0 10 7 10 15 0 8 -4 15 -10 15 -5 0
-10 -7 -10 -15z"/>
<path d="M5184 3606 c-7 -22 -8 -39 -2 -42 15 -10 20 2 16 41 l-3 37 -11 -36z"/>
<path d="M4065 3609 c-9 -27 12 -50 25 -29 14 22 12 50 -4 50 -8 0 -18 -9 -21
-21z"/>
<path d="M4502 3604 c2 -11 11 -20 22 -22 13 -3 17 1 14 14 -2 11 -11 20 -22
22 -13 3 -17 -1 -14 -14z"/>
<path d="M4677 3602 c-25 -27 -21 -42 11 -42 25 0 29 -5 41 -50 14 -54 18 -57
45 -37 16 12 16 14 2 26 -9 8 -16 24 -16 37 0 12 -5 26 -11 29 -5 4 -14 18
-19 31 -11 29 -31 31 -53 6z"/>
<path d="M4860 3574 c0 -9 5 -14 12 -12 18 6 21 28 4 28 -9 0 -16 -7 -16 -16z"/>
<path d="M5290 3583 c0 -4 6 -25 14 -46 l13 -38 17 26 c23 35 17 59 -17 63
-15 2 -27 0 -27 -5z"/>
<path d="M3600 3565 c0 -8 4 -15 9 -15 5 0 14 7 21 15 10 13 9 15 -9 15 -12 0
-21 -6 -21 -15z"/>
<path d="M3294 3545 c-16 -13 -17 -16 -4 -25 23 -15 45 -7 48 18 4 26 -15 29
-44 7z"/>
<path d="M3520 3547 c0 -7 7 -22 15 -33 14 -18 14 -17 15 14 0 22 -5 32 -15
32 -8 0 -15 -6 -15 -13z"/>
<path d="M3693 3553 c-7 -2 -13 -11 -13 -18 0 -8 -11 -22 -25 -33 -14 -11 -25
-26 -25 -34 0 -8 -11 -20 -25 -26 -16 -7 -23 -17 -19 -27 10 -25 34 -17 49 18
7 17 23 38 34 45 12 7 21 19 21 27 0 8 9 19 20 25 30 16 15 36 -17 23z"/>
<path d="M4205 3543 c-11 -26 -14 -152 -4 -158 4 -3 11 11 15 31 4 21 21 57
38 81 26 37 28 45 16 53 -24 15 -57 11 -65 -7z"/>
<path d="M4910 3546 c0 -21 11 -46 20 -46 12 0 20 28 14 45 -8 19 -34 20 -34
1z"/>
<path d="M6058 3538 c15 -15 16 -64 2 -73 -5 -3 -10 -16 -10 -29 0 -12 -7 -31
-15 -42 -8 -10 -15 -28 -15 -39 0 -11 -7 -29 -15 -39 -8 -11 -15 -27 -15 -37
0 -9 -7 -19 -15 -23 -8 -3 -15 -15 -15 -27 0 -11 -6 -33 -13 -47 -8 -15 -21
-42 -30 -60 -9 -19 -17 -42 -17 -52 0 -10 -4 -21 -9 -25 -5 -3 -12 -20 -16
-38 -6 -30 -57 -144 -126 -280 -16 -32 -29 -64 -29 -70 0 -7 -7 -25 -15 -40
-18 -34 -45 -196 -45 -268 0 -27 -5 -60 -12 -72 -7 -12 -15 -85 -19 -162 -4
-77 -14 -171 -23 -210 -9 -38 -21 -95 -27 -125 -6 -30 -15 -63 -20 -72 -5 -10
-9 -26 -9 -35 -1 -10 -9 -36 -20 -58 -11 -22 -19 -48 -20 -58 0 -10 -7 -25
-15 -33 -8 -9 -15 -32 -15 -52 0 -20 -6 -54 -14 -77 -8 -22 -22 -67 -31 -100
-9 -33 -23 -73 -30 -90 -29 -66 -105 -369 -105 -421 0 -16 -7 -47 -15 -69 -8
-22 -14 -63 -15 -92 0 -28 -4 -54 -9 -58 -5 -3 -12 -31 -16 -63 -3 -31 -13
-84 -21 -118 -8 -33 -13 -71 -13 -85 1 -13 -6 -51 -15 -84 -9 -32 -16 -73 -16
-90 0 -17 -4 -35 -9 -40 -4 -6 -11 -27 -14 -47 -5 -35 -4 -38 19 -38 17 0 24
5 24 20 0 10 9 24 21 31 15 8 18 14 10 22 -16 16 -13 64 4 71 11 4 14 13 9 31
-9 35 14 125 32 125 23 0 27 26 9 60 -15 28 -15 36 0 92 8 34 20 67 26 74 7 9
7 19 1 30 -7 12 -5 28 6 53 8 20 16 61 18 92 1 31 9 69 17 85 11 21 12 35 5
56 -8 23 -7 33 6 47 9 10 14 25 10 35 -3 9 -1 22 5 30 6 8 14 29 16 47 13 94
79 209 120 209 12 0 28 7 35 15 7 8 24 15 39 15 15 0 31 8 39 20 12 19 20 20
109 15 59 -3 106 -11 119 -20 20 -13 21 -18 12 -52 -5 -21 -14 -43 -20 -50 -5
-7 -7 -17 -3 -23 4 -6 1 -17 -5 -25 -7 -8 -10 -23 -7 -34 2 -10 -1 -27 -7 -37
-6 -10 -12 -37 -12 -59 -3 -69 -15 -105 -34 -105 -10 0 -23 -7 -30 -15 -10
-12 -8 -16 14 -25 25 -9 37 -40 16 -40 -22 0 -33 -47 -20 -80 11 -26 10 -37
-6 -73 -10 -23 -24 -46 -32 -50 -9 -6 -10 -12 -3 -21 7 -8 6 -38 -4 -92 -15
-86 -32 -134 -48 -134 -5 0 -4 -7 3 -15 10 -12 10 -32 -1 -97 -7 -46 -18 -91
-25 -101 -9 -14 -9 -26 -1 -47 10 -26 8 -33 -13 -55 l-23 -25 26 0 c33 0 43
19 52 95 4 33 11 65 15 70 5 6 11 37 15 70 3 33 10 69 15 80 4 11 13 49 19 85
6 36 18 99 26 140 8 41 21 113 28 160 7 47 19 96 26 109 7 13 10 37 7 55 -4
19 0 42 10 61 9 17 17 50 18 75 1 25 7 54 13 65 7 12 15 50 19 85 4 35 13 75
20 89 8 14 14 34 14 44 0 9 4 17 10 17 18 0 43 65 52 135 4 39 15 117 23 175
8 58 20 168 25 245 5 77 14 156 20 175 5 19 14 112 20 205 12 206 27 363 40
428 6 26 13 134 16 240 3 106 9 201 14 212 5 11 14 52 19 90 6 39 17 105 25
148 16 78 14 89 -18 145 -21 36 -48 51 -90 52 -31 0 -37 -3 -28 -12z m77 -227
c-4 -36 -13 -81 -22 -100 -8 -19 -13 -46 -9 -62 3 -15 -4 -69 -15 -120 -15
-70 -18 -110 -13 -173 3 -44 7 -91 7 -103 1 -12 5 -25 10 -29 14 -15 7 -34
-14 -34 -19 0 -20 -5 -18 -74 3 -61 0 -79 -15 -95 -15 -17 -18 -33 -15 -88 5
-104 -1 -224 -12 -245 -6 -10 -12 -72 -14 -138 -2 -66 -6 -124 -10 -130 -3 -5
-1 -27 4 -47 9 -32 8 -40 -6 -50 -14 -11 -15 -18 -6 -47 6 -19 7 -38 3 -43 -5
-4 -11 -37 -14 -73 -12 -152 -26 -241 -45 -278 -24 -48 -83 -78 -133 -68 -106
23 -205 14 -271 -23 -25 -14 -29 -14 -38 -1 -14 22 -3 66 37 148 31 62 36 80
31 117 -5 31 -2 46 8 55 8 7 15 27 15 44 0 24 6 34 27 44 39 18 50 15 61 -15
l9 -28 13 27 c10 21 10 38 0 85 -18 79 -16 191 3 206 12 10 13 25 5 91 -12
102 11 314 44 396 4 8 9 36 13 61 6 50 29 114 69 196 14 28 28 62 31 76 4 14
15 33 26 43 12 11 19 30 19 53 0 37 52 189 102 297 15 34 28 66 28 70 0 5 10
20 21 34 11 14 31 42 45 63 34 52 47 39 39 -42z"/>
<path d="M5727 1663 c-14 -13 -6 -24 15 -21 27 4 36 28 11 28 -11 0 -23 -3
-26 -7z"/>
<path d="M5787 1613 c-14 -13 -6 -33 13 -33 11 0 20 4 20 9 0 13 -26 32 -33
24z"/>
<path d="M5840 1520 c0 -5 9 -14 20 -20 22 -12 27 -1 8 18 -14 14 -28 16 -28
2z"/>
<path d="M4970 3515 c0 -8 5 -15 10 -15 6 0 10 7 10 15 0 8 -4 15 -10 15 -5 0
-10 -7 -10 -15z"/>
<path d="M5143 3513 c-22 -15 -32 -43 -15 -43 11 0 44 40 40 50 -2 4 -13 1
-25 -7z"/>
<path d="M4890 3468 c0 -19 2 -20 10 -8 13 19 13 30 0 30 -5 0 -10 -10 -10
-22z"/>
<path d="M5415 3481 c3 -6 13 -11 21 -11 8 0 14 -10 14 -25 0 -14 5 -25 11
-25 6 0 9 14 7 33 -3 27 -7 33 -32 35 -18 2 -26 0 -21 -7z"/>
<path d="M4372 3467 c-13 -15 1 -42 17 -33 13 9 15 33 2 40 -5 3 -13 0 -19 -7z"/>
<path d="M4644 3467 c-7 -20 -2 -47 11 -50 14 -3 19 43 6 56 -7 7 -12 6 -17
-6z"/>
<path d="M5220 3468 c0 -16 39 -67 40 -52 0 16 -24 64 -32 64 -5 0 -8 -6 -8
-12z"/>
<path d="M3716 3454 c-4 -9 -4 -19 -2 -21 8 -8 26 8 26 23 0 19 -16 18 -24 -2z"/>
<path d="M5022 3458 c-16 -16 -15 -33 3 -48 9 -7 13 -21 10 -31 -3 -9 -1 -20
5 -24 6 -4 10 5 10 23 0 16 3 44 6 61 7 33 -10 43 -34 19z"/>
<path d="M5605 3460 c-3 -5 3 -10 14 -10 12 0 21 5 21 10 0 6 -6 10 -14 10 -8
0 -18 -4 -21 -10z"/>
<path d="M3470 3440 c0 -19 11 -26 23 -14 8 8 -3 34 -14 34 -5 0 -9 -9 -9 -20z"/>
<path d="M6243 3444 c-4 -10 1 -20 13 -27 31 -17 124 -109 124 -122 0 -22 46
-55 76 -55 17 0 35 -5 41 -11 16 -16 33 -2 33 25 0 16 -19 40 -57 75 -32 28
-63 51 -70 51 -6 0 -22 13 -35 29 -43 50 -111 70 -125 35z"/>
<path d="M3404 3435 c-17 -13 -17 -14 -2 -15 9 0 20 5 23 11 11 17 0 20 -21 4z"/>
<path d="M3212 3401 c-11 -7 -10 -10 3 -15 26 -10 35 -7 35 9 0 17 -18 19 -38
6z"/>
<path d="M3777 3403 c-10 -19 6 -102 20 -108 24 -9 29 4 7 19 -18 14 -18 15
-1 45 10 17 15 36 12 41 -7 12 -32 13 -38 3z"/>
<path d="M4136 3388 c-6 -26 0 -60 21 -107 11 -25 17 -30 24 -20 13 21 10 62
-6 83 -8 11 -15 28 -15 37 0 27 -17 32 -24 7z"/>
<path d="M4830 3395 c-10 -12 -10 -15 3 -15 19 0 31 16 18 24 -5 3 -14 -1 -21
-9z"/>
<path d="M3300 3375 c0 -10 10 -15 30 -15 32 0 40 14 14 24 -27 10 -44 7 -44
-9z"/>
<path d="M4038 3358 c-15 -31 -31 -171 -20 -182 2 -3 18 11 34 31 28 36 29 37
9 45 -23 8 -27 29 -10 59 5 11 9 34 7 50 l-3 30 -17 -33z"/>
<path d="M3531 3330 c-25 -51 -9 -61 29 -20 35 37 38 60 10 60 -13 0 -26 -13
-39 -40z"/>
<path d="M4677 3357 c-2 -7 2 -29 9 -49 12 -35 11 -39 -8 -49 -23 -12 -10 -36
16 -26 21 8 40 82 27 106 -13 23 -38 34 -44 18z"/>
<path d="M4967 3363 c-15 -14 -5 -32 23 -41 36 -13 45 -3 24 26 -15 22 -35 28
-47 15z"/>
<path d="M5186 3338 c-8 -33 -8 -38 8 -38 14 0 26 21 26 46 0 23 -27 16 -34
-8z"/>
<path d="M5545 3339 c-10 -15 3 -25 16 -12 7 7 7 13 1 17 -6 3 -14 1 -17 -5z"/>
<path d="M4249 3323 c-24 -29 -43 -93 -30 -106 15 -15 43 11 40 37 -1 12 1 34
6 49 9 35 3 43 -16 20z"/>
<path d="M4792 3304 c4 -21 22 -23 26 -1 2 10 -3 17 -13 17 -10 0 -15 -6 -13
-16z"/>
<path d="M3350 3295 c-10 -13 -9 -15 9 -15 12 0 21 6 21 15 0 8 -4 15 -9 15
-5 0 -14 -7 -21 -15z"/>
<path d="M4550 3302 c0 -5 3 -12 7 -16 4 -4 6 -25 4 -47 -2 -38 -1 -39 21 -34
19 5 27 1 36 -17 10 -21 11 -22 11 -3 1 12 -8 38 -19 60 -11 22 -20 45 -20 52
0 7 -9 13 -20 13 -11 0 -20 -4 -20 -8z"/>
<path d="M5397 3279 c-3 -11 -15 -23 -26 -26 -11 -3 -18 -9 -15 -14 15 -25 64
7 64 42 0 25 -16 24 -23 -2z"/>
<path d="M5040 3275 c0 -8 5 -15 10 -15 6 0 10 7 10 15 0 8 -4 15 -10 15 -5 0
-10 -7 -10 -15z"/>
<path d="M3416 3264 c-9 -22 -8 -24 9 -24 8 0 15 9 15 20 0 24 -15 27 -24 4z"/>
<path d="M3530 3255 c0 -8 5 -15 10 -15 6 0 10 7 10 15 0 8 -4 15 -10 15 -5 0
-10 -7 -10 -15z"/>
<path d="M4791 3238 c0 -18 4 -42 8 -52 7 -19 8 -19 14 -1 9 22 -2 85 -14 85
-5 0 -9 -15 -8 -32z"/>
<path d="M3680 3250 c0 -5 9 -14 19 -20 11 -5 22 -20 24 -32 3 -17 5 -14 6 9
1 23 -5 35 -18 43 -24 13 -31 13 -31 0z"/>
<path d="M4915 3249 c-10 -15 3 -25 16 -12 7 7 7 13 1 17 -6 3 -14 1 -17 -5z"/>
<path d="M4355 3240 c-3 -6 -3 -19 0 -31 10 -31 49 -21 53 14 3 23 0 27 -22
27 -14 0 -28 -5 -31 -10z"/>
<path d="M4460 3220 c0 -11 5 -20 10 -20 6 0 10 9 10 20 0 11 -4 20 -10 20 -5
0 -10 -9 -10 -20z"/>
<path d="M5166 3233 c-11 -11 -6 -23 9 -23 8 0 15 4 15 9 0 13 -16 22 -24 14z"/>
<path d="M3500 3205 c0 -8 5 -15 10 -15 6 0 10 7 10 15 0 8 -4 15 -10 15 -5 0
-10 -7 -10 -15z"/>
<path d="M3386 3195 c-3 -9 0 -15 9 -15 16 0 20 16 6 24 -5 3 -11 -1 -15 -9z"/>
<path d="M3860 3189 c0 -24 23 -21 28 4 2 10 -3 17 -12 17 -10 0 -16 -9 -16
-21z"/>
<path d="M6555 3158 c4 -29 12 -62 18 -73 6 -11 10 -26 8 -34 -1 -7 0 -20 4
-29 8 -22 8 -340 0 -374 -4 -14 -2 -35 4 -46 8 -15 7 -23 -4 -32 -9 -7 -15
-29 -15 -49 0 -63 -10 -203 -21 -281 -5 -41 -12 -111 -15 -155 -2 -44 -9 -96
-14 -116 -5 -19 -12 -69 -15 -110 -2 -41 -10 -99 -16 -129 -7 -30 -13 -76 -15
-101 -1 -26 -7 -56 -13 -68 -7 -11 -14 -65 -17 -118 -4 -54 -13 -110 -20 -125
-8 -15 -14 -40 -14 -55 0 -15 -7 -46 -15 -68 -8 -22 -14 -57 -15 -78 0 -21 -5
-47 -11 -58 -6 -11 -12 -39 -14 -62 -3 -42 -7 -68 -45 -267 -11 -58 -20 -123
-20 -146 0 -22 -5 -45 -11 -51 -6 -6 -17 -44 -25 -84 -7 -41 -18 -94 -24 -119
-6 -25 -13 -54 -15 -65 -2 -11 -8 -40 -14 -65 -5 -25 -16 -74 -24 -110 -7 -36
-16 -71 -21 -78 -5 -9 8 -12 52 -12 51 0 60 3 65 20 4 17 14 20 65 20 62 0 89
13 49 24 -12 3 -43 6 -69 6 -26 0 -59 5 -75 11 l-28 11 25 13 c14 8 36 15 50
15 41 1 53 13 35 36 -21 28 -18 34 15 34 18 0 33 -6 36 -15 10 -25 34 -17 34
10 0 25 -3 26 -55 30 -11 1 -37 5 -57 9 -38 8 -47 19 -28 31 15 9 110 27 143
26 17 0 27 5 27 14 0 8 -8 15 -19 15 -28 0 -46 26 -27 37 12 6 0 13 -44 22
-36 8 -59 18 -57 25 2 6 35 18 73 26 50 11 70 20 72 33 3 13 -3 17 -23 17 -33
0 -29 22 6 31 19 5 11 9 -39 20 -34 7 -61 17 -59 23 2 5 25 16 53 24 58 17 74
28 74 54 0 10 7 21 16 25 27 10 -5 23 -59 23 -41 0 -48 3 -45 18 2 12 22 21
68 33 50 11 61 17 49 25 -27 15 -6 54 28 55 28 0 28 0 5 10 -13 5 -28 7 -32 4
-16 -10 -90 7 -90 21 0 22 40 36 104 38 35 0 60 5 58 11 -1 6 -18 9 -37 9 -31
-1 -34 1 -29 22 6 24 -3 29 -66 36 -38 4 -30 18 30 50 49 26 60 28 124 23 82
-6 106 -1 106 26 0 10 6 20 13 20 36 4 -60 17 -129 18 -97 1 -146 10 -141 24
2 6 15 14 30 18 15 4 34 14 43 23 11 11 34 16 80 16 61 0 83 11 48 24 -13 5
-14 9 -4 21 9 11 6 15 -22 20 -18 3 -53 4 -78 3 -35 -2 -45 1 -48 14 -6 31 51
50 123 43 35 -4 83 -4 106 0 41 7 42 8 19 17 l-25 9 24 13 c14 8 19 16 13 20
-12 7 -41 -2 -62 -20 -16 -14 -105 -22 -116 -11 -4 4 6 7 22 7 39 0 74 10 74
21 0 5 -17 9 -39 9 -96 0 -136 30 -63 47 27 7 36 14 34 26 -2 14 6 17 48 17
38 0 50 -4 50 -15 0 -11 11 -15 43 -14 l42 1 -30 13 c-28 12 -29 13 -7 16 13
2 23 9 22 14 0 6 -34 11 -77 12 -97 2 -163 11 -163 23 0 22 51 33 151 34 l107
1 0 31 0 31 -91 1 c-107 2 -147 9 -147 26 0 13 106 49 121 41 5 -3 49 -6 99
-6 49 -1 90 -5 90 -9 0 -12 29 -40 41 -40 5 0 9 13 9 30 0 31 -1 32 -82 45
-20 3 -38 11 -41 19 -6 16 -172 22 -182 6 -8 -13 -42 -13 -50 0 -3 6 2 13 12
17 10 4 23 13 29 21 14 19 106 34 169 27 28 -3 57 -1 65 5 28 19 -10 30 -105
31 -97 1 -137 8 -136 24 1 6 13 14 28 19 15 5 34 15 41 23 7 7 23 13 36 13 12
0 27 5 33 11 12 12 77 -3 97 -22 6 -5 20 -9 32 -9 12 0 28 -10 36 -22 15 -22
38 -18 38 8 0 8 -10 14 -24 14 -14 0 -28 5 -31 10 -3 6 -17 10 -29 10 -15 0
-26 7 -29 19 -4 18 -14 20 -91 19 -48 0 -89 -5 -92 -9 -7 -12 -41 -12 -48 0
-3 5 13 21 35 37 38 26 48 28 137 29 65 0 97 4 99 12 6 18 -57 26 -172 21 -57
-3 -102 -1 -99 4 3 4 11 8 19 8 7 0 15 6 18 13 3 7 23 19 45 25 22 7 45 18 51
26 10 12 3 16 -43 21 -31 4 -56 11 -56 15 0 4 23 19 51 34 38 19 66 26 109 26
33 0 62 -4 65 -10 3 -5 17 -10 31 -10 13 0 24 5 24 10 0 6 -8 10 -18 10 -10 0
-28 7 -40 16 -29 20 -127 31 -136 15 -11 -17 -86 -14 -86 3 0 8 13 17 29 21
16 3 35 13 42 21 27 33 230 7 252 -32 11 -20 27 -17 27 4 0 13 -13 23 -42 32
-24 8 -55 22 -71 33 -28 19 -90 20 -188 2 -53 -10 -56 9 -6 36 32 17 65 24
137 29 l95 6 -40 18 c-34 16 -54 17 -135 12 l-95 -7 28 28 c26 26 33 28 126
31 76 3 106 0 129 -12 17 -9 39 -16 49 -15 15 0 14 2 -3 9 -12 5 -25 13 -29
19 -3 6 -17 11 -29 11 -13 0 -29 7 -36 15 -9 11 -35 15 -106 15 -72 0 -94 3
-94 13 0 8 11 19 25 25 34 16 190 15 218 0 12 -7 36 -17 54 -24 25 -9 30 -9
26 2 -3 8 -13 14 -22 14 -10 0 -26 7 -37 15 -10 8 -27 15 -36 15 -9 0 -23 6
-30 13 -8 9 -48 16 -101 19 -94 6 -108 11 -88 31 8 8 48 12 121 12 59 0 106 3
103 8 -2 4 -12 7 -21 7 -10 0 -26 6 -37 14 -11 7 -53 16 -94 19 -40 3 -76 9
-79 12 -14 14 21 26 96 32 66 5 86 3 106 -11 14 -9 36 -15 48 -15 21 1 21 2 3
6 -11 3 -27 11 -35 18 -21 18 -115 38 -177 37 l-52 0 16 24 c14 21 22 24 82
24 42 -1 73 -6 85 -15 11 -8 30 -15 43 -15 13 0 23 -4 23 -10 0 -5 6 -10 13
-10 19 0 70 -56 63 -69 -4 -6 -1 -19 5 -29 11 -18 13 -18 37 5 31 28 67 29
110 3 18 -11 41 -20 52 -20 10 0 25 -7 34 -15 8 -8 25 -15 37 -15 24 0 99 -46
99 -61 0 -4 17 -11 38 -14 20 -4 49 -15 64 -26 15 -10 32 -19 39 -19 6 0 28
-9 48 -20 48 -26 116 -50 169 -59 23 -5 48 -15 55 -23 6 -8 37 -20 66 -27 30
-6 73 -20 95 -30 23 -11 86 -38 141 -61 55 -24 104 -46 110 -51 5 -5 18 -9 28
-9 24 0 125 -60 132 -78 3 -8 1 -20 -5 -27 -7 -8 -7 -15 -2 -19 6 -3 12 1 16
9 8 23 51 18 65 -7 14 -26 91 -78 115 -78 9 0 57 -21 107 -47 49 -27 113 -60
141 -75 29 -14 55 -35 60 -47 5 -13 16 -21 31 -21 14 0 30 -6 36 -14 10 -11
90 -36 116 -36 3 0 5 23 5 50 0 42 -3 50 -18 50 -10 0 -29 11 -42 25 -13 14
-40 30 -59 35 -20 5 -54 26 -76 46 -22 20 -74 52 -115 71 -74 34 -96 45 -155
76 -16 8 -49 23 -71 32 -23 9 -46 27 -52 40 -14 31 -88 88 -142 109 -25 10
-53 22 -62 27 -10 5 -25 9 -34 9 -17 0 -51 14 -174 72 -36 17 -78 37 -95 44
-112 47 -165 67 -200 74 -62 13 -174 53 -225 82 -60 33 -254 126 -275 131 -11
3 -45 15 -75 27 -30 12 -100 37 -154 55 -65 22 -106 42 -118 57 -21 27 -58
105 -58 123 0 16 -71 109 -113 148 -35 33 -67 47 -109 47 l-30 0 7 -52z m179
-204 c33 -13 14 -24 -39 -24 -51 0 -65 7 -48 23 8 9 66 9 87 1z m32 -85 c24
-6 44 -15 44 -20 0 -10 -113 -12 -148 -3 l-23 7 23 12 c30 17 49 17 104 4z
m-121 -1809 c4 -6 -5 -10 -20 -10 -15 0 -24 4 -20 10 3 6 12 10 20 10 8 0 17
-4 20 -10z m-107 -11 c-12 -7 -24 -7 -35 0 -15 9 -12 10 17 10 29 0 32 -1 18
-10z"/>
<path d="M4691 3176 c-19 -35 -10 -60 22 -64 30 -4 33 5 15 55 -14 39 -20 41
-37 9z"/>
<path d="M4885 3190 c-8 -13 4 -32 16 -25 12 8 12 35 0 35 -6 0 -13 -4 -16
-10z"/>
<path d="M4110 3180 c0 -5 9 -10 20 -10 11 0 20 5 20 10 0 6 -9 10 -20 10 -11
0 -20 -4 -20 -10z"/>
<path d="M4523 3165 c-3 -9 -3 -19 1 -22 8 -9 37 18 30 28 -8 14 -24 11 -31
-6z"/>
<path d="M4147 3148 c-10 -11 -16 -27 -13 -35 6 -14 10 -13 31 7 27 25 33 51
13 49 -7 0 -21 -10 -31 -21z"/>
<path d="M5100 3139 c0 -11 5 -17 10 -14 6 3 10 13 10 21 0 8 -4 14 -10 14 -5
0 -10 -9 -10 -21z"/>
<path d="M3434 3129 c-3 -6 -1 -16 4 -21 13 -13 45 8 36 23 -7 12 -31 11 -40
-2z"/>
<path d="M4945 3120 c-7 -23 10 -50 31 -50 10 0 11 6 2 30 -13 39 -25 46 -33
20z"/>
<path d="M5381 3104 c-28 -36 -26 -44 8 -44 23 0 30 6 35 25 12 49 -11 59 -43
19z"/>
<path d="M4803 3057 c2 -58 9 -69 25 -41 6 10 5 29 -3 50 -18 54 -25 51 -22
-9z"/>
<path d="M3210 3092 c0 -41 54 -171 118 -286 48 -86 238 -268 324 -311 24 -11
69 -38 100 -58 31 -20 66 -37 78 -37 35 0 22 28 -30 62 -27 18 -50 36 -50 40
0 5 -6 8 -13 8 -8 0 -22 9 -31 19 -10 11 -30 23 -45 26 -15 3 -42 19 -59 35
-18 16 -40 35 -50 42 -10 7 -29 28 -42 45 -13 18 -32 35 -41 38 -10 3 -21 16
-25 28 -4 12 -15 28 -26 35 -14 11 -17 21 -12 47 5 28 3 34 -15 40 -14 4 -32
29 -50 69 -16 35 -36 66 -44 69 -10 4 -14 13 -11 21 4 11 -2 19 -19 25 -14 5
-32 20 -41 33 -9 12 -16 17 -16 10z"/>
<path d="M5213 3073 c2 -26 -1 -28 -35 -28 -21 0 -38 -3 -38 -7 -2 -57 7 -61
52 -23 16 14 36 25 44 25 22 0 14 54 -8 58 -13 3 -16 -3 -15 -25z"/>
<path d="M4465 3077 c-4 -10 -5 -21 -1 -24 10 -10 18 4 13 24 -4 17 -4 17 -12
0z"/>
<path d="M3474 3070 c-29 -11 -37 -26 -29 -50 7 -21 39 -27 50 -10 11 18 35
11 35 -10 0 -33 41 -79 79 -90 46 -13 61 -13 61 0 0 6 -4 10 -10 10 -5 0 -18
8 -28 18 -10 9 -31 29 -47 43 -32 27 -52 54 -61 82 -7 19 -18 20 -50 7z"/>
<path d="M4723 3042 c-8 -5 -6 -14 8 -31 l19 -23 0 31 c0 31 -6 37 -27 23z"/>
<path d="M5060 3010 c-9 -16 -14 -18 -29 -8 -33 20 -52 3 -49 -44 3 -40 1 -43
-34 -60 -21 -10 -38 -20 -38 -22 0 -2 7 -20 16 -41 11 -27 12 -41 5 -48 -8 -8
-14 -8 -22 0 -21 21 -63 -12 -78 -62 -10 -35 -21 -49 -47 -61 -18 -9 -38 -22
-45 -30 -6 -8 -26 -14 -44 -14 -19 0 -39 -8 -50 -20 -11 -13 -25 -18 -37 -14
-11 3 -20 0 -24 -9 -3 -9 -20 -21 -37 -27 -18 -7 -50 -21 -73 -31 -22 -11 -63
-26 -90 -34 -47 -14 -50 -16 -51 -50 -1 -28 3 -35 18 -35 11 0 27 4 37 9 38
20 239 100 267 106 17 4 71 37 120 73 50 37 101 75 115 84 14 9 43 33 64 52
22 20 42 36 46 36 13 0 89 80 95 100 4 13 12 19 21 16 9 -3 23 8 37 29 12 19
28 35 35 35 6 0 12 5 12 11 0 7 -11 8 -30 4 -26 -6 -30 -4 -30 13 0 19 -42 62
-61 62 -5 0 -13 -9 -19 -20z m24 -46 c21 -20 20 -23 -9 -34 -14 -5 -25 -17
-25 -27 0 -23 -17 -5 -22 23 -3 21 17 54 33 54 4 0 15 -7 23 -16z m-44 -109
c-7 -8 -16 -15 -21 -15 -5 0 -9 7 -9 15 0 9 9 15 21 15 18 0 19 -2 9 -15z"/>
<path d="M3676 2991 c-10 -15 16 -51 37 -51 14 0 16 4 8 18 -15 28 -38 45 -45
33z"/>
<path d="M3827 2954 c-8 -8 1 -24 14 -24 5 0 9 7 9 15 0 15 -12 20 -23 9z"/>
<path d="M4853 2928 c-33 -16 -28 -25 12 -30 31 -4 35 -1 33 16 -4 24 -16 28
-45 14z"/>
<path d="M2665 2878 c-50 -52 -86 -110 -98 -158 -6 -22 -64 -60 -90 -60 -10 0
-117 -50 -272 -127 -156 -77 -213 -108 -235 -128 -9 -8 -24 -15 -33 -15 -9 0
-31 -6 -49 -14 -44 -18 -181 -63 -243 -81 -27 -7 -81 -23 -120 -34 -38 -11
-92 -24 -120 -29 -97 -18 -165 -42 -265 -92 -56 -27 -110 -50 -119 -50 -9 0
-21 -4 -27 -9 -5 -6 -31 -22 -59 -37 -80 -42 -217 -134 -260 -175 -21 -21 -80
-59 -130 -85 -49 -26 -113 -62 -142 -80 -28 -19 -57 -34 -65 -34 -27 0 -257
-126 -297 -162 -35 -33 -41 -44 -41 -79 0 -37 2 -40 23 -33 12 4 31 7 42 7 11
-1 31 1 43 3 19 4 22 7 12 19 -21 26 -4 45 40 45 28 0 43 5 47 16 6 15 102 67
119 63 24 -4 43 4 74 31 23 20 44 30 66 30 18 0 36 5 39 11 4 5 46 35 93 67
48 31 94 64 102 73 8 9 35 27 60 40 25 13 63 37 85 55 46 35 117 74 138 74 8
0 20 7 27 15 13 16 73 46 117 59 11 4 27 13 33 21 7 8 22 15 34 15 12 0 33 8
46 17 25 17 156 52 220 57 37 4 126 36 235 85 36 17 83 33 103 37 43 7 130 35
184 58 32 14 41 14 65 2 15 -7 46 -21 68 -31 62 -27 68 -30 69 -40 1 -14 -54
-19 -67 -6 -16 16 -79 13 -116 -5 -41 -20 -31 -34 25 -34 65 0 53 -25 -12 -26
-27 -1 -57 -2 -66 -3 -30 -2 -20 -30 17 -52 19 -12 35 -25 35 -30 0 -14 -34
-10 -58 7 -21 15 -25 15 -41 0 -10 -9 -21 -16 -26 -16 -15 0 -84 -35 -85 -42
0 -8 8 -10 80 -12 38 -1 45 -4 45 -21 0 -17 -8 -20 -60 -23 -33 -2 -64 -7 -69
-13 -6 -5 -16 -9 -23 -9 -6 0 -29 -11 -49 -25 l-37 -25 49 0 c70 0 97 9 83 26
-8 10 -8 14 0 14 6 0 14 0 19 0 4 0 7 -6 7 -12 0 -23 31 -73 48 -76 22 -5 59
70 51 103 -4 18 -2 25 8 25 8 0 20 10 26 23 29 56 66 96 90 97 7 0 20 9 30 21
9 11 33 27 52 35 20 8 44 26 54 39 10 14 23 25 28 25 21 0 68 42 68 61 0 10 6
19 13 19 26 0 127 121 127 153 0 11 11 35 25 53 14 18 25 39 25 46 0 8 18 33
40 56 51 53 87 57 97 12 8 -44 27 -31 35 24 3 26 11 53 16 59 5 7 13 28 17 47
7 39 45 140 57 155 14 16 9 35 -9 35 -9 0 -40 -24 -68 -52z m-275 -388 c0 -5
-6 -10 -14 -10 -8 0 -18 5 -21 10 -3 6 3 10 14 10 12 0 21 -4 21 -10z m-50
-89 c15 -28 13 -33 -9 -21 -11 5 -42 10 -70 10 -47 0 -68 9 -54 24 3 3 32 6
64 6 47 0 60 -4 69 -19z m-160 -36 c0 -21 5 -25 28 -25 31 0 71 -24 60 -36
-12 -11 -180 -6 -192 6 -15 15 8 34 42 35 17 0 27 6 28 15 2 27 4 30 19 30 9
0 15 -9 15 -25z"/>
<path d="M3777 2893 c-10 -9 -8 -86 2 -102 8 -12 13 -12 35 3 31 20 32 29 5
72 -21 34 -30 40 -42 27z"/>
<path d="M3680 2873 c0 -10 12 -26 25 -36 23 -16 26 -17 31 -2 4 10 -2 24 -14
36 -26 24 -42 24 -42 2z"/>
<path d="M3627 2866 c-6 -15 1 -26 15 -26 11 0 10 27 -1 34 -5 3 -11 0 -14 -8z"/>
<path d="M4791 2861 c-11 -7 -11 -15 0 -45 12 -33 39 -46 30 -15 -2 8 -6 26
-10 41 -4 20 -10 25 -20 19z"/>
<path d="M4427 2833 c-12 -11 -8 -23 8 -23 8 0 15 7 15 15 0 16 -12 20 -23 8z"/>
<path d="M3876 2822 c-2 -4 -7 -24 -11 -46 l-8 -38 32 6 c99 19 91 20 97 -14
10 -48 27 -20 19 30 -7 42 -8 42 -41 37 -27 -5 -37 -2 -47 14 -12 19 -32 25
-41 11z"/>
<path d="M4056 2802 c-3 -6 -2 -13 4 -17 16 -10 12 -23 -11 -30 -27 -9 -19
-30 12 -31 13 -1 41 -4 61 -9 46 -9 98 2 98 21 0 21 57 18 69 -3 26 -46 27
-46 55 -18 14 14 26 32 26 40 0 20 -20 29 -33 16 -19 -19 -58 -13 -64 9 -7 25
-8 25 -41 1 -15 -10 -47 -22 -71 -26 -42 -7 -46 -6 -71 25 -16 20 -30 29 -34
22z"/>
<path d="M4602 2798 c-20 -20 -15 -86 7 -98 50 -26 102 4 116 67 5 27 3 32
-16 38 -15 5 -26 2 -34 -9 -15 -20 -31 -21 -39 -1 -7 18 -18 19 -34 3z"/>
<path d="M4410 2755 c-10 -12 -8 -25 14 -70 14 -30 30 -55 34 -55 5 0 19 11
31 24 17 18 22 32 17 50 -3 15 -12 26 -19 26 -7 0 -18 9 -25 20 -15 24 -35 26
-52 5z"/>
<path d="M3319 2591 c12 -16 27 -44 32 -61 13 -36 29 -39 29 -5 0 14 -8 29
-20 35 -11 6 -20 16 -20 23 0 7 -10 18 -21 26 l-22 13 22 -31z"/>
<path d="M6952 2591 c4 -13 18 -16 19 -4 0 4 -5 9 -11 12 -7 2 -11 -2 -8 -8z"/>
<path d="M2602 2530 c-11 -40 -26 -79 -53 -145 -4 -11 -11 -36 -14 -55 -4 -19
-15 -63 -26 -96 -11 -34 -24 -83 -28 -110 -9 -54 -25 -123 -46 -199 -14 -51
-39 -162 -54 -245 -5 -25 -15 -65 -24 -90 -30 -87 -37 -117 -37 -153 0 -20 -4
-38 -9 -41 -5 -3 -7 -16 -4 -27 4 -14 0 -25 -10 -30 -9 -6 -13 -17 -10 -30 6
-21 -10 -60 -35 -91 -8 -10 -11 -22 -6 -30 13 -21 12 -81 -1 -103 -7 -11 -16
-42 -20 -70 -4 -27 -14 -58 -22 -67 -8 -9 -12 -22 -8 -28 4 -6 1 -18 -6 -26
-9 -11 -9 -18 -1 -26 18 -18 14 -36 -8 -43 -14 -4 -20 -14 -18 -28 4 -35 -14
-157 -23 -163 -5 -3 -9 -27 -9 -55 0 -27 -4 -49 -10 -49 -5 0 -10 -20 -10 -45
0 -24 -5 -56 -12 -70 -8 -19 -9 -28 0 -37 8 -8 6 -18 -9 -40 -13 -18 -18 -35
-14 -49 4 -13 2 -25 -5 -29 -7 -4 -14 -34 -16 -66 -3 -33 -8 -70 -13 -84 -5
-14 -12 -44 -14 -67 -4 -37 -2 -43 13 -43 20 0 35 35 46 110 4 25 10 52 15 61
4 8 11 44 14 79 3 35 9 69 14 74 5 6 11 34 15 61 7 52 17 105 37 190 15 64 37
181 50 265 5 36 14 74 19 85 5 11 14 45 19 75 11 59 30 145 55 250 9 36 23 94
30 130 8 36 21 92 31 125 9 33 21 87 27 120 5 33 14 65 18 70 5 6 12 35 16 65
4 30 10 60 14 65 4 6 11 33 15 60 4 28 11 57 16 66 4 9 13 41 19 70 19 104 37
184 43 199 9 23 28 110 36 166 4 29 13 59 19 67 8 9 12 36 10 69 l-3 53 -13
-45z"/>
<path d="M6895 2355 c11 -8 28 -22 38 -31 16 -17 17 -17 17 1 0 22 -28 44 -55
44 -20 0 -20 0 0 -14z"/>
<path d="M3865 2323 c-11 -3 -24 -9 -29 -14 -6 -5 -29 -9 -51 -9 -49 0 -112
-41 -212 -137 -30 -29 -29 -35 10 -56 37 -20 118 -126 130 -171 5 -17 15 -62
22 -101 8 -38 21 -87 30 -109 22 -52 14 -66 -34 -66 -35 0 -45 -6 -90 -57 -28
-31 -51 -62 -51 -69 0 -6 -10 -18 -22 -26 -21 -14 -22 -17 -9 -42 15 -27 9
-51 -45 -174 -8 -18 -14 -43 -14 -57 0 -13 -5 -36 -11 -52 -6 -15 -15 -53 -20
-83 -11 -76 -28 -156 -45 -216 -8 -28 -14 -63 -14 -78 0 -15 -7 -43 -15 -63
-8 -19 -15 -50 -15 -68 0 -18 -7 -52 -15 -75 -8 -23 -15 -57 -15 -75 0 -18 -7
-52 -15 -75 -8 -23 -15 -60 -15 -81 0 -21 -5 -50 -11 -66 -6 -15 -15 -50 -20
-78 -19 -111 -39 -207 -44 -216 -4 -5 18 -9 50 -9 41 0 64 5 81 19 24 19 24
20 4 26 -28 9 -25 22 8 39 l27 14 -27 7 c-37 9 -35 23 5 40 l32 13 -28 7 c-39
10 -29 27 24 40 l44 11 -37 8 c-48 9 -56 23 -21 37 26 10 27 12 11 23 -28 21
-21 33 25 41 l42 7 -30 10 c-16 5 -37 12 -45 15 -11 3 -7 9 14 20 l29 15 -24
18 -23 18 27 13 c26 12 26 13 11 31 -16 17 -15 19 14 29 38 13 42 29 8 29 -34
0 -41 16 -11 24 29 7 32 24 8 42 -17 12 -16 13 8 22 15 6 29 18 32 26 5 12 22
16 69 18 62 2 63 2 11 5 -56 4 -80 22 -68 50 5 10 9 24 9 31 1 8 15 19 31 26
l30 13 -27 6 c-34 9 -37 33 -6 43 l23 7 -23 8 c-26 10 -29 34 -6 43 9 3 32 7
52 7 26 1 29 3 12 6 -56 8 -70 14 -70 27 0 8 12 19 28 24 26 9 27 9 5 16 -29
9 -30 33 -2 41 l21 7 -22 15 c-28 20 -10 43 34 43 24 0 27 3 16 10 -8 5 -25
10 -37 10 -33 0 -28 18 10 34 30 14 31 15 10 21 -36 11 -27 32 17 39 47 7 46
20 -2 30 -26 5 -30 9 -18 16 8 5 30 10 48 10 37 0 45 24 11 33 -22 6 -18 27 5
27 23 0 38 43 27 74 -8 18 -8 33 -1 46 5 10 7 25 4 34 -5 13 -1 13 28 4 18 -6
38 -12 45 -14 6 -2 9 -12 6 -23 -7 -25 16 -36 55 -26 18 5 22 9 12 13 -33 11
-41 24 -24 37 20 14 10 35 -17 35 -14 0 -19 7 -20 30 -1 17 -2 35 -3 42 -1 7
10 18 24 25 17 9 20 13 8 13 -9 0 -20 5 -23 11 -10 15 34 59 51 52 9 -3 14 2
14 15 0 39 11 52 45 52 19 0 37 5 40 10 6 9 -11 14 -45 12 -30 -1 -50 18 -44
43 3 14 -2 44 -11 70 -10 25 -15 48 -12 51 3 3 -1 20 -8 38 -9 20 -10 37 -4
47 15 23 10 36 -12 35 -28 -1 -46 46 -30 77 6 12 10 31 8 42 -1 14 5 21 23 23
13 2 31 13 38 23 7 11 17 17 22 14 5 -3 19 4 31 16 l21 21 29 -21 c24 -18 29
-19 29 -6 0 27 43 14 51 -15 7 -25 7 -25 8 -2 1 15 9 26 21 29 11 3 20 9 20
14 0 5 7 9 15 9 8 0 15 -4 15 -10 0 -5 -7 -10 -15 -10 -16 0 -19 -17 -9 -44 8
-20 24 -11 24 14 0 30 37 45 59 26 16 -15 19 -15 31 -1 11 14 17 11 44 -20 24
-26 35 -32 43 -24 15 15 33 3 33 -23 0 -17 4 -19 25 -14 18 5 25 2 25 -7 0
-23 -22 -81 -36 -98 -8 -8 -14 -23 -14 -32 0 -9 -7 -17 -15 -17 -8 0 -15 5
-15 10 0 6 -4 10 -8 10 -9 0 -42 -70 -42 -90 0 -7 -20 -33 -44 -59 -86 -88
-96 -102 -96 -125 0 -29 -10 -39 -26 -25 -18 15 -89 7 -89 -10 0 -18 62 -40
96 -34 41 8 45 -15 9 -52 -26 -27 -31 -37 -21 -48 9 -11 8 -17 -5 -28 -14 -11
-13 -14 10 -26 31 -16 33 -29 6 -36 -20 -5 -29 -27 -11 -27 5 0 9 -20 9 -45 0
-31 -5 -48 -16 -55 -16 -8 -16 -11 1 -40 22 -41 22 -71 -3 -115 -11 -19 -15
-35 -10 -35 20 0 22 -31 4 -45 -18 -14 -18 -15 4 -21 12 -3 22 -13 22 -20 0
-14 31 -19 43 -7 4 3 0 15 -9 24 -16 17 -16 19 0 25 9 3 16 14 16 23 0 9 7 27
16 40 12 17 15 38 12 82 -3 43 -1 59 9 59 21 0 34 -39 33 -98 -2 -31 1 -65 5
-75 5 -12 2 -22 -11 -32 -18 -13 -18 -14 9 -24 33 -13 34 -19 2 -31 -29 -11
-33 -30 -7 -30 10 0 22 -3 25 -7 11 -11 -13 -32 -30 -26 -11 4 -14 2 -11 -8 3
-8 13 -14 24 -14 28 0 30 -33 3 -37 -33 -5 -36 -28 -4 -28 20 0 26 -4 23 -17
-2 -10 -12 -18 -25 -18 -31 0 -29 -20 2 -20 32 -1 41 -11 25 -30 -7 -9 -21
-13 -31 -10 -13 4 -19 1 -19 -9 0 -10 9 -16 24 -16 29 0 44 -18 22 -25 -51
-16 -52 -17 -18 -31 40 -17 41 -30 2 -39 -36 -8 -39 -20 -7 -29 l22 -7 -23
-16 c-21 -15 -22 -17 -6 -34 13 -14 14 -22 5 -32 -14 -18 9 -40 33 -31 10 4
16 1 16 -9 0 -8 -10 -18 -22 -21 l-23 -7 25 -12 c14 -6 29 -17 33 -24 14 -22
36 -14 44 15 13 45 9 507 -5 637 -12 111 -19 151 -42 245 -12 52 -55 172 -76
213 -16 32 -19 77 -5 77 10 0 13 5 64 98 15 29 39 59 55 69 15 9 44 31 64 48
94 77 154 115 183 115 31 0 13 41 -46 107 -33 37 -72 88 -87 111 -15 24 -38
57 -52 74 l-26 30 -219 3 c-121 2 -229 1 -240 -2z"/>
<path d="M6900 2164 c0 -3 9 -17 20 -31 l20 -26 0 32 c0 24 -4 31 -20 31 -11
0 -20 -3 -20 -6z"/>
<path d="M3485 2070 c-15 -22 -32 -40 -36 -40 -16 0 -10 -80 6 -86 21 -9 45
14 45 42 0 13 9 46 19 74 24 63 6 68 -34 10z"/>
<path d="M6750 2102 c0 -12 47 -32 75 -32 29 0 43 19 24 31 -18 11 -99 12 -99
1z"/>
<path d="M6887 2064 c-9 -10 2 -24 19 -24 8 0 14 7 14 15 0 15 -21 21 -33 9z"/>
<path d="M2165 2050 c-4 -6 -9 -36 -12 -68 -3 -31 -9 -61 -13 -67 -4 -5 -11
-36 -14 -67 -4 -32 -11 -60 -16 -63 -4 -3 -11 -23 -15 -46 -4 -22 -13 -53 -21
-67 -8 -15 -14 -32 -14 -38 0 -6 -13 -35 -28 -65 -16 -30 -37 -76 -47 -104
-10 -27 -22 -54 -25 -60 -4 -5 -18 -44 -30 -85 -12 -41 -26 -79 -30 -85 -5 -5
-11 -28 -15 -50 -4 -22 -11 -44 -15 -50 -5 -5 -11 -28 -15 -50 -4 -22 -11 -44
-15 -50 -5 -5 -11 -31 -15 -58 -4 -26 -11 -50 -16 -53 -5 -3 -9 -23 -9 -45 0
-22 -6 -50 -14 -62 -7 -12 -16 -44 -20 -72 -3 -27 -11 -54 -16 -59 -6 -6 -10
-26 -10 -46 0 -19 -9 -66 -20 -105 -11 -38 -18 -77 -15 -86 3 -9 -1 -36 -9
-60 -15 -45 -29 -118 -47 -243 -5 -38 -14 -77 -19 -87 -18 -33 -12 -59 14 -59
19 0 24 6 30 37 3 21 6 50 6 66 0 33 38 202 53 237 6 14 12 52 13 85 2 58 17
129 36 171 5 11 8 24 7 30 -8 28 33 192 62 247 5 10 10 43 11 75 0 31 6 64 13
72 7 8 15 26 18 40 3 14 10 39 15 55 6 17 20 59 31 95 38 125 119 316 148 351
7 8 13 23 13 32 0 9 5 19 10 22 13 8 41 75 35 85 -2 4 5 31 15 61 24 64 40
282 22 293 -6 3 -14 2 -17 -4z"/>
<path d="M6864 1978 c-4 -7 2 -18 14 -26 12 -8 22 -21 22 -29 0 -8 6 -13 13
-10 6 2 12 9 11 15 -1 7 -2 23 -2 37 -2 19 -7 25 -26 25 -14 0 -28 -5 -32 -12z"/>
<path d="M3380 1906 c0 -38 16 -57 26 -32 8 21 -3 66 -16 66 -6 0 -10 -15 -10
-34z"/>
<path d="M4568 1913 c-2 -10 -2 -34 0 -54 3 -30 9 -39 30 -44 14 -3 36 -18 49
-31 34 -37 49 -19 18 21 -14 19 -34 55 -45 80 -19 45 -46 60 -52 28z"/>
<path d="M3267 1891 c-6 -24 7 -46 22 -37 15 10 14 31 -3 45 -11 9 -15 7 -19
-8z"/>
<path d="M1650 1815 c-25 -13 -51 -24 -57 -24 -7 -1 -13 -6 -13 -12 0 -7 12
-9 35 -5 19 3 51 9 71 12 20 4 46 2 57 -4 12 -6 30 -13 40 -16 28 -9 20 -33
-14 -40 -17 -3 -64 -6 -105 -6 -40 0 -75 -4 -79 -9 -3 -5 -19 -12 -35 -16 -17
-4 -30 -13 -30 -22 0 -11 5 -13 18 -8 9 4 42 10 73 13 49 4 63 0 103 -23 31
-18 44 -31 38 -37 -6 -6 -64 -12 -129 -14 -113 -4 -167 -16 -160 -37 2 -6 39
-9 84 -8 69 2 85 -1 101 -17 11 -11 26 -22 33 -24 19 -7 8 -17 -29 -27 -21 -6
-38 -5 -57 5 -34 18 -55 18 -81 0 -11 -8 -37 -17 -57 -21 -20 -4 -37 -11 -37
-16 0 -11 37 -20 70 -17 58 4 90 -3 116 -27 15 -14 25 -27 23 -30 -3 -2 -43
-6 -89 -8 -83 -3 -146 -22 -142 -42 1 -5 31 -12 66 -15 51 -4 70 -10 91 -30
l27 -25 -34 -7 c-18 -4 -49 -5 -69 -2 -22 3 -53 -2 -84 -14 l-48 -19 24 -16
c13 -10 37 -17 53 -17 37 0 103 -39 85 -51 -7 -4 -43 -11 -79 -14 -84 -8 -100
-13 -100 -30 0 -8 -9 -17 -20 -20 -39 -12 -10 -22 75 -27 47 -2 91 -10 97 -16
16 -16 -5 -22 -109 -30 -76 -6 -88 -9 -85 -25 2 -9 -4 -20 -12 -23 -29 -11 -5
-24 44 -24 52 0 100 -14 100 -28 0 -12 -67 -39 -115 -47 -22 -3 -53 -9 -70
-12 l-30 -7 40 -12 40 -12 -42 -7 c-24 -4 -43 -10 -43 -14 0 -3 34 -7 75 -9
143 -5 166 -38 36 -49 -65 -5 -74 -9 -82 -30 -14 -38 -12 -42 32 -49 23 -4 53
-17 67 -29 l26 -23 -39 -11 c-22 -6 -54 -11 -72 -11 -46 0 -66 -9 -53 -25 8
-9 5 -14 -10 -18 -41 -11 -20 -27 34 -27 63 0 114 -16 100 -30 -6 -6 -30 -14
-54 -19 -75 -15 -117 -37 -122 -65 -7 -34 -3 -36 53 -36 58 0 107 -16 92 -31
-6 -6 -36 -13 -67 -16 -41 -4 -61 -11 -71 -26 -8 -11 -12 -25 -8 -30 7 -12
-16 -27 -44 -27 -13 0 -23 -5 -23 -10 0 -7 13 -8 34 -5 38 8 146 -11 146 -25
0 -15 -19 -22 -84 -30 -35 -4 -76 -16 -92 -26 l-28 -19 40 -5 c37 -5 114 -53
114 -71 0 -14 -21 -22 -79 -29 -52 -7 -49 -7 37 -9 84 -1 92 1 92 18 0 10 7
32 15 47 8 16 15 52 15 81 0 28 4 53 10 55 11 4 32 106 24 119 -3 5 2 16 10
25 9 8 16 28 16 43 0 15 6 47 14 72 19 62 32 112 51 199 9 41 25 98 36 125 10
28 19 60 19 72 0 11 7 34 15 49 8 16 15 39 15 51 0 24 23 92 46 135 8 14 12
33 9 40 -3 8 3 23 15 33 11 10 20 26 20 36 0 10 5 21 11 24 6 4 8 14 4 23 -3
9 4 26 18 41 13 14 30 42 37 61 7 19 19 42 25 50 7 8 20 33 30 55 9 22 21 47
26 55 5 8 15 26 21 40 7 14 24 45 39 70 15 25 30 56 34 70 4 14 18 39 30 55
38 50 41 73 10 85 -49 19 -165 10 -215 -15z"/>
<path d="M6850 1770 c-13 -9 -12 -12 4 -25 28 -21 36 -19 36 10 0 26 -15 32
-40 15z"/>
<path d="M3339 1728 c-24 -17 -53 -40 -64 -51 -11 -10 -33 -24 -48 -29 -35
-13 -32 -42 4 -46 17 -2 45 12 93 48 38 28 75 49 82 46 8 -3 28 -28 45 -56 32
-52 49 -63 49 -31 0 18 -22 50 -67 99 -13 14 -23 31 -23 38 0 22 -24 16 -71
-18z"/>
<path d="M3915 1691 c-7 -12 12 -24 25 -16 11 7 4 25 -10 25 -5 0 -11 -4 -15
-9z"/>
<path d="M6836 1561 c-9 -14 13 -66 23 -55 5 5 11 21 15 37 5 22 3 27 -13 27
-11 0 -22 -4 -25 -9z"/>
<path d="M3798 1528 c9 -9 15 -9 24 0 9 9 7 12 -12 12 -19 0 -21 -3 -12 -12z"/>
<path d="M8700 1450 c0 -5 11 -17 25 -27 14 -10 54 -39 88 -65 58 -45 87 -58
87 -40 0 4 -10 16 -22 27 -13 10 -48 40 -77 67 -50 44 -101 63 -101 38z"/>
<path d="M6832 1408 c3 -18 8 -40 12 -49 5 -11 -2 -28 -20 -48 -20 -24 -24
-35 -15 -44 20 -20 38 13 50 87 11 74 9 86 -16 86 -11 0 -14 -8 -11 -32z"/>
<path d="M8600 1394 c0 -4 20 -24 45 -46 25 -22 45 -46 45 -54 0 -8 7 -14 15
-14 20 0 19 22 -2 41 -10 9 -29 30 -43 48 -21 27 -60 43 -60 25z"/>
<path d="M3795 1361 c-7 -12 31 -25 45 -16 6 4 8 11 5 16 -8 12 -42 12 -50 0z"/>
<path d="M1342 1349 c2 -6 8 -10 13 -10 5 0 11 4 13 10 2 6 -4 11 -13 11 -9 0
-15 -5 -13 -11z"/>
<path d="M6037 1333 c-4 -3 -7 -12 -7 -19 0 -10 7 -11 31 -2 23 8 27 13 17 19
-16 10 -32 11 -41 2z"/>
<path d="M8030 1331 c0 -15 15 -21 39 -14 17 4 19 8 9 14 -18 12 -48 11 -48 0z"/>
<path d="M3820 1300 c-12 -8 -9 -10 13 -10 16 0 26 4 22 10 -8 12 -16 12 -35
0z"/>
<path d="M8929 1281 c26 -26 57 -42 65 -34 12 12 6 23 -13 23 -10 0 -24 7 -31
15 -7 8 -19 15 -26 15 -10 0 -8 -6 5 -19z"/>
<path d="M3798 1233 c12 -2 32 -2 45 0 12 2 2 4 -23 4 -25 0 -35 -2 -22 -4z"/>
<path d="M6655 1220 c3 -5 12 -10 20 -10 8 0 17 5 20 10 4 6 -5 10 -20 10 -15
0 -24 -4 -20 -10z"/>
<path d="M6807 1203 c-15 -24 -3 -123 14 -123 5 0 9 12 9 28 0 15 3 44 6 65 5
30 3 37 -9 37 -9 0 -18 -3 -20 -7z"/>
<path d="M8557 1199 c8 -8 16 -8 30 0 16 9 14 10 -11 11 -22 0 -27 -3 -19 -11z"/>
<path d="M6672 1188 c6 -18 28 -21 28 -4 0 9 -7 16 -16 16 -9 0 -14 -5 -12
-12z"/>
<path d="M1250 1180 c0 -12 27 -12 55 0 16 7 13 9 -17 9 -21 1 -38 -3 -38 -9z"/>
<path d="M1195 1060 c-3 -5 1 -10 9 -10 8 0 18 5 21 10 3 6 -1 10 -9 10 -8 0
-18 -4 -21 -10z"/>
<path d="M4030 1060 c-12 -8 -9 -10 13 -10 16 0 26 4 22 10 -8 12 -16 12 -35
0z"/>
<path d="M6777 1053 c-12 -21 -16 -63 -7 -68 16 -10 11 -43 -7 -47 -14 -3 -17
-15 -16 -75 2 -64 0 -71 -19 -76 -19 -5 -20 -11 -14 -53 7 -53 10 -59 25 -50
6 4 8 20 4 36 -4 20 1 39 13 57 11 17 17 43 15 66 -1 22 5 49 14 63 17 26 22
154 6 154 -6 0 -12 -3 -14 -7z"/>
<path d="M4080 1032 c0 -14 11 -21 26 -15 21 8 17 23 -6 23 -11 0 -20 -4 -20
-8z"/>
<path d="M297 1016 c-4 -10 -5 -21 -2 -24 9 -9 17 6 13 25 -3 17 -4 17 -11 -1z"/>
<path d="M3790 990 c19 -13 30 -13 30 0 0 6 -10 10 -22 10 -19 0 -20 -2 -8
-10z"/>
<path d="M1160 970 c0 -19 11 -26 23 -14 8 8 -3 34 -14 34 -5 0 -9 -9 -9 -20z"/>
<path d="M4080 970 c0 -13 28 -25 38 -16 3 4 0 11 -8 16 -20 13 -30 12 -30 0z"/>
<path d="M6505 961 c-13 -21 34 -32 75 -18 22 7 37 16 33 20 -10 11 -101 8
-108 -2z"/>
<path d="M4082 908 c7 -19 38 -22 38 -4 0 10 -9 16 -21 16 -12 0 -19 -5 -17
-12z"/>
<path d="M1130 858 c0 -15 5 -30 10 -33 13 -8 13 25 0 45 -8 12 -10 9 -10 -12z"/>
<path d="M4086 851 c-3 -5 0 -11 8 -14 15 -6 26 1 26 15 0 11 -27 10 -34 -1z"/>
<path d="M8817 854 c-8 -8 3 -34 14 -34 11 0 12 27 0 34 -4 3 -11 3 -14 0z"/>
<path d="M35 820 c3 -5 15 -10 26 -10 11 0 17 5 14 10 -3 6 -15 10 -26 10 -11
0 -17 -4 -14 -10z"/>
<path d="M8840 783 c0 -10 4 -25 10 -33 8 -12 10 -12 16 3 7 20 -1 47 -16 47
-5 0 -10 -8 -10 -17z"/>
<path d="M4103 719 c14 -8 22 -8 30 0 8 8 3 11 -18 11 -26 -1 -28 -2 -12 -11z"/>
<path d="M1092 680 c-14 -23 -15 -30 -4 -30 4 0 12 11 19 25 13 30 3 33 -15 5z"/>
<path d="M6506 661 c-4 -5 3 -12 14 -16 11 -4 19 -13 18 -20 -2 -8 1 -13 7
-12 5 1 10 13 10 27 0 18 -6 26 -22 28 -11 2 -24 -1 -27 -7z"/>
<path d="M6685 630 c-3 -5 -3 -38 1 -74 6 -55 4 -67 -10 -72 -19 -7 -21 -47
-4 -94 9 -27 8 -35 -3 -44 -28 -22 -42 -62 -31 -93 l10 -28 12 30 c6 17 14 44
17 60 4 17 13 35 21 41 13 10 14 16 3 42 -14 32 -7 107 11 129 5 7 7 21 3 33
-4 12 -2 27 4 34 6 8 9 21 5 30 -7 18 -29 22 -39 6z"/>
<path d="M1067 606 c-4 -10 -5 -21 -2 -24 9 -9 17 6 13 25 -3 17 -4 17 -11 -1z"/>
<path d="M3685 610 c-4 -6 6 -10 22 -10 22 0 25 2 13 10 -19 12 -27 12 -35 0z"/>
<path d="M8306 611 c-4 -6 -3 -19 3 -28 9 -17 10 -17 17 0 8 21 -10 45 -20 28z"/>
<path d="M6474 503 c7 -7 77 -5 85 3 2 2 -17 4 -44 4 -27 0 -45 -3 -41 -7z"/>
<path d="M1040 490 c0 -5 7 -10 15 -10 8 0 15 5 15 10 0 6 -7 10 -15 10 -8 0
-15 -4 -15 -10z"/>
<path d="M3620 486 c0 -9 39 -13 51 -5 10 6 4 9 -18 9 -18 0 -33 -2 -33 -4z"/>
<path d="M4547 444 c-12 -12 4 -24 33 -24 16 0 31 4 34 9 10 16 -52 30 -67 15z"/>
<path d="M3553 419 c14 -8 22 -8 30 0 8 8 3 11 -18 11 -26 -1 -28 -2 -12 -11z"/>
<path d="M3654 423 c7 -7 108 -5 115 3 2 2 -24 4 -59 4 -35 0 -60 -3 -56 -7z"/>
<path d="M1014 365 c-7 -38 -2 -51 15 -40 14 8 15 75 1 75 -5 0 -12 -16 -16
-35z"/>
<path d="M3655 371 c-8 -14 10 -22 30 -15 13 5 14 8 3 15 -17 11 -26 11 -33 0z"/>
<path d="M6437 364 c-11 -11 14 -34 37 -34 25 0 52 15 40 23 -18 10 -70 17
-77 11z"/>
<path d="M4400 335 c0 -9 5 -15 11 -13 6 2 11 8 11 13 0 5 -5 11 -11 13 -6 2
-11 -4 -11 -13z"/>
<path d="M980 201 c-13 -26 -13 -31 5 -31 9 0 15 9 15 25 0 30 -6 32 -20 6z"/>
<path d="M6620 176 c0 -14 -4 -28 -10 -31 -15 -9 -12 -25 5 -25 8 0 19 9 25
19 15 29 12 61 -5 61 -9 0 -15 -9 -15 -24z"/>
<path d="M4140 174 c0 -17 22 -14 28 4 2 7 -3 12 -12 12 -9 0 -16 -7 -16 -16z"/>
<path d="M4343 143 c-20 -7 -15 -23 7 -23 11 0 20 4 20 9 0 13 -12 19 -27 14z"/>
<path d="M4061 53 c-39 -39 -48 -53 -35 -53 11 0 26 6 34 13 16 12 63 88 58
92 -2 1 -27 -22 -57 -52z"/>
<path d="M950 60 c0 -24 15 -27 24 -4 9 22 8 24 -9 24 -8 0 -15 -9 -15 -20z"/>
<path d="M6597 33 c-13 -12 -7 -33 8 -33 8 0 15 9 15 20 0 20 -11 26 -23 13z"/>
</g>
</svg>
