<?xml version="1.0" standalone="no"?>
<!DOCTYPE svg PUBLIC "-//W3C//DTD SVG 20010904//EN"
 "http://www.w3.org/TR/2001/REC-SVG-20010904/DTD/svg10.dtd">
<svg version="1.0" xmlns="http://www.w3.org/2000/svg"
 width="900.000000pt" height="840.000000pt" viewBox="0 0 900.000000 840.000000"
 preserveAspectRatio="xMidYMid meet">
<metadata>
Created by potrace 1.10, written by Peter Selinger 2001-2011
</metadata>
<g transform="translate(0.000000,840.000000) scale(0.100000,-0.100000)"
fill="#000000" stroke="none">
<path d="M5727 8380 c-4 -16 -14 -20 -44 -20 -21 0 -51 -7 -67 -15 -15 -8 -40
-15 -55 -15 -15 0 -36 -7 -47 -15 -10 -8 -33 -15 -50 -15 -16 0 -39 -7 -50
-15 -10 -8 -33 -15 -50 -15 -17 0 -37 -7 -44 -15 -7 -8 -27 -15 -44 -15 -18 0
-41 -7 -52 -15 -10 -8 -31 -15 -45 -15 -14 0 -34 -7 -45 -15 -10 -8 -33 -15
-50 -15 -16 0 -39 -7 -50 -15 -10 -8 -33 -15 -50 -15 -17 0 -37 -7 -44 -15 -7
-8 -27 -15 -44 -15 -17 0 -40 -7 -50 -15 -11 -8 -34 -15 -52 -15 -17 0 -37 -7
-44 -15 -7 -8 -27 -15 -44 -15 -17 0 -40 -7 -50 -15 -11 -8 -32 -15 -46 -15
-14 0 -35 -7 -46 -15 -10 -8 -33 -15 -50 -15 -16 0 -39 -7 -50 -15 -10 -8 -33
-15 -50 -15 -17 0 -37 -7 -44 -15 -7 -8 -27 -15 -44 -15 -17 0 -40 -7 -50 -15
-11 -8 -32 -15 -46 -15 -14 0 -35 -7 -46 -15 -10 -8 -32 -15 -49 -15 -16 0
-39 -7 -49 -15 -11 -8 -32 -15 -46 -15 -14 0 -35 -7 -46 -15 -10 -8 -32 -15
-49 -15 -16 0 -39 -7 -49 -15 -11 -8 -32 -15 -46 -15 -14 0 -35 -7 -46 -15
-10 -8 -32 -15 -49 -15 -16 0 -39 -7 -49 -15 -11 -8 -34 -15 -52 -15 -17 0
-37 -7 -44 -15 -7 -8 -27 -15 -44 -15 -17 0 -40 -7 -50 -15 -11 -8 -32 -15
-46 -15 -14 0 -35 -7 -46 -15 -10 -8 -32 -15 -49 -15 -16 0 -39 -7 -49 -15
-11 -8 -32 -15 -46 -15 -14 0 -35 -7 -46 -15 -10 -8 -32 -15 -49 -15 -16 0
-39 -7 -49 -15 -11 -8 -32 -15 -46 -15 -14 0 -35 -7 -46 -15 -10 -8 -32 -15
-49 -15 -16 0 -39 -7 -49 -15 -11 -8 -32 -15 -46 -15 -14 0 -35 -7 -46 -15
-10 -8 -32 -15 -49 -15 -16 0 -39 -7 -49 -15 -11 -8 -32 -15 -46 -15 -14 0
-35 -7 -46 -15 -10 -8 -33 -15 -50 -15 -17 0 -37 -7 -44 -15 -7 -8 -27 -15
-44 -15 -18 0 -41 -7 -52 -15 -10 -8 -32 -15 -49 -15 -16 0 -39 -7 -49 -15
-11 -8 -32 -15 -46 -15 -14 0 -35 -7 -46 -15 -10 -8 -33 -15 -50 -15 -17 0
-37 -7 -44 -15 -7 -8 -27 -15 -44 -15 -18 0 -41 -7 -52 -15 -10 -8 -33 -15
-50 -15 -17 0 -37 -7 -44 -15 -7 -8 -27 -15 -44 -15 -18 0 -41 -7 -52 -15 -10
-8 -33 -15 -50 -15 -17 0 -37 -7 -44 -15 -7 -8 -27 -15 -44 -15 -18 0 -41 -7
-52 -15 -10 -8 -31 -15 -45 -15 -14 0 -34 -7 -45 -15 -10 -8 -33 -15 -50 -15
-16 0 -39 -7 -50 -15 -10 -8 -33 -15 -50 -15 -17 0 -37 -7 -44 -15 -7 -8 -27
-15 -44 -15 -17 0 -40 -7 -50 -15 -11 -8 -34 -15 -52 -15 -17 0 -37 -7 -44
-15 -7 -8 -27 -15 -44 -15 -17 0 -40 -7 -50 -15 -11 -8 -31 -15 -44 -15 -13 0
-33 -5 -45 -12 -12 -6 -35 -14 -52 -18 -28 -5 -29 -7 -26 -55 1 -27 9 -62 17
-77 8 -16 14 -56 14 -96 0 -39 7 -85 15 -105 8 -20 15 -66 15 -102 0 -36 7
-82 15 -102 8 -20 15 -66 15 -105 0 -38 7 -84 15 -105 8 -19 15 -65 15 -102 1
-36 5 -86 11 -111 5 -25 14 -81 19 -125 5 -44 14 -96 20 -115 5 -19 10 -52 10
-74 0 -21 6 -68 14 -105 8 -36 20 -95 26 -131 22 -134 31 -173 45 -194 8 -11
15 -37 15 -58 0 -20 5 -40 10 -43 6 -4 10 33 10 103 0 130 7 175 26 168 15 -6
15 -7 18 47 2 21 -3 42 -11 48 -9 8 -13 41 -13 113 -1 73 -5 106 -15 120 -10
13 -15 44 -15 92 0 44 -6 83 -15 100 -9 18 -15 57 -15 100 0 44 -6 83 -15 100
-9 18 -15 57 -15 100 0 44 -6 83 -15 100 -9 18 -15 56 -15 97 0 38 -5 78 -12
90 -6 12 -15 58 -19 102 -4 44 -13 99 -20 121 -9 30 -10 58 -3 100 11 67 30
82 40 30 7 -39 19 -47 27 -17 3 13 17 21 46 26 22 4 43 11 47 16 3 5 15 9 28
9 12 0 26 4 31 8 6 4 37 16 70 26 33 10 83 26 110 37 28 10 60 19 72 19 12 0
34 6 50 14 15 8 55 22 88 31 33 10 92 29 130 42 39 14 79 27 90 30 58 13 156
47 161 54 3 5 13 9 23 9 22 0 113 26 159 46 18 8 43 14 55 14 13 0 32 7 43 15
10 8 28 15 40 15 11 0 29 7 40 15 10 8 29 15 40 15 12 0 61 14 110 31 49 16
116 37 149 45 33 9 65 20 72 26 6 5 38 16 70 24 32 8 75 19 96 25 21 5 45 14
55 19 9 5 42 16 72 24 109 29 236 68 280 86 25 10 72 26 105 35 95 27 189 58
200 65 6 4 28 10 50 14 22 4 56 13 75 20 19 8 62 22 95 32 33 9 69 23 80 30
11 8 32 14 47 14 15 0 30 5 33 10 3 6 18 10 33 10 15 0 40 7 56 15 15 8 39 15
52 15 12 0 25 4 28 9 3 4 22 11 42 14 62 10 88 47 33 47 -17 0 -28 4 -24 10 9
15 36 12 57 -7 18 -16 23 -16 86 1 37 9 77 24 89 32 12 8 31 14 42 14 11 0 32
5 48 12 26 11 103 31 165 44 15 4 33 12 39 20 6 8 21 14 33 14 22 0 71 15 202
61 44 16 96 29 116 29 23 0 38 6 42 15 3 8 18 15 33 15 15 1 39 7 53 15 14 8
38 14 53 15 16 0 41 6 55 13 15 8 42 21 60 30 19 9 50 17 70 17 20 1 48 7 62
15 36 20 55 18 68 -7 7 -13 17 -31 24 -40 10 -14 8 -21 -11 -42 -34 -36 -168
-96 -214 -96 -13 0 -40 -9 -62 -20 -22 -11 -44 -20 -51 -20 -6 0 -17 -6 -23
-14 -7 -8 -28 -16 -49 -19 -20 -3 -57 -12 -82 -22 -25 -9 -69 -21 -99 -26 -30
-4 -61 -15 -71 -24 -9 -8 -25 -15 -36 -15 -11 0 -53 -12 -94 -26 -41 -14 -87
-28 -103 -31 -15 -3 -30 -9 -33 -14 -3 -5 -19 -9 -35 -9 -17 0 -47 -9 -67 -19
-20 -11 -64 -27 -97 -36 -33 -9 -75 -23 -93 -31 -18 -8 -41 -14 -52 -14 -10 0
-21 -4 -24 -9 -3 -4 -25 -11 -48 -15 -24 -4 -61 -15 -83 -25 -52 -24 -286
-101 -308 -101 -10 0 -28 -6 -40 -14 -12 -8 -51 -24 -87 -36 -36 -12 -74 -25
-85 -30 -11 -5 -45 -14 -75 -20 -30 -7 -68 -18 -83 -26 -16 -8 -37 -14 -47
-14 -11 0 -61 -15 -112 -34 -51 -18 -111 -36 -133 -40 -22 -4 -63 -18 -92 -32
-28 -13 -61 -24 -72 -24 -11 0 -23 -4 -26 -10 -3 -5 -17 -10 -30 -10 -13 0
-41 -7 -62 -16 -60 -26 -75 -31 -128 -44 -27 -7 -68 -20 -90 -31 -22 -10 -67
-25 -100 -33 -33 -8 -85 -24 -115 -36 -30 -12 -68 -24 -85 -27 -16 -2 -39 -8
-50 -13 -79 -36 -202 -80 -251 -90 -33 -6 -72 -17 -89 -25 -16 -7 -57 -20 -90
-30 -33 -9 -76 -22 -95 -29 -19 -8 -75 -26 -125 -41 -176 -53 -250 -78 -280
-91 -28 -12 -72 -24 -145 -41 -14 -3 -34 -12 -45 -19 -11 -8 -27 -14 -36 -14
-9 0 -24 -10 -35 -21 -10 -12 -34 -28 -52 -36 -32 -13 -34 -16 -29 -56 3 -23
10 -88 16 -143 6 -56 15 -114 21 -129 5 -14 10 -52 10 -84 0 -32 7 -80 15
-107 8 -27 15 -74 15 -104 0 -30 7 -77 15 -104 8 -27 15 -79 15 -115 0 -36 7
-84 15 -106 8 -22 14 -62 15 -88 0 -26 7 -62 17 -80 9 -18 20 -61 24 -97 5
-36 13 -92 18 -125 22 -132 41 -275 41 -312 0 -21 5 -44 10 -49 6 -6 14 -53
19 -105 13 -133 31 -258 42 -299 5 -19 14 -71 19 -115 5 -44 17 -127 25 -185
9 -58 21 -145 27 -195 5 -49 13 -97 16 -105 3 -8 12 -60 19 -115 8 -55 20
-140 27 -190 7 -49 15 -97 18 -105 4 -8 9 -51 12 -96 3 -45 10 -92 15 -105 10
-23 23 -108 40 -274 5 -44 16 -105 26 -135 9 -30 19 -61 21 -67 2 -7 10 -13
18 -13 7 0 16 -10 19 -21 5 -19 11 -21 55 -17 58 6 82 18 331 160 25 14 61 33
79 42 19 9 47 27 64 41 16 14 35 25 42 25 18 0 72 28 86 45 6 7 39 28 73 46
34 17 86 47 115 65 29 19 58 34 66 34 7 0 21 9 30 19 10 11 38 29 64 41 26 11
65 34 87 50 50 36 132 80 151 80 8 0 14 5 14 10 0 6 5 10 10 10 14 0 72 41 83
58 9 14 57 17 57 3 0 -5 -17 -22 -37 -36 -60 -42 -192 -125 -198 -125 -4 0
-21 -11 -39 -25 -18 -14 -38 -25 -43 -25 -6 0 -34 -16 -63 -35 -29 -19 -60
-35 -70 -35 -10 0 -29 -13 -42 -29 -29 -34 -59 -51 -88 -51 -13 0 -24 -8 -27
-19 -3 -11 -21 -26 -41 -34 -21 -8 -46 -24 -56 -36 -11 -12 -25 -21 -32 -21
-25 0 -144 -143 -144 -172 0 -5 11 -8 25 -8 18 0 25 5 25 20 0 15 15 27 56 46
64 29 207 114 212 126 2 4 10 8 17 8 8 0 20 6 27 13 16 14 45 33 73 47 11 6
34 19 50 30 17 11 39 24 50 30 11 6 32 18 47 28 15 9 71 44 125 76 54 33 100
62 103 66 3 4 15 10 28 14 12 4 22 12 22 17 0 5 6 9 14 9 8 0 21 6 28 13 7 7
20 16 28 20 8 4 29 16 45 27 17 11 39 24 50 30 11 6 32 18 47 28 60 38 272
168 297 181 14 8 28 17 31 20 6 7 38 28 65 41 11 6 34 19 50 30 17 11 39 24
50 30 11 6 32 18 47 28 15 9 60 37 100 61 40 25 75 48 76 53 2 4 9 8 16 8 7 0
31 13 52 28 21 16 46 31 54 35 8 4 29 16 45 27 17 11 39 24 50 30 11 6 32 18
47 28 15 9 71 44 125 76 54 33 100 62 103 66 3 4 15 10 28 14 12 4 22 12 22
17 0 5 6 9 14 9 8 0 21 6 28 13 7 7 20 16 28 20 8 4 29 16 45 27 17 11 39 24
50 30 11 6 32 18 47 28 60 38 272 168 297 181 14 8 28 17 31 20 6 7 40 29 60
38 8 4 43 26 78 50 35 24 68 41 73 37 11 -6 69 17 69 29 0 4 10 12 23 17 12 6
36 19 52 30 17 11 39 24 50 30 42 23 67 38 78 49 6 6 19 11 28 11 9 0 19 7 23
15 3 8 13 15 23 15 10 0 28 8 40 18 l21 17 7 1696 8 1696 -32 11 c-17 6 -31
18 -31 26 0 24 -47 20 -53 -4z m-27 -100 c0 -5 -14 -10 -31 -10 -17 0 -28 4
-24 10 3 6 17 10 31 10 13 0 24 -4 24 -10z m-95 -30 c4 -6 -5 -10 -20 -10 -15
0 -24 4 -20 10 3 6 12 10 20 10 8 0 17 -4 20 -10z m-100 -30 c4 -6 -5 -10 -20
-10 -15 0 -24 4 -20 10 3 6 12 10 20 10 8 0 17 -4 20 -10z m-85 -30 c0 -5 -12
-10 -26 -10 -14 0 -23 4 -19 10 3 6 15 10 26 10 10 0 19 -4 19 -10z m-105 -30
c4 -6 -5 -10 -20 -10 -15 0 -24 4 -20 10 3 6 12 10 20 10 8 0 17 -4 20 -10z
m-90 -30 c4 -6 -5 -10 -20 -10 -15 0 -24 4 -20 10 3 6 12 10 20 10 8 0 17 -4
20 -10z m-100 -30 c3 -5 -3 -10 -15 -10 -12 0 -18 5 -15 10 3 6 10 10 15 10 5
0 12 -4 15 -10z m-95 -30 c0 -5 -9 -10 -21 -10 -11 0 -17 5 -14 10 3 6 13 10
21 10 8 0 14 -4 14 -10z m-95 -30 c3 -5 -3 -10 -15 -10 -12 0 -18 5 -15 10 3
6 10 10 15 10 5 0 12 -4 15 -10z m815 -889 l0 -880 -22 -15 c-19 -14 -20 -19
-11 -51 8 -26 10 -186 6 -543 -7 -547 -3 -516 -58 -542 -11 -6 -33 -19 -50
-30 -16 -11 -39 -24 -50 -30 -24 -13 -46 -27 -102 -63 -24 -15 -45 -27 -47
-27 -3 0 -22 -12 -43 -26 -21 -14 -47 -30 -58 -35 -22 -11 -38 -21 -100 -60
-22 -14 -56 -34 -75 -45 -19 -10 -63 -38 -98 -61 -35 -24 -67 -43 -71 -43 -4
0 -37 -20 -75 -45 -37 -24 -76 -47 -87 -50 -10 -4 -19 -11 -19 -16 0 -5 -5 -9
-10 -9 -6 0 -29 -12 -53 -27 -56 -36 -78 -50 -102 -63 -11 -6 -33 -19 -50 -30
-16 -11 -39 -24 -50 -30 -11 -6 -33 -19 -50 -30 -16 -11 -39 -24 -50 -30 -11
-6 -33 -19 -50 -30 -16 -11 -39 -24 -50 -30 -11 -6 -33 -19 -50 -30 -16 -11
-39 -24 -50 -30 -11 -6 -33 -19 -50 -30 -16 -11 -39 -24 -50 -30 -11 -6 -33
-19 -50 -30 -16 -11 -39 -24 -50 -30 -11 -6 -33 -19 -50 -30 -16 -11 -39 -24
-50 -30 -11 -6 -33 -19 -50 -30 -16 -11 -39 -24 -50 -30 -11 -6 -33 -19 -50
-30 -16 -11 -39 -24 -50 -30 -11 -6 -33 -19 -50 -30 -16 -11 -39 -24 -50 -30
-11 -6 -33 -19 -50 -30 -16 -11 -39 -24 -50 -30 -11 -6 -33 -19 -50 -30 -16
-11 -39 -24 -50 -30 -11 -6 -33 -19 -50 -30 -16 -11 -39 -24 -50 -30 -11 -6
-33 -19 -50 -30 -16 -11 -37 -23 -45 -27 -8 -4 -31 -18 -50 -31 -19 -13 -44
-28 -55 -33 -22 -10 -31 -15 -121 -76 -35 -23 -72 -44 -83 -48 -12 -3 -21 -11
-21 -16 0 -5 -5 -9 -11 -9 -6 0 -30 -13 -54 -29 -24 -16 -53 -32 -64 -36 -12
-3 -21 -11 -21 -16 0 -5 -5 -9 -11 -9 -6 0 -30 -13 -54 -29 -24 -16 -53 -32
-64 -36 -12 -3 -21 -10 -21 -15 0 -4 -8 -10 -17 -14 -10 -3 -31 -15 -48 -26
-16 -11 -39 -24 -50 -30 -21 -10 -32 -17 -100 -60 -22 -14 -47 -29 -55 -33 -8
-4 -28 -16 -45 -27 -16 -11 -39 -24 -50 -30 -11 -6 -33 -19 -50 -30 -16 -11
-39 -24 -50 -30 -11 -6 -33 -19 -50 -30 -16 -11 -39 -24 -50 -30 -11 -6 -33
-19 -50 -30 -16 -11 -37 -23 -45 -27 -8 -3 -26 -17 -39 -30 -16 -15 -34 -23
-50 -21 -26 3 -26 4 -32 113 -4 61 -12 126 -18 145 -6 19 -11 56 -11 81 0 25
-7 68 -15 95 -8 27 -15 72 -15 99 0 28 -7 75 -15 105 -8 30 -15 78 -15 106 0
28 -7 73 -15 100 -8 27 -15 72 -15 100 0 28 -7 73 -15 100 -8 27 -15 72 -15
100 0 28 -7 73 -15 100 -8 27 -15 72 -15 100 0 28 -7 73 -15 100 -8 27 -15 72
-15 99 0 28 -7 75 -15 105 -8 30 -15 75 -15 100 0 25 -7 70 -15 100 -8 30 -15
78 -15 105 0 28 -7 72 -15 99 -8 27 -15 72 -15 101 0 29 -7 74 -15 101 -8 27
-15 72 -15 99 0 28 -7 75 -15 105 -8 30 -15 84 -15 119 0 45 -5 70 -16 82 -16
18 -23 58 -44 237 -6 51 -15 104 -20 118 -6 14 -10 49 -10 78 0 28 -7 78 -15
109 -8 32 -15 79 -15 105 0 26 -7 72 -15 102 -8 30 -15 78 -15 106 0 28 -7 73
-15 100 -8 27 -15 73 -15 102 l0 52 33 0 c18 0 42 7 53 15 10 8 30 15 44 15
14 0 36 7 50 15 14 8 36 15 50 15 14 0 34 7 44 15 11 8 32 15 46 15 14 0 35 7
46 15 10 8 31 15 45 15 14 0 34 7 45 15 10 8 31 15 45 15 14 0 34 7 45 15 10
8 29 15 41 15 12 0 37 6 55 14 55 22 101 38 141 46 21 4 44 13 50 19 6 6 23
11 37 11 14 0 34 6 45 14 11 7 34 16 50 18 36 7 89 25 128 44 16 8 40 14 54
14 14 0 37 6 51 14 37 18 90 37 135 46 21 4 44 13 50 19 6 6 23 11 37 11 14 0
35 7 46 15 10 8 31 15 45 15 14 0 34 7 45 15 10 8 30 15 44 15 14 0 36 7 50
15 14 8 36 15 50 15 14 0 34 7 44 15 11 8 31 15 45 15 14 0 35 7 45 15 11 8
32 15 46 15 14 0 35 7 46 15 10 8 31 15 45 15 14 0 34 7 45 15 10 8 31 15 45
15 14 0 34 7 45 15 10 8 31 15 45 15 14 0 34 7 45 15 10 8 33 15 49 15 17 0
39 7 49 15 11 8 31 15 45 15 14 0 35 7 45 15 11 8 32 15 46 15 14 0 35 7 46
15 10 8 30 15 44 15 14 0 34 6 45 14 11 7 34 16 50 18 36 7 89 25 128 44 16 8
39 14 52 14 13 0 36 6 52 14 39 19 91 36 136 46 21 4 44 13 50 19 6 6 23 11
37 11 14 0 34 6 45 14 11 7 34 16 50 18 36 7 89 25 128 44 16 8 41 14 55 14
15 0 36 7 46 15 11 8 31 15 45 15 14 0 35 7 45 15 11 8 32 15 46 15 14 0 35 7
46 15 10 8 30 15 44 15 14 0 34 6 45 14 11 7 34 16 50 18 36 7 89 25 128 44
16 8 38 14 50 14 12 1 33 7 47 15 14 8 36 15 50 15 14 0 34 7 44 15 11 8 32
15 46 15 14 0 35 7 46 15 10 8 31 15 45 15 14 0 34 7 45 15 10 8 31 15 45 15
14 0 34 7 45 15 10 8 31 15 45 15 14 0 34 7 45 15 10 8 31 15 47 15 l27 0 0
-879z m-905 859 c4 -6 -5 -10 -19 -10 -14 0 -26 5 -26 10 0 6 9 10 19 10 11 0
23 -4 26 -10z m-100 -30 c4 -6 -5 -10 -20 -10 -15 0 -24 4 -20 10 3 6 12 10
20 10 8 0 17 -4 20 -10z m-90 -30 c4 -6 -5 -10 -19 -10 -14 0 -26 5 -26 10 0
6 9 10 19 10 11 0 23 -4 26 -10z m-90 -30 c4 -6 -5 -10 -19 -10 -14 0 -26 5
-26 10 0 6 9 10 19 10 11 0 23 -4 26 -10z m-100 -30 c3 -5 -3 -10 -14 -10 -12
0 -21 5 -21 10 0 6 6 10 14 10 8 0 18 -4 21 -10z m-200 -60 c3 -5 -3 -10 -15
-10 -12 0 -18 5 -15 10 3 6 10 10 15 10 5 0 12 -4 15 -10z m-80 -30 c4 -6 -7
-10 -25 -10 -18 0 -29 4 -25 10 3 6 15 10 25 10 10 0 22 -4 25 -10z m-110 -30
c3 -5 -3 -10 -15 -10 -12 0 -18 5 -15 10 3 6 10 10 15 10 5 0 12 -4 15 -10z
m-85 -30 c0 -5 -12 -10 -26 -10 -14 0 -23 4 -19 10 3 6 15 10 26 10 10 0 19
-4 19 -10z m-95 -30 c4 -6 -5 -10 -20 -10 -15 0 -24 4 -20 10 3 6 12 10 20 10
8 0 17 -4 20 -10z m-90 -30 c4 -6 -5 -10 -19 -10 -14 0 -26 5 -26 10 0 6 9 10
19 10 11 0 23 -4 26 -10z m-95 -30 c0 -5 -11 -10 -25 -10 -14 0 -25 5 -25 10
0 6 11 10 25 10 14 0 25 -4 25 -10z m-105 -30 c4 -6 -5 -10 -19 -10 -14 0 -26
5 -26 10 0 6 9 10 19 10 11 0 23 -4 26 -10z m-90 -30 c4 -6 -5 -10 -19 -10
-14 0 -26 5 -26 10 0 6 9 10 19 10 11 0 23 -4 26 -10z m-95 -30 c0 -5 -12 -10
-26 -10 -14 0 -23 4 -19 10 3 6 15 10 26 10 10 0 19 -4 19 -10z m-90 -30 c0
-5 -14 -10 -31 -10 -17 0 -28 4 -24 10 3 6 17 10 31 10 13 0 24 -4 24 -10z
m-95 -30 c4 -6 -7 -10 -24 -10 -17 0 -31 5 -31 10 0 6 11 10 24 10 14 0 28 -4
31 -10z m-95 -30 c0 -5 -11 -10 -25 -10 -14 0 -25 5 -25 10 0 6 11 10 25 10
14 0 25 -4 25 -10z m-100 -30 c0 -5 -12 -10 -26 -10 -14 0 -23 4 -19 10 3 6
15 10 26 10 10 0 19 -4 19 -10z m-95 -30 c4 -6 -5 -10 -20 -10 -15 0 -24 4
-20 10 3 6 12 10 20 10 8 0 17 -4 20 -10z m-95 -30 c0 -5 -12 -10 -26 -10 -14
0 -23 4 -19 10 3 6 15 10 26 10 10 0 19 -4 19 -10z m-95 -30 c4 -6 -5 -10 -19
-10 -14 0 -26 5 -26 10 0 6 9 10 19 10 11 0 23 -4 26 -10z m-90 -30 c4 -6 -7
-10 -25 -10 -18 0 -29 4 -25 10 3 6 15 10 25 10 10 0 22 -4 25 -10z m-100 -30
c4 -6 -5 -10 -19 -10 -14 0 -26 5 -26 10 0 6 9 10 19 10 11 0 23 -4 26 -10z
m-80 -30 c4 -6 -8 -10 -29 -10 -20 0 -36 5 -36 10 0 6 13 10 29 10 17 0 33 -4
36 -10z m-105 -30 c0 -5 -14 -10 -31 -10 -17 0 -28 4 -24 10 3 6 17 10 31 10
13 0 24 -4 24 -10z m-100 -30 c0 -5 -12 -10 -26 -10 -14 0 -23 4 -19 10 3 6
15 10 26 10 10 0 19 -4 19 -10z m-85 -30 c4 -6 -8 -10 -30 -10 -22 0 -34 4
-30 10 3 6 17 10 30 10 13 0 27 -4 30 -10z m-95 -30 c0 -5 -13 -10 -30 -10
-16 0 -30 5 -30 10 0 6 14 10 30 10 17 0 30 -4 30 -10z m-100 -30 c0 -5 -14
-10 -31 -10 -17 0 -28 4 -24 10 3 6 17 10 31 10 13 0 24 -4 24 -10z m-90 -30
c0 -5 -14 -10 -31 -10 -17 0 -28 4 -24 10 3 6 17 10 31 10 13 0 24 -4 24 -10z
m-90 -30 c0 -5 -16 -10 -36 -10 -21 0 -33 4 -29 10 3 6 19 10 36 10 16 0 29
-4 29 -10z m-110 -30 c0 -5 -12 -10 -26 -10 -14 0 -23 4 -19 10 3 6 15 10 26
10 10 0 19 -4 19 -10z m-90 -30 c0 -5 -14 -10 -31 -10 -17 0 -28 4 -24 10 3 6
17 10 31 10 13 0 24 -4 24 -10z m-90 -30 c0 -5 -13 -10 -30 -10 -16 0 -30 5
-30 10 0 6 14 10 30 10 17 0 30 -4 30 -10z m-100 -30 c0 -5 -14 -10 -31 -10
-17 0 -28 4 -24 10 3 6 17 10 31 10 13 0 24 -4 24 -10z m-100 -30 c0 -5 -11
-10 -25 -10 -14 0 -25 5 -25 10 0 6 11 10 25 10 14 0 25 -4 25 -10z m-90 -30
c0 -5 -11 -10 -25 -10 -14 0 -25 5 -25 10 0 6 11 10 25 10 14 0 25 -4 25 -10z
m4431 -1896 c11 -14 9 -20 -19 -45 -18 -16 -39 -29 -47 -29 -8 0 -18 -6 -22
-13 -11 -17 -59 -47 -76 -47 -8 0 -20 -7 -27 -15 -7 -9 -19 -14 -27 -11 -8 3
-21 2 -31 -3 -76 -37 -93 -43 -100 -37 -8 9 63 73 91 82 10 3 29 16 42 30 13
13 34 24 45 24 12 0 35 14 52 30 16 17 38 30 48 30 10 0 22 5 25 10 9 15 31
12 46 -6z m-376 -214 c-10 -15 -66 -42 -73 -35 -9 9 39 45 61 45 10 0 15 -5
12 -10z m-415 -249 c0 -5 -7 -11 -15 -15 -15 -5 -20 5 -8 17 9 10 23 9 23 -2z
m-1220 -751 c0 -14 -48 -35 -58 -26 -8 9 26 36 45 36 7 0 13 -5 13 -10z m-140
-78 c0 -10 -56 -52 -70 -52 -20 0 -10 25 18 42 30 18 52 22 52 10z m-112 -74
c-8 -12 -28 -29 -45 -38 -17 -9 -43 -24 -57 -33 -31 -21 -46 -22 -46 -2 0 8
13 21 30 30 16 8 46 26 66 40 20 14 43 25 52 25 13 0 13 -3 0 -22z"/>
<path d="M5615 6210 c-3 -5 -19 -10 -34 -10 -15 0 -36 -7 -47 -15 -10 -8 -33
-15 -50 -15 -16 0 -39 -7 -50 -15 -10 -8 -32 -14 -49 -15 -16 0 -50 -6 -75
-14 -62 -20 -141 -36 -225 -45 -38 -5 -90 -13 -115 -19 -25 -6 -86 -13 -136
-16 -51 -3 -104 -10 -118 -16 -15 -5 -78 -10 -139 -11 -62 0 -148 -4 -192 -9
-44 -5 -210 -14 -370 -20 -159 -6 -314 -15 -344 -20 -30 -6 -122 -10 -205 -11
-83 0 -178 -5 -211 -10 -33 -5 -118 -13 -190 -18 -71 -6 -146 -15 -165 -20
-19 -6 -60 -11 -90 -11 -30 0 -73 -5 -95 -11 -22 -6 -73 -15 -113 -20 -40 -5
-82 -14 -92 -19 -10 -6 -35 -10 -55 -10 -19 0 -52 -7 -72 -15 -19 -8 -49 -15
-65 -15 -16 0 -45 -7 -65 -15 -19 -8 -47 -15 -62 -15 -14 0 -39 -7 -55 -15
-15 -8 -38 -15 -50 -15 -11 0 -34 -7 -50 -15 -15 -8 -38 -15 -50 -15 -12 0
-31 -7 -42 -15 -10 -8 -31 -15 -45 -15 -14 0 -34 -7 -45 -15 -10 -8 -28 -15
-40 -15 -11 0 -29 -7 -40 -15 -10 -8 -29 -15 -40 -15 -12 0 -27 -7 -34 -15 -7
-8 -23 -15 -35 -15 -12 0 -28 -7 -35 -15 -7 -8 -19 -15 -27 -15 -22 0 -104
-51 -98 -61 9 -13 74 -29 93 -22 9 4 25 15 35 25 12 12 26 17 38 13 12 -4 21
-1 25 9 3 8 27 22 52 31 26 9 58 23 72 30 64 33 393 135 437 135 16 0 34 5 40
11 6 6 29 15 50 19 21 5 70 15 108 24 137 29 291 55 385 66 52 6 124 15 160
20 147 22 306 32 995 60 149 6 304 13 345 15 41 3 157 9 257 14 100 5 186 12
192 15 5 4 36 8 68 10 32 3 72 7 88 10 110 21 157 27 170 22 9 -3 42 3 74 14
31 10 84 24 117 29 147 27 288 71 324 103 16 14 36 28 45 31 8 4 15 11 15 17
0 13 -67 13 -75 0z"/>
<path d="M5800 4879 c-19 -17 -44 -35 -55 -40 -27 -13 -50 -27 -121 -75 -33
-22 -79 -49 -102 -60 -39 -18 -41 -21 -36 -54 6 -34 4 -37 -38 -58 -23 -13
-56 -32 -73 -42 -16 -11 -37 -23 -45 -27 -8 -4 -31 -18 -50 -31 -19 -13 -44
-28 -55 -33 -26 -12 -46 -25 -120 -74 -72 -47 -93 -61 -120 -75 -11 -6 -33
-19 -50 -30 -16 -11 -37 -23 -45 -27 -8 -4 -34 -20 -56 -35 -23 -15 -45 -28
-48 -28 -3 0 -35 -20 -70 -44 -36 -24 -74 -47 -85 -51 -12 -3 -21 -10 -21 -15
0 -4 -8 -10 -17 -14 -10 -3 -31 -15 -48 -26 -16 -11 -39 -24 -50 -30 -11 -6
-33 -19 -50 -30 -16 -11 -37 -23 -45 -27 -8 -4 -43 -26 -77 -49 -34 -23 -71
-45 -82 -49 -12 -3 -21 -10 -21 -15 0 -4 -8 -10 -17 -14 -10 -3 -31 -15 -48
-26 -16 -11 -39 -24 -50 -30 -11 -6 -32 -18 -47 -28 -15 -9 -71 -44 -125 -77
-54 -32 -100 -62 -103 -65 -7 -7 -40 -28 -65 -40 -11 -6 -33 -19 -50 -30 -16
-11 -39 -24 -50 -30 -11 -6 -32 -18 -47 -28 -15 -9 -60 -37 -100 -61 -40 -24
-75 -47 -78 -51 -3 -4 -12 -10 -20 -13 -8 -4 -28 -16 -45 -27 -16 -11 -39 -24
-50 -30 -11 -6 -32 -18 -47 -28 -15 -9 -60 -37 -100 -61 -40 -24 -75 -47 -78
-51 -3 -4 -15 -10 -27 -14 -13 -4 -23 -11 -23 -16 0 -4 -8 -10 -17 -14 -10 -3
-31 -15 -48 -26 -16 -11 -39 -24 -50 -30 -11 -6 -33 -19 -50 -30 -16 -11 -37
-23 -45 -27 -8 -4 -43 -26 -77 -49 -34 -23 -71 -45 -82 -49 -12 -3 -21 -10
-21 -15 0 -4 -8 -11 -17 -14 -33 -12 -115 -66 -126 -83 -9 -15 -37 -17 -37 -3
0 15 -53 60 -72 60 -24 0 -23 -8 5 -30 12 -10 20 -20 17 -22 -58 -47 -98 -76
-110 -82 -8 -3 -28 -15 -45 -26 -16 -11 -38 -23 -47 -26 -9 -3 -19 -12 -22
-20 -3 -8 -15 -14 -26 -14 -11 0 -20 -4 -20 -9 0 -5 -21 -20 -47 -33 -27 -13
-52 -29 -56 -35 -4 -7 -17 -13 -27 -13 -11 0 -20 -4 -20 -8 0 -7 -45 -29 -94
-46 -18 -6 -18 -7 -1 -26 10 -11 27 -20 37 -20 10 0 30 -7 44 -16 30 -20 40
-13 23 15 -22 35 17 67 256 211 l119 72 92 2 c70 1 96 5 111 18 10 9 38 25 63
36 25 11 51 27 59 36 7 9 22 16 31 16 10 0 31 11 47 24 15 13 52 36 81 51 28
15 52 31 52 36 0 4 19 17 43 27 23 10 71 39 107 63 36 25 73 48 82 51 9 4 55
32 102 62 47 31 89 56 94 56 5 0 27 13 48 28 66 47 164 102 184 102 10 0 21 8
24 18 6 18 72 59 81 50 8 -8 -62 -78 -77 -78 -8 0 -30 -11 -49 -25 -51 -38
-367 -245 -374 -245 -4 0 -25 -13 -48 -29 -23 -15 -78 -47 -122 -70 -148 -78
-254 -148 -439 -291 -80 -62 -267 -190 -308 -211 -15 -8 -46 -27 -69 -43 -27
-20 -52 -30 -75 -29 -23 1 -34 -4 -34 -13 0 -8 9 -14 20 -14 11 0 20 -7 20
-15 0 -10 11 -15 35 -15 19 0 35 5 35 10 0 6 10 15 23 20 33 15 61 33 70 48 4
6 16 12 26 12 11 0 21 7 25 15 3 8 12 15 20 15 7 0 16 7 20 15 3 8 15 15 26
15 11 0 20 4 20 9 0 9 29 28 78 50 12 6 22 15 22 21 0 5 9 10 20 10 11 0 23 7
26 15 4 8 14 15 24 15 10 0 20 3 22 8 2 4 29 20 62 37 32 16 81 44 108 62 27
18 51 33 54 33 6 0 148 98 179 124 48 41 123 96 130 96 4 0 24 14 45 30 21 17
45 30 53 30 8 0 17 7 21 15 3 8 12 15 20 15 7 0 16 7 20 15 3 8 15 15 26 15
11 0 20 4 20 9 0 9 29 28 78 50 12 6 22 15 22 20 0 5 8 11 18 15 9 3 31 15 47
26 17 11 37 23 45 27 8 3 31 18 50 32 49 36 72 51 93 57 9 4 17 10 17 14 0 5
10 12 23 16 12 4 36 17 53 30 17 13 36 24 42 24 6 0 17 6 24 13 19 16 48 35
76 47 12 5 22 14 22 20 0 5 6 10 13 10 8 0 33 14 55 30 23 17 45 30 48 30 3 0
23 14 44 30 21 17 43 30 48 30 6 0 17 6 24 13 19 16 48 35 76 47 12 5 22 14
22 19 0 5 8 11 18 15 9 3 31 15 47 26 17 11 40 25 53 31 12 7 22 16 22 21 0 4
4 8 10 8 5 0 39 20 76 45 36 25 68 45 71 45 3 0 22 14 43 30 21 17 40 30 43
30 3 0 26 14 50 30 25 17 50 30 55 30 6 0 15 6 19 13 9 14 37 32 71 47 12 5
22 14 22 20 0 5 5 10 12 10 6 0 50 26 97 57 101 68 118 79 149 92 12 6 22 15
22 21 0 5 7 10 15 10 8 0 23 8 33 18 10 9 29 24 42 32 12 8 33 23 45 33 13 9
28 17 34 17 6 0 11 5 11 10 0 6 10 15 23 21 30 13 56 29 97 59 44 32 71 48 92
56 9 3 19 12 22 20 3 8 15 14 26 14 11 0 20 5 20 10 0 6 10 15 23 20 29 13 60
33 68 43 7 10 42 31 77 46 12 6 22 15 22 21 0 5 9 10 19 10 11 0 21 3 23 8 6
13 67 52 82 52 8 0 16 3 18 8 4 8 74 42 88 42 16 0 12 -19 -8 -37 -28 -28 -80
-63 -92 -63 -5 0 -10 -5 -10 -10 0 -6 -10 -15 -22 -20 -28 -12 -57 -31 -76
-47 -7 -7 -20 -13 -28 -13 -8 0 -14 -4 -14 -9 0 -10 -38 -34 -72 -47 -10 -3
-18 -10 -18 -15 0 -5 -10 -14 -22 -19 -13 -6 -36 -19 -53 -30 -16 -11 -37 -23
-45 -27 -8 -3 -31 -18 -50 -32 -42 -31 -69 -49 -90 -58 -8 -3 -19 -12 -23 -20
-4 -7 -17 -13 -27 -13 -11 0 -20 -5 -20 -10 0 -6 -23 -20 -50 -32 -28 -12 -49
-26 -47 -31 1 -5 20 -15 41 -22 20 -7 43 -21 50 -31 12 -16 16 -15 58 19 25
20 48 37 53 37 4 0 24 14 45 30 21 17 41 30 45 30 4 0 24 14 45 30 21 17 41
30 45 30 4 0 24 14 45 30 21 17 41 30 45 30 4 0 24 12 44 28 48 36 72 51 94
58 9 4 17 10 17 15 0 5 10 14 23 19 27 12 56 31 75 48 7 6 20 12 28 12 8 0 14
4 14 9 0 10 20 23 105 64 42 21 89 57 73 57 -17 0 -157 55 -179 70 -21 16
-150 66 -219 85 -8 3 -31 -9 -50 -26z m14 -128 c7 -11 -12 -27 -98 -85 -69
-47 -107 -55 -87 -18 13 24 75 72 93 72 7 0 27 9 43 20 33 22 41 24 49 11z"/>
<path d="M6245 4704 c-21 -25 -119 -104 -131 -104 -3 0 -23 -13 -44 -30 -21
-16 -41 -30 -45 -30 -4 0 -24 -13 -45 -30 -21 -16 -41 -30 -45 -30 -4 0 -24
-12 -44 -27 -48 -37 -72 -52 -93 -59 -10 -4 -18 -10 -18 -15 0 -5 -10 -14 -22
-19 -28 -12 -57 -31 -76 -47 -7 -7 -19 -13 -27 -13 -7 0 -15 -7 -19 -15 -3 -8
-12 -15 -21 -15 -8 0 -15 -4 -15 -10 0 -5 -11 -12 -24 -16 -14 -3 -27 -12 -30
-20 -3 -8 -12 -14 -21 -14 -8 0 -15 -4 -15 -10 0 -5 -11 -12 -25 -16 -14 -3
-25 -9 -25 -13 0 -4 -21 -17 -47 -29 -60 -28 -133 -71 -151 -89 -7 -7 -19 -13
-27 -13 -7 0 -15 -3 -17 -7 -1 -5 -30 -26 -63 -48 -33 -22 -61 -43 -63 -47 -2
-5 -15 -8 -28 -8 -14 0 -24 -6 -24 -14 0 -16 -27 -29 -41 -20 -5 3 -8 0 -7 -7
2 -7 -6 -15 -17 -17 -11 -2 -24 -11 -28 -19 -6 -10 -17 -13 -34 -8 -21 5 -24
3 -18 -15 5 -17 2 -20 -19 -20 -16 0 -26 -6 -26 -15 0 -9 -9 -15 -25 -15 -18
0 -23 -4 -19 -15 5 -11 -1 -15 -20 -15 -16 0 -26 -6 -26 -15 0 -9 -9 -15 -25
-15 -18 0 -23 -4 -19 -15 5 -11 -1 -15 -20 -15 -17 0 -26 -5 -26 -16 0 -11 -6
-15 -20 -11 -13 3 -24 -1 -30 -14 -6 -10 -17 -19 -24 -19 -8 0 -16 -7 -20 -15
-3 -8 -12 -15 -21 -15 -16 0 -34 -12 -63 -42 -9 -10 -24 -18 -34 -18 -10 0
-18 -7 -18 -16 0 -8 -4 -12 -10 -9 -5 3 -17 -3 -27 -15 -10 -11 -25 -20 -35
-20 -10 0 -18 -7 -18 -15 0 -8 -9 -15 -19 -15 -10 0 -21 -7 -25 -15 -3 -8 -12
-15 -21 -15 -16 0 -34 -12 -63 -42 -9 -10 -22 -18 -30 -18 -14 0 -32 -13 -60
-42 -9 -10 -21 -18 -27 -18 -10 0 -53 -36 -127 -105 -20 -19 -41 -35 -46 -35
-5 0 -12 -7 -16 -15 -3 -8 -10 -15 -17 -15 -6 0 -28 -13 -49 -30 -21 -16 -41
-30 -45 -30 -4 0 -24 -12 -44 -27 -41 -32 -69 -50 -91 -60 -8 -3 -19 -12 -23
-20 -4 -7 -13 -13 -19 -13 -5 0 -27 -13 -48 -30 -21 -16 -45 -30 -53 -30 -8 0
-17 -7 -21 -15 -3 -8 -12 -15 -20 -15 -7 0 -16 -7 -20 -15 -3 -8 -14 -15 -25
-15 -10 0 -21 -7 -25 -15 -3 -8 -12 -15 -21 -15 -8 0 -15 -4 -15 -10 0 -5 -11
-12 -25 -16 -14 -3 -25 -10 -25 -14 0 -5 -21 -19 -47 -32 -27 -13 -50 -25 -53
-28 -3 -3 -37 -21 -77 -41 -83 -43 -234 -142 -272 -179 -45 -44 -118 -100
-130 -100 -6 0 -11 -5 -11 -10 0 -6 -11 -15 -25 -20 -14 -5 -25 -14 -25 -19 0
-5 -8 -11 -17 -15 -10 -3 -31 -15 -48 -26 -16 -11 -40 -24 -52 -30 -13 -5 -23
-14 -23 -19 0 -5 -8 -11 -17 -15 -10 -3 -31 -15 -48 -26 -16 -11 -36 -23 -42
-26 -22 -11 -14 -33 15 -40 38 -9 84 -36 101 -57 10 -14 21 -17 46 -13 33 7
43 11 150 71 33 18 83 45 110 59 28 15 64 35 80 46 17 10 53 31 80 45 28 14
64 34 80 45 17 10 46 27 65 37 62 34 114 64 145 84 17 10 39 23 50 29 11 6 34
19 50 30 17 11 42 25 58 31 15 6 27 15 27 20 0 5 6 9 14 9 8 0 21 6 28 13 19
17 49 35 78 48 13 5 27 13 30 17 6 8 36 27 65 42 11 6 32 18 47 28 31 20 163
103 187 117 9 6 70 46 135 90 65 44 129 86 142 93 13 7 24 17 24 23 0 5 5 9
11 9 11 0 304 220 355 267 17 15 66 59 110 98 74 65 185 169 294 275 40 39
113 104 235 207 69 59 375 284 433 318 9 6 33 22 53 38 20 15 40 27 44 27 4 0
24 14 45 30 21 17 41 30 44 30 3 0 34 19 69 43 34 24 69 46 77 50 8 4 29 16
45 27 17 11 37 23 45 27 8 4 33 19 55 34 40 27 86 53 172 97 36 19 68 14 93
-13 26 -28 93 -61 215 -107 44 -17 109 -41 145 -55 36 -13 88 -33 115 -43 28
-10 129 -48 225 -85 96 -37 209 -78 250 -92 41 -13 79 -28 85 -32 5 -4 37 -17
70 -30 33 -12 76 -29 95 -36 127 -49 171 -65 215 -80 28 -9 64 -23 80 -30 60
-26 137 -47 156 -42 30 8 60 -24 70 -73 15 -79 11 -301 -6 -334 -8 -15 -15
-49 -15 -75 0 -26 -7 -56 -15 -67 -8 -10 -15 -30 -15 -44 0 -14 -7 -38 -15
-54 -8 -15 -15 -33 -15 -38 0 -11 -23 -66 -46 -111 -8 -16 -14 -34 -14 -42 0
-7 -7 -18 -15 -25 -8 -7 -15 -20 -15 -30 0 -10 -7 -23 -15 -30 -8 -7 -15 -19
-15 -27 0 -14 -39 -75 -52 -81 -5 -2 -8 -8 -8 -13 0 -9 -63 -103 -84 -125 -6
-6 -18 -22 -26 -34 -87 -129 -402 -444 -557 -558 -35 -25 -63 -49 -63 -54 0
-4 -5 -8 -11 -8 -6 0 -36 -19 -67 -43 -62 -46 -89 -63 -112 -74 -8 -4 -21 -13
-28 -20 -7 -7 -21 -13 -29 -13 -18 0 4 22 142 144 253 223 560 523 610 595 22
32 29 53 28 83 -2 36 -9 48 -67 103 -42 39 -81 66 -106 74 -23 7 -71 28 -108
46 -37 19 -70 35 -75 35 -4 0 -35 17 -70 38 -101 61 -146 75 -240 70 -60 -2
-94 -9 -127 -26 -39 -19 -196 -142 -295 -231 -17 -15 -38 -32 -47 -37 -13 -8
-132 -114 -236 -211 -19 -18 -38 -33 -42 -33 -9 0 -84 -72 -96 -92 -5 -7 -19
-18 -31 -23 -34 -15 -142 -146 -153 -185 -13 -49 2 -99 44 -142 31 -32 164
-118 183 -118 5 0 49 -20 98 -45 50 -25 97 -45 106 -45 9 0 22 -7 29 -15 7 -8
19 -15 26 -15 8 0 22 -4 32 -9 64 -32 121 -42 201 -33 45 4 84 5 86 2 4 -6
-64 -60 -107 -85 -9 -5 -60 -36 -111 -67 -52 -31 -123 -72 -158 -90 -35 -18
-66 -35 -69 -38 -10 -11 -337 -170 -348 -170 -7 0 -12 -4 -12 -10 0 -5 -5 -10
-12 -10 -6 0 -41 -14 -77 -31 -63 -29 -88 -40 -166 -73 -20 -9 -51 -22 -70
-30 -88 -38 -112 -49 -138 -62 -16 -8 -33 -14 -39 -14 -11 0 -66 -23 -111 -46
-16 -8 -36 -14 -46 -14 -9 0 -26 -7 -37 -15 -10 -8 -28 -15 -40 -15 -11 0 -29
-7 -40 -15 -10 -8 -28 -15 -40 -15 -11 0 -29 -7 -40 -15 -10 -8 -30 -15 -44
-15 -14 0 -34 -6 -45 -14 -11 -7 -31 -16 -45 -19 -34 -7 -111 -35 -132 -47
-10 -6 -26 -10 -35 -10 -10 0 -31 -7 -47 -15 -15 -8 -38 -15 -50 -15 -12 0
-31 -7 -42 -15 -10 -8 -32 -15 -47 -15 -32 0 -107 -36 -107 -50 0 -6 13 -10
29 -10 17 0 33 -5 36 -10 3 -6 16 -10 27 -10 11 0 26 -7 33 -17 15 -21 35 -9
28 17 -4 13 1 22 13 26 11 3 33 11 49 19 17 8 84 32 150 54 66 22 174 61 240
87 66 25 145 55 175 65 30 11 96 37 145 58 50 22 144 63 210 91 132 56 183 80
425 199 192 95 376 194 512 276 9 5 72 41 140 79 68 39 144 85 170 103 26 18
52 33 56 33 5 0 17 9 28 21 17 19 84 59 99 59 3 0 5 -7 5 -15 0 -8 -7 -15 -15
-15 -8 0 -15 -7 -15 -15 0 -22 12 -18 39 11 20 21 22 27 10 34 -11 7 -11 12
-1 22 9 9 12 9 12 -5 0 -25 13 -21 40 13 14 16 31 29 38 30 6 0 12 7 12 15 0
8 7 15 15 15 8 0 15 7 15 15 0 8 4 15 9 15 15 0 601 582 595 591 -9 15 -21 10
-27 -12 -3 -12 -10 -18 -17 -14 -8 5 -7 13 3 28 7 12 37 63 66 112 29 50 57
97 62 105 5 8 25 49 45 90 20 41 42 86 49 100 11 21 48 129 86 247 9 31 22 93
39 198 5 28 9 91 9 141 1 114 10 130 74 121 25 -4 65 -15 89 -26 23 -11 68
-28 98 -39 138 -49 287 -107 308 -120 12 -8 22 -23 22 -33 0 -24 2 -24 56 6
25 14 49 25 54 25 18 0 10 -25 -15 -52 -14 -15 -25 -32 -25 -38 0 -5 -7 -10
-15 -10 -8 0 -15 -7 -15 -15 0 -8 -7 -15 -15 -15 -8 0 -15 -7 -15 -15 0 -8 -7
-15 -15 -15 -8 0 -15 -7 -15 -15 0 -8 -7 -15 -15 -15 -8 0 -15 -7 -15 -15 0
-8 -7 -15 -15 -15 -8 0 -15 -7 -15 -15 0 -8 -7 -15 -15 -15 -8 0 -15 -7 -15
-15 0 -8 -7 -15 -15 -15 -8 0 -15 -7 -15 -15 0 -8 -7 -15 -15 -15 -8 0 -15 -7
-15 -15 0 -8 -7 -15 -15 -15 -8 0 -15 -7 -15 -15 0 -8 -4 -15 -9 -15 -13 0
-201 -188 -201 -201 0 -5 -4 -9 -9 -9 -5 0 -45 -35 -89 -77 -43 -43 -98 -95
-121 -115 -23 -21 -40 -42 -36 -48 3 -5 -1 -10 -9 -10 -20 0 -81 -60 -81 -80
0 -9 -8 -14 -19 -12 -14 3 -16 -1 -11 -17 6 -21 -9 -29 -20 -11 -4 6 -11 8
-16 4 -6 -4 -6 -11 2 -20 15 -18 4 -31 -14 -16 -18 15 -30 3 -15 -15 15 -18 2
-29 -16 -14 -9 8 -16 8 -20 2 -4 -5 1 -14 10 -19 12 -7 13 -11 4 -17 -7 -4
-16 -2 -20 5 -4 7 -13 9 -19 6 -16 -10 -14 -24 5 -28 17 -3 -48 -69 -1429
-1455 -462 -462 -850 -846 -863 -854 -28 -15 -34 -11 -37 27 -1 15 -8 29 -16
32 -13 4 -12 -37 4 -128 4 -19 2 -46 -3 -60 l-10 -25 -12 28 c-16 32 -40 35
-65 7 -26 -29 -43 -25 -131 29 -260 160 -1043 631 -1067 642 -22 10 -111 69
-133 88 -6 5 -35 21 -65 36 -29 15 -74 41 -100 59 -86 56 -163 104 -204 126
-22 11 -63 35 -92 53 -166 103 -981 590 -1064 637 -60 34 -181 104 -262 152
-21 13 -60 37 -85 54 -26 16 -63 36 -82 44 -50 20 -109 58 -152 99 -31 29 -38
42 -38 73 0 27 4 38 15 38 8 0 15 3 15 6 0 10 -50 54 -60 54 -5 0 -14 9 -20
20 -6 11 -19 20 -28 20 -16 0 -19 -16 -29 -122 -7 -90 -7 -126 1 -134 6 -7 38
-26 71 -44 33 -18 78 -45 100 -59 54 -35 76 -48 100 -61 11 -6 32 -18 47 -28
14 -9 160 -98 322 -197 163 -99 309 -188 324 -197 15 -10 36 -22 47 -28 11 -6
34 -19 50 -30 17 -11 39 -24 50 -30 11 -6 34 -19 50 -30 17 -11 39 -24 50 -30
11 -6 34 -19 50 -30 17 -10 40 -25 52 -32 22 -12 432 -259 463 -279 8 -5 24
-14 35 -19 11 -6 34 -19 50 -30 17 -11 39 -24 50 -30 11 -6 34 -19 50 -30 17
-11 39 -24 50 -30 11 -6 34 -19 50 -30 17 -11 39 -24 50 -30 11 -6 34 -19 50
-30 17 -11 39 -24 50 -30 11 -6 34 -19 50 -30 17 -11 38 -23 48 -26 9 -4 17
-10 17 -14 0 -5 10 -12 22 -16 12 -3 39 -19 61 -35 22 -16 46 -29 54 -29 7 0
13 -4 13 -9 0 -5 10 -13 22 -17 12 -3 39 -19 61 -35 22 -16 46 -29 52 -29 7 0
15 -7 19 -15 3 -8 12 -15 20 -15 8 0 43 -19 78 -43 35 -23 79 -51 98 -61 19
-10 54 -32 78 -48 24 -15 45 -28 49 -28 3 0 24 -13 47 -28 22 -15 48 -31 56
-35 8 -4 29 -16 45 -27 17 -11 39 -24 50 -30 11 -6 34 -19 50 -30 17 -11 39
-24 50 -30 11 -6 34 -19 50 -30 17 -11 39 -24 50 -30 11 -6 34 -19 50 -30 17
-11 39 -24 50 -30 11 -6 34 -19 50 -30 41 -27 76 -41 91 -38 15 4 322 307
2143 2120 l1354 1349 9 52 c4 29 5 84 2 122 -7 80 -30 115 -75 115 -14 0 -32
7 -39 15 -7 8 -24 15 -39 15 -14 0 -35 7 -45 15 -11 8 -30 15 -42 15 -12 0
-27 7 -34 15 -7 8 -24 15 -39 15 -14 0 -35 7 -45 15 -11 8 -29 15 -40 15 -12
0 -30 7 -40 15 -11 8 -30 15 -42 15 -12 0 -27 7 -34 15 -7 8 -24 15 -39 15
-14 0 -35 7 -45 15 -11 8 -29 15 -40 15 -12 0 -30 7 -40 15 -11 8 -30 15 -42
15 -12 0 -27 7 -34 15 -7 8 -24 15 -39 15 -14 0 -35 7 -45 15 -11 8 -29 15
-40 15 -12 0 -30 7 -40 15 -11 8 -29 15 -40 15 -12 0 -30 7 -40 15 -11 8 -29
15 -40 15 -12 0 -30 7 -40 15 -11 8 -29 15 -40 15 -12 0 -30 7 -40 15 -11 8
-29 15 -40 15 -12 0 -30 7 -40 15 -11 8 -29 15 -40 15 -12 0 -30 7 -40 15 -11
8 -29 15 -40 15 -12 0 -30 7 -40 15 -11 8 -30 15 -42 15 -12 0 -27 7 -34 15
-7 8 -24 15 -39 15 -14 0 -35 7 -45 15 -11 8 -29 15 -40 15 -12 0 -30 7 -40
15 -11 8 -29 15 -40 15 -12 0 -30 7 -40 15 -11 8 -29 15 -40 15 -12 0 -30 7
-40 15 -11 8 -29 15 -40 15 -12 0 -30 7 -40 15 -11 8 -29 15 -40 15 -12 0 -30
7 -40 15 -11 8 -29 15 -40 15 -12 0 -30 7 -40 15 -11 8 -29 15 -40 15 -12 0
-30 7 -40 15 -11 8 -29 15 -40 15 -12 0 -30 7 -40 15 -11 8 -32 15 -47 15 -14
0 -32 7 -39 15 -7 8 -22 15 -34 15 -12 0 -31 7 -42 15 -10 8 -29 15 -42 15
-13 0 -30 7 -38 15 -9 8 -28 15 -43 15 -16 0 -34 7 -41 15 -7 8 -22 15 -34 15
-12 0 -31 7 -42 15 -32 24 -96 18 -119 -11z m-1540 -1186 c-31 -33 -73 -75
-93 -92 -21 -17 -46 -39 -57 -48 -69 -58 -267 -213 -325 -253 -115 -81 -448
-298 -560 -365 -77 -46 -418 -245 -456 -266 -121 -67 -196 -107 -291 -155 -57
-28 -105 -54 -108 -59 -3 -5 -32 -22 -64 -38 -32 -16 -83 -45 -113 -65 -58
-39 -78 -45 -78 -24 0 12 202 152 251 173 15 7 30 17 33 23 4 6 13 11 21 11
25 0 352 225 384 264 16 19 20 22 356 246 138 91 313 201 390 245 77 43 231
139 343 214 112 75 240 159 285 186 45 28 93 58 107 68 46 32 33 -3 -25 -65z
m2431 -423 c16 -8 37 -15 46 -15 9 0 21 -6 25 -13 8 -14 37 -30 108 -62 22 -9
52 -24 67 -31 14 -8 33 -14 41 -14 8 0 20 -7 27 -15 7 -8 23 -15 35 -15 12 0
28 -7 35 -15 7 -8 19 -15 26 -15 28 0 94 -50 100 -76 9 -35 -2 -52 -76 -119
-67 -61 -474 -453 -634 -610 -50 -50 -103 -98 -118 -108 -35 -22 -154 -23
-195 -3 -15 8 -35 17 -43 20 -8 3 -22 10 -30 15 -8 5 -22 12 -30 15 -8 3 -22
10 -30 15 -8 5 -22 12 -30 15 -8 3 -22 10 -30 15 -8 5 -31 16 -50 24 -87 38
-176 80 -190 88 -8 5 -21 11 -27 14 -32 13 -40 16 -68 33 -16 10 -36 30 -43
45 -12 25 -7 77 7 77 4 0 20 13 37 28 16 15 49 43 74 62 25 19 52 41 61 49 38
36 76 68 119 101 25 19 52 41 61 49 9 9 37 34 64 56 107 89 143 119 199 168
32 29 71 61 86 72 15 11 33 27 42 35 14 14 73 64 128 109 20 16 40 20 101 21
49 0 87 -5 105 -15z m684 -390 c0 -8 -4 -15 -10 -15 -5 0 -10 7 -10 15 0 8 5
15 10 15 6 0 10 -7 10 -15z m-965 -755 c-3 -5 -13 -10 -21 -10 -8 0 -14 5 -14
10 0 6 9 10 21 10 11 0 17 -4 14 -10z"/>
<path d="M7040 2995 c-7 -8 -19 -15 -26 -15 -15 0 -71 -53 -91 -85 -26 -42
-63 -124 -63 -140 0 -8 -4 -23 -9 -33 -6 -9 -13 -38 -16 -64 -3 -26 -10 -50
-16 -53 -5 -4 -9 -23 -9 -44 0 -20 -7 -46 -15 -57 -8 -10 -15 -30 -15 -45 0
-14 -5 -30 -11 -36 -6 -6 -20 -31 -32 -56 -26 -52 -124 -167 -143 -167 -8 0
-14 -6 -14 -14 0 -9 7 -12 20 -9 11 3 20 8 20 12 0 3 13 12 28 19 48 21 162
194 162 246 0 13 7 26 15 30 9 3 15 19 15 41 0 20 5 45 11 56 6 11 14 41 19
67 23 135 89 249 179 309 33 22 57 43 54 47 -12 11 -50 6 -63 -9z"/>
<path d="M6404 4403 c-36 -32 -61 -49 -89 -62 -11 -5 -33 -21 -48 -35 -15 -14
-34 -26 -41 -26 -8 0 -16 -7 -20 -15 -3 -8 -12 -15 -21 -15 -8 0 -15 -5 -15
-10 0 -6 -11 -15 -25 -20 -14 -5 -25 -14 -25 -20 0 -5 -7 -10 -15 -10 -9 0
-29 -13 -45 -30 -16 -16 -35 -30 -42 -30 -8 0 -28 -13 -46 -30 -18 -16 -40
-30 -48 -30 -8 0 -17 -7 -20 -15 -4 -8 -12 -15 -19 -15 -7 0 -15 -7 -19 -15
-3 -8 -14 -15 -25 -15 -10 0 -21 -6 -24 -13 -3 -8 -22 -22 -42 -31 -20 -10
-39 -24 -42 -32 -3 -8 -10 -14 -15 -14 -6 0 -27 -13 -48 -30 -21 -16 -43 -30
-48 -30 -23 0 -20 -18 3 -22 16 -4 33 3 53 21 59 53 92 63 121 37 19 -17 71
-10 71 10 0 7 -14 14 -32 16 -40 4 -44 27 -8 45 35 17 61 35 79 56 8 9 21 17
29 17 7 0 15 7 18 15 7 18 42 11 60 -11 8 -10 21 -12 43 -8 40 8 41 34 2 34
-17 0 -32 4 -35 9 -10 16 5 41 25 41 10 0 23 9 29 20 6 11 17 20 24 20 8 0 16
7 20 15 3 8 11 15 18 15 8 0 28 14 46 30 18 17 40 30 48 30 8 0 17 7 20 15 4
8 12 15 20 15 8 0 14 5 14 10 0 6 10 15 23 20 33 15 61 33 70 48 4 6 16 12 26
12 10 0 24 7 31 15 11 14 14 13 25 -1 8 -12 20 -15 37 -11 18 5 33 1 52 -14
14 -11 33 -19 43 -17 47 8 5 -37 -132 -140 -82 -63 -151 -118 -153 -123 -2 -5
-9 -9 -16 -9 -6 0 -26 -13 -44 -30 -18 -16 -43 -30 -55 -30 -13 0 -30 -12 -42
-30 -11 -16 -25 -30 -31 -30 -7 0 -14 -7 -18 -15 -3 -8 -12 -15 -21 -15 -8 0
-15 -5 -15 -10 0 -6 -11 -15 -25 -20 -14 -5 -25 -14 -25 -20 0 -5 -16 -10 -36
-10 -30 0 -37 -4 -45 -30 -6 -16 -17 -30 -24 -30 -8 0 -18 -6 -22 -13 -4 -7
-28 -25 -52 -41 -37 -24 -47 -26 -68 -17 -13 6 -33 11 -43 11 -11 0 -20 7 -20
15 0 10 -10 15 -34 15 -21 0 -36 6 -40 15 -3 8 -12 15 -21 15 -8 0 -15 7 -15
15 0 8 -7 15 -15 15 -9 0 -18 -7 -21 -15 -4 -8 -13 -15 -20 -15 -8 0 -17 -7
-20 -15 -4 -8 -15 -15 -25 -15 -10 0 -19 -5 -19 -10 0 -6 -8 -14 -17 -17 -10
-4 -22 -11 -28 -15 -5 -5 -19 -15 -30 -23 -19 -14 -18 -14 12 -15 29 0 61 19
111 67 18 17 61 16 96 -2 15 -8 41 -15 57 -15 16 0 29 -4 29 -9 0 -5 9 -13 20
-16 28 -9 25 -29 -7 -51 -29 -18 -44 -30 -72 -54 -35 -32 -67 -43 -89 -31 -11
6 -29 11 -40 11 -11 0 -22 7 -26 15 -3 9 -18 15 -35 15 -16 0 -31 6 -35 15 -3
8 -12 15 -20 15 -7 0 -17 10 -20 23 -6 22 -6 22 -24 2 -21 -23 -50 -43 -74
-51 -10 -4 -18 -10 -18 -15 0 -5 -10 -14 -22 -19 -38 -17 -80 -45 -106 -72 -9
-10 -22 -18 -30 -18 -7 0 -15 -7 -18 -15 -4 -8 -13 -15 -20 -15 -8 0 -17 -7
-20 -15 -4 -8 -14 -15 -24 -15 -10 0 -20 -7 -24 -15 -3 -8 -12 -15 -21 -15 -8
0 -15 -4 -15 -10 0 -5 -7 -10 -15 -10 -8 0 -19 -9 -25 -20 -6 -11 -17 -20 -26
-20 -8 0 -17 -7 -20 -15 -4 -8 -13 -15 -20 -15 -8 0 -17 -7 -20 -15 -4 -8 -14
-15 -23 -15 -9 0 -29 -14 -45 -30 -16 -17 -35 -30 -43 -30 -7 0 -16 -7 -19
-15 -4 -8 -11 -15 -16 -15 -6 0 -27 -13 -48 -30 -21 -16 -43 -30 -49 -30 -5 0
-15 -9 -20 -19 -6 -10 -24 -24 -41 -29 -17 -6 -33 -18 -36 -27 -3 -8 -10 -15
-15 -15 -9 0 -68 -38 -79 -51 -3 -3 -13 -8 -22 -12 -10 -3 -18 -13 -18 -21 0
-7 -12 -17 -27 -20 -14 -4 -45 -23 -68 -42 -23 -19 -46 -34 -51 -34 -5 0 -23
-12 -40 -27 -16 -16 -47 -37 -68 -48 -21 -11 -40 -26 -43 -32 -3 -7 -12 -13
-19 -13 -8 0 -17 -7 -20 -15 -4 -8 -15 -15 -25 -15 -11 0 -22 -7 -25 -15 -4
-8 -12 -15 -19 -15 -7 0 -15 -6 -18 -12 -3 -7 -22 -22 -43 -33 -21 -11 -52
-32 -68 -47 -17 -16 -34 -28 -38 -28 -8 0 -121 -78 -150 -104 -10 -9 -24 -16
-32 -16 -8 0 -16 -7 -20 -15 -3 -8 -12 -15 -20 -15 -7 0 -16 -7 -20 -15 -3 -8
-10 -15 -17 -15 -6 0 -28 -13 -49 -30 -21 -17 -43 -30 -49 -30 -6 0 -11 -5
-11 -10 0 -6 -11 -15 -25 -20 -14 -5 -25 -14 -25 -20 0 -5 -7 -10 -15 -10 -7
0 -18 -6 -22 -12 -9 -15 -41 -36 -65 -44 -10 -4 -18 -10 -18 -15 0 -8 -40 -33
-72 -45 -10 -3 -18 -11 -18 -16 0 -15 43 -47 63 -48 21 0 22 13 2 30 -20 17
-19 30 3 30 29 0 78 28 120 68 60 58 85 66 127 42 20 -11 45 -20 57 -20 11 0
31 -11 43 -24 12 -13 31 -26 41 -28 25 -4 30 -34 7 -42 -34 -12 -73 -37 -73
-47 0 -5 -7 -9 -15 -9 -8 0 -15 -5 -15 -10 0 -6 -10 -15 -22 -20 -13 -6 -36
-19 -53 -29 -20 -12 -41 -17 -62 -13 -21 3 -33 0 -33 -7 0 -6 14 -11 30 -11
20 0 30 -5 30 -15 0 -8 11 -17 25 -21 14 -3 25 -10 25 -15 0 -5 11 -9 25 -9
15 0 25 -6 25 -15 0 -8 11 -17 25 -21 14 -3 25 -10 25 -15 0 -5 9 -9 20 -9 11
0 23 -7 26 -15 4 -8 17 -15 30 -15 13 0 33 -9 44 -20 11 -11 27 -20 35 -20 8
0 15 -4 15 -10 0 -5 9 -10 20 -10 11 0 20 5 20 10 0 6 -7 10 -15 10 -21 0 -30
27 -15 45 7 8 23 15 36 15 15 0 24 6 24 15 0 8 5 15 10 15 5 0 19 8 29 17 36
33 50 43 60 43 6 0 14 6 18 13 4 6 31 30 58 52 49 39 57 45 91 74 9 8 38 16
64 19 39 4 51 1 68 -18 13 -14 27 -20 40 -16 11 4 24 0 32 -9 7 -8 18 -15 25
-15 7 0 15 -7 19 -15 3 -8 15 -15 26 -15 32 0 26 -42 -10 -68 -16 -12 -33 -22
-37 -22 -5 0 -16 -8 -24 -17 -9 -10 -33 -31 -53 -48 -21 -16 -44 -36 -51 -42
-8 -7 -17 -13 -22 -13 -4 0 -21 -14 -37 -30 -16 -16 -37 -32 -47 -35 -11 -4
-19 -11 -19 -16 0 -5 -6 -9 -14 -9 -7 0 -19 -7 -26 -15 -7 -8 -23 -15 -36 -15
-35 0 -30 -29 6 -37 17 -3 30 -9 30 -14 0 -5 9 -9 20 -9 16 0 19 5 14 29 -5
24 -2 30 16 36 13 4 38 23 57 41 18 19 36 34 39 34 9 0 104 74 104 82 0 4 5 8
11 8 14 0 85 54 121 92 15 15 31 28 36 28 5 0 15 7 22 15 14 17 85 21 95 5 3
-5 16 -10 28 -10 13 0 30 -8 39 -17 30 -32 47 -43 68 -43 30 0 24 -23 -16 -58
-20 -18 -38 -32 -40 -32 -2 0 -20 -16 -40 -35 -19 -19 -39 -35 -42 -35 -4 0
-26 -18 -50 -40 -24 -22 -47 -40 -52 -40 -6 0 -10 -4 -10 -8 0 -11 -161 -129
-194 -142 -23 -9 -26 -13 -16 -25 7 -8 20 -15 30 -15 9 0 30 -13 46 -30 16
-16 36 -30 45 -30 9 0 19 -7 23 -15 3 -8 14 -15 24 -15 11 0 25 -7 32 -15 7
-8 17 -15 23 -15 6 0 19 -7 28 -16 25 -23 97 -24 114 -1 6 9 17 17 23 17 5 0
12 7 16 15 3 8 12 15 20 15 9 0 59 43 111 95 53 52 103 95 111 95 7 0 14 5 14
10 0 6 5 10 10 10 6 0 36 26 68 58 31 31 75 68 97 82 22 13 59 42 82 65 70 68
97 91 116 98 9 3 17 11 17 17 0 5 7 10 15 10 9 0 18 7 21 15 4 8 10 15 15 15
6 0 22 12 37 28 39 39 87 72 107 72 33 0 155 88 256 185 9 8 20 15 25 15 6 0
23 14 40 31 16 17 47 45 69 61 43 31 108 85 159 131 17 15 41 30 54 33 12 4
22 11 22 17 0 14 66 72 118 103 23 14 47 35 53 45 5 10 17 19 25 19 8 0 31 16
51 35 20 19 40 35 44 35 9 0 100 69 156 117 35 31 73 94 73 122 0 10 12 27 28
37 15 10 55 47 90 82 35 34 68 62 73 62 5 0 12 7 15 15 4 8 14 15 23 15 9 0
42 27 74 60 31 33 62 60 68 60 5 0 12 7 15 15 4 8 14 15 23 15 14 0 91 62 91
74 0 3 11 17 25 32 29 32 29 57 0 62 -11 3 -24 10 -28 18 -4 8 -17 14 -28 14
-11 0 -22 7 -25 15 -4 8 -18 15 -34 15 -15 0 -33 7 -40 15 -7 8 -22 15 -34 15
-15 1 -9 7 22 22 24 12 46 27 49 35 3 7 11 13 19 13 8 0 14 7 14 15 0 8 7 15
15 15 8 0 15 4 15 9 0 5 20 21 45 35 25 15 45 31 45 36 0 6 6 10 14 10 8 0 16
7 20 15 3 8 12 15 21 15 8 0 15 3 15 8 0 4 18 18 40 32 22 13 40 29 40 35 1 5
14 21 30 35 33 27 41 74 14 84 -24 9 -34 -2 -28 -33 5 -25 1 -31 -48 -61 -29
-18 -74 -53 -99 -79 -26 -25 -56 -53 -69 -61 -24 -16 -64 -49 -125 -104 -22
-20 -46 -36 -52 -36 -7 0 -13 -4 -13 -10 0 -16 -67 -12 -74 5 -3 8 -15 15 -26
15 -12 0 -28 7 -36 15 -9 8 -26 15 -40 15 -13 0 -24 5 -24 11 0 20 21 49 35
49 7 0 15 3 17 8 2 4 26 25 53 47 28 22 59 48 69 57 11 10 38 30 60 45 23 16
43 31 44 36 2 4 8 7 14 7 6 0 26 15 44 33 18 17 41 39 50 47 24 19 123 30 132
14 4 -6 22 -15 40 -19 28 -6 32 -4 32 14 0 14 -6 21 -18 21 -11 0 -33 7 -51
16 -19 9 -42 13 -57 10 -17 -5 -26 -2 -30 9 -4 8 -16 15 -29 15 -12 0 -34 9
-48 20 -14 11 -33 20 -42 20 -9 0 -23 7 -31 15 -10 9 -25 12 -44 8 -22 -4 -31
-1 -36 11 -4 10 -18 16 -39 16 -20 0 -35 6 -39 15 -3 10 -19 15 -46 15 -29 0
-40 4 -40 15 0 10 -11 15 -35 15 -22 0 -43 8 -55 20 -11 11 -27 20 -36 20 -8
0 -22 7 -30 15 -9 8 -24 15 -35 15 -11 0 -27 7 -36 16 -10 10 -25 13 -43 9
-20 -4 -29 -2 -33 9 -9 23 -29 20 -63 -11z m334 -120 c19 -3 36 -12 39 -19 3
-8 19 -14 39 -14 22 0 37 -6 40 -15 4 -8 18 -15 34 -15 15 0 33 -7 40 -15 7
-8 28 -15 46 -15 19 0 34 -4 34 -8 0 -4 17 -14 38 -21 20 -8 43 -18 50 -23 15
-13 16 -38 1 -38 -10 0 -32 -18 -90 -72 -11 -10 -22 -18 -27 -18 -4 0 -22 -13
-40 -30 -37 -34 -100 -42 -122 -15 -7 8 -25 15 -40 15 -16 0 -30 7 -34 15 -3
9 -18 15 -36 15 -18 0 -33 6 -36 15 -4 10 -20 15 -44 15 -24 0 -40 -5 -44 -15
-3 -9 -18 -15 -39 -15 -19 0 -40 7 -47 15 -7 8 -23 15 -35 15 -12 0 -28 7 -35
15 -7 8 -21 15 -31 15 -40 0 -25 40 21 55 11 3 20 11 20 16 0 5 7 9 15 9 9 0
18 7 21 15 4 8 11 15 16 15 11 0 86 55 103 75 19 23 70 45 90 39 11 -3 35 -8
53 -11z m-296 -266 c67 -36 97 -67 65 -67 -7 0 -28 -13 -47 -30 -38 -32 -77
-39 -86 -15 -7 18 -58 21 -52 3 3 -7 14 -14 26 -16 12 -2 22 -9 22 -17 0 -23
-12 -45 -24 -45 -7 0 -26 -13 -42 -30 -31 -32 -78 -40 -88 -15 -3 8 -14 15
-25 15 -11 0 -26 7 -35 15 -8 8 -26 15 -41 15 -34 0 -53 41 -23 52 10 4 33 21
51 38 35 32 97 43 97 16 0 -19 28 -28 51 -16 29 16 23 30 -15 30 -26 0 -35 5
-39 22 -7 25 -1 38 17 38 8 0 20 7 27 16 11 13 25 15 75 10 35 -4 73 -12 86
-19z m235 -31 c15 -8 48 -20 73 -27 56 -16 117 -69 80 -69 -6 0 -24 -13 -40
-30 -24 -24 -38 -30 -74 -30 -30 0 -46 5 -50 15 -3 9 -18 15 -35 15 -16 0 -31
6 -35 15 -3 9 -18 15 -36 15 -27 0 -30 3 -30 30 0 18 5 30 13 30 7 0 24 11 37
24 29 29 57 32 97 12z m-152 -116 c17 -11 37 -20 46 -20 9 0 19 -6 22 -13 3
-9 16 -12 34 -10 21 3 32 -3 45 -20 16 -24 16 -25 -15 -47 -18 -13 -36 -29
-40 -37 -12 -19 -113 -18 -121 2 -3 9 -19 15 -41 15 -24 0 -35 4 -35 15 0 10
-10 15 -31 15 -25 0 -30 3 -27 21 2 12 12 27 22 33 11 6 29 19 40 29 18 17 51
35 66 36 3 1 19 -8 35 -19z m-449 -59 c9 -10 24 -16 35 -14 10 3 31 -4 48 -16
16 -12 34 -21 40 -21 22 0 -5 -39 -51 -74 -51 -39 -106 -48 -128 -21 -7 8 -23
15 -35 15 -13 0 -25 7 -29 15 -3 8 -17 15 -31 15 -43 0 -30 33 31 78 62 46 95
52 120 23z m274 -61 c0 -5 16 -12 35 -16 19 -3 35 -10 35 -15 0 -5 11 -9 24
-9 28 0 86 -30 86 -45 -1 -5 -30 -31 -65 -57 -48 -36 -73 -48 -100 -48 -22 0
-38 6 -41 15 -4 8 -18 15 -34 15 -16 0 -30 7 -34 15 -3 9 -18 15 -35 15 -20 0
-34 7 -41 19 -15 29 -12 41 10 41 11 0 20 4 20 8 0 4 18 19 40 32 22 14 40 28
40 33 0 11 60 9 60 -3z m380 -35 c7 -9 22 -12 39 -9 20 4 30 1 34 -10 4 -9 13
-16 21 -16 13 0 36 -28 36 -43 0 -2 -27 -23 -60 -47 -33 -24 -60 -47 -60 -52
0 -15 -87 -9 -100 7 -7 8 -23 15 -35 15 -13 0 -25 7 -29 15 -3 8 -15 15 -26
15 -29 0 -26 38 4 50 14 5 35 18 48 29 60 51 74 60 94 61 12 0 27 -7 34 -15z
m-835 -35 c3 -5 19 -7 35 -3 19 3 30 1 30 -6 0 -6 11 -16 25 -21 14 -5 25 -14
25 -20 0 -5 7 -10 15 -10 8 0 15 -7 15 -15 0 -8 -5 -15 -11 -15 -13 0 -90 -59
-102 -77 -11 -18 -76 -17 -83 2 -6 14 -54 22 -54 9 0 -3 11 -15 25 -26 25 -19
34 -58 14 -58 -6 0 -36 -20 -68 -44 l-57 -44 -41 19 c-23 10 -45 24 -48 29 -3
6 -17 10 -30 10 -12 0 -25 7 -29 15 -3 8 -15 15 -26 15 -25 0 -28 38 -2 47 9
4 37 22 61 40 51 38 102 44 127 15 10 -12 24 -17 40 -14 31 6 32 32 1 32 -13
0 -34 11 -47 25 l-23 24 25 10 c13 5 38 21 55 35 64 54 105 62 128 26z m-477
-80 c2 -5 18 -10 37 -10 18 0 38 -7 45 -15 7 -8 19 -15 26 -15 34 0 -11 -56
-68 -86 -16 -8 -28 -18 -28 -22 0 -13 -57 -30 -71 -21 -8 5 -24 9 -35 9 -12 0
-24 7 -28 15 -3 9 -18 15 -35 15 -16 0 -31 6 -35 15 -3 8 -15 15 -26 15 -13 0
-20 7 -20 20 0 15 7 20 26 20 14 0 51 18 82 41 48 34 62 40 92 35 19 -3 36
-10 38 -16z m769 -6 c9 -8 25 -13 36 -10 20 5 127 -55 127 -71 0 -5 -19 -17
-41 -28 -23 -10 -44 -25 -46 -32 -3 -7 -11 -13 -18 -13 -7 0 -15 -7 -19 -15
-3 -9 -18 -15 -35 -15 -22 0 -30 -6 -35 -24 -3 -13 -21 -34 -41 -47 -19 -13
-35 -27 -35 -31 0 -9 -68 -48 -84 -48 -8 0 -19 7 -26 15 -7 8 -23 15 -35 15
-13 0 -25 7 -29 15 -3 8 -16 15 -29 15 -14 0 -30 7 -37 15 -7 8 -21 15 -32 15
-26 0 -20 31 8 45 11 5 31 22 45 36 13 14 38 30 54 36 36 12 93 -1 102 -22 3
-10 13 -13 29 -9 15 4 33 -1 53 -15 30 -22 61 -19 61 5 0 8 -10 14 -24 14 -13
0 -29 7 -36 15 -7 8 -24 15 -39 15 -14 1 -39 11 -54 24 l-29 23 34 24 c18 13
35 26 38 29 3 3 18 16 35 29 33 25 74 23 102 -5z m790 10 c3 -8 15 -14 27 -13
27 3 92 -36 99 -60 3 -12 -12 -31 -49 -62 -30 -24 -54 -47 -54 -51 0 -15 -78
-8 -84 7 -7 18 -70 21 -64 3 3 -7 15 -15 28 -18 12 -3 29 -14 36 -25 12 -18 8
-24 -37 -60 -27 -22 -56 -46 -63 -52 -21 -19 -95 -17 -102 2 -4 8 -17 15 -30
15 -14 0 -27 7 -30 15 -4 8 -18 15 -32 15 -28 0 -62 25 -62 47 0 7 8 13 18 13
17 0 90 53 105 77 12 20 61 16 87 -7 26 -23 34 -24 61 -9 25 13 15 29 -19 29
-26 0 -62 29 -62 50 0 6 9 10 19 10 11 0 41 20 68 45 41 38 54 44 91 45 30 0
44 -5 49 -16z m-459 -40 c13 -9 31 -13 42 -9 11 4 20 2 20 -4 0 -5 9 -13 20
-16 11 -4 32 -17 45 -29 l25 -23 -40 -28 c-22 -15 -40 -32 -40 -36 0 -5 -7 -9
-15 -9 -8 0 -15 -7 -15 -15 0 -22 -96 -21 -108 1 -5 9 -18 14 -31 12 -28 -4
-28 -22 0 -26 12 -2 30 -13 40 -25 16 -21 16 -23 -8 -44 -13 -13 -26 -23 -29
-23 -3 0 -18 -13 -34 -30 -24 -25 -37 -30 -75 -30 -31 0 -47 5 -51 15 -6 15
-39 21 -47 8 -3 -5 13 -19 34 -33 21 -13 39 -28 39 -32 0 -5 -21 -29 -47 -53
-29 -28 -43 -49 -37 -55 5 -5 28 8 59 37 27 26 63 49 80 53 21 4 31 12 33 28
2 12 7 22 11 22 8 0 63 43 99 78 28 27 67 28 89 2 12 -14 24 -18 41 -13 13 3
27 1 31 -4 3 -6 25 -20 49 -32 23 -12 42 -28 42 -35 0 -8 -17 -25 -37 -37 -21
-13 -47 -32 -58 -42 -41 -39 -65 -51 -78 -38 -6 6 -21 11 -33 11 -12 0 -24 7
-28 15 -3 8 -17 15 -30 15 -14 0 -29 7 -34 16 -10 18 -53 16 -59 -2 -2 -7 11
-17 29 -23 18 -7 49 -22 69 -36 23 -15 45 -22 58 -18 18 4 21 1 21 -24 0 -22
-7 -32 -35 -47 -19 -11 -57 -40 -84 -65 -27 -25 -71 -65 -98 -88 -26 -22 -60
-52 -74 -65 -84 -76 -109 -97 -154 -133 -27 -22 -68 -57 -90 -77 -22 -20 -61
-53 -87 -72 -26 -20 -64 -52 -85 -72 -21 -19 -57 -49 -80 -66 -24 -17 -43 -35
-43 -40 0 -4 -4 -8 -10 -8 -5 0 -18 -8 -28 -17 -39 -38 -99 -90 -147 -128 -27
-22 -54 -45 -60 -52 -5 -6 -17 -13 -25 -14 -19 -3 -66 16 -75 30 -3 6 -14 11
-25 11 -10 0 -20 7 -24 15 -3 8 -14 15 -24 15 -11 0 -25 7 -32 15 -7 8 -19 15
-27 15 -8 0 -21 6 -29 14 -7 8 -19 16 -26 19 -22 8 6 41 38 47 16 3 29 10 28
15 -1 6 11 19 26 30 15 11 38 32 51 46 13 14 32 28 42 32 9 3 17 13 17 22 0 8
8 15 18 15 18 0 102 67 102 82 0 17 -26 6 -54 -22 -16 -16 -37 -32 -47 -35
-11 -4 -19 -11 -19 -16 0 -15 -60 -10 -66 6 -4 9 -19 15 -35 15 -19 0 -29 5
-29 15 0 10 -10 15 -30 15 -16 0 -30 5 -30 10 0 6 -12 15 -26 20 -31 12 -25
23 39 66 23 16 48 35 55 42 21 19 79 15 100 -8 16 -17 24 -19 46 -11 32 13 34
31 4 31 -25 1 -68 32 -68 49 0 6 12 17 28 25 15 8 38 25 52 37 62 58 100 71
126 44 9 -8 24 -15 35 -15 10 0 19 -4 19 -10 0 -5 13 -10 28 -10 17 0 38 -10
51 -24 20 -21 21 -27 9 -45 -7 -12 -16 -21 -20 -21 -9 0 -88 -74 -88 -83 0 -4
7 -7 15 -7 8 0 15 5 15 10 0 6 7 10 15 10 7 0 18 6 22 13 4 7 30 31 57 52 28
22 62 51 77 65 39 36 72 60 82 60 5 0 21 12 37 28 66 65 99 92 110 92 6 0 29
17 51 37 28 26 36 40 29 47 -8 8 -15 7 -23 -4 -7 -8 -31 -30 -53 -48 -47 -36
-119 -46 -130 -17 -4 8 -18 15 -34 15 -16 0 -30 7 -34 15 -3 8 -16 15 -30 15
-19 0 -26 7 -31 30 -7 32 -37 42 -52 17 -15 -24 -91 -77 -111 -77 -13 0 -25
-11 -34 -30 -7 -16 -17 -30 -22 -30 -4 0 -25 -13 -45 -29 -55 -43 -81 -55 -94
-42 -6 6 -21 11 -34 11 -14 0 -23 6 -23 15 0 10 -10 15 -29 15 -16 0 -31 6
-35 15 -3 8 -15 15 -27 15 -26 0 -59 27 -59 47 0 7 6 13 14 13 7 0 24 10 38
23 71 64 105 78 130 54 21 -21 79 -47 105 -47 14 0 32 -9 41 -21 12 -13 23
-18 35 -13 25 9 16 28 -16 32 -15 2 -27 10 -27 18 0 9 -11 14 -30 14 -18 0
-33 6 -36 15 -4 8 -18 15 -34 15 -22 0 -29 5 -32 25 -6 29 -2 35 24 35 11 0
33 12 48 28 16 15 36 33 44 40 18 14 56 16 56 2 0 -5 6 -10 14 -10 8 0 24 -8
36 -18 14 -12 33 -17 52 -14 35 5 32 26 -5 30 -14 2 -31 10 -37 18 -7 8 -21
14 -31 14 -32 0 -21 16 44 68 102 80 98 78 151 53 25 -13 46 -27 46 -31 0 -5
16 -6 35 -3 20 3 35 1 35 -4 0 -5 11 -15 25 -21 17 -8 25 -20 25 -37 0 -18 5
-25 20 -25 11 0 20 5 20 10 0 6 5 10 11 10 6 0 28 14 49 30 44 35 47 35 71 14
12 -11 27 -14 44 -10 33 8 27 30 -8 34 -35 4 -34 27 1 49 15 10 36 26 47 36
11 10 34 27 51 38 29 18 33 18 63 3 32 -16 61 -13 61 6 0 6 -7 13 -15 15 -52
16 -51 15 -7 54 23 21 58 46 77 57 19 10 35 22 35 26 0 12 13 9 38 -8z m-1300
-114 c2 -5 17 -10 33 -10 17 0 43 -10 59 -22 l29 -21 -25 -24 c-14 -12 -29
-23 -33 -23 -5 0 -11 -7 -15 -15 -3 -8 -12 -15 -21 -15 -8 0 -15 -4 -15 -10 0
-15 -63 -39 -74 -29 -6 5 -20 9 -33 9 -13 0 -26 7 -29 15 -4 8 -18 15 -34 15
-15 0 -30 6 -33 14 -3 8 -16 16 -28 18 -38 5 -32 25 13 42 24 10 54 30 68 46
23 28 29 30 80 25 30 -2 56 -9 58 -15z m278 -35 c10 -8 29 -15 42 -15 12 0 22
-4 22 -10 0 -5 11 -10 24 -10 13 0 26 -7 30 -15 3 -8 15 -15 26 -15 11 0 20
-6 20 -13 0 -14 -35 -47 -50 -47 -6 0 -10 -4 -10 -9 0 -5 -16 -18 -36 -30 -42
-25 -102 -28 -110 -6 -4 9 -19 15 -35 15 -19 0 -29 5 -29 15 0 10 -10 15 -26
15 -27 0 -53 24 -54 48 0 6 9 12 21 12 11 0 26 6 33 13 8 6 24 19 36 27 12 8
29 20 38 27 22 16 34 16 58 -2z m-501 -105 c26 -11 56 -20 67 -20 11 0 31 -11
44 -25 l23 -25 -52 -41 c-29 -23 -53 -45 -55 -50 -2 -5 -28 -9 -57 -9 -38 0
-54 4 -59 15 -3 8 -14 15 -25 15 -11 0 -24 6 -28 14 -4 8 -19 16 -33 18 -19 2
-26 10 -28 32 -3 25 -1 28 20 23 17 -4 31 2 53 25 27 27 57 45 77 47 3 1 27
-8 53 -19z m323 -41 c14 -15 26 -18 46 -13 16 4 26 2 26 -5 0 -6 7 -11 15 -11
8 0 20 -9 27 -20 7 -11 18 -20 25 -20 23 0 24 -20 1 -29 -13 -5 -36 -21 -51
-35 -15 -14 -32 -26 -36 -26 -5 0 -11 -7 -15 -15 -3 -9 -19 -15 -41 -15 -22 0
-38 6 -41 15 -4 8 -16 15 -29 15 -13 0 -25 7 -29 15 -3 8 -16 15 -28 15 -24 1
-68 31 -68 47 0 5 15 17 33 28 17 10 34 22 37 25 8 11 83 50 97 50 7 0 21 -9
31 -21z m-524 -95 c4 -10 13 -13 25 -9 10 3 24 -1 31 -10 7 -8 18 -15 24 -15
6 -1 24 -12 41 -25 l29 -24 -27 -10 c-15 -6 -27 -15 -27 -21 0 -5 -6 -10 -13
-10 -7 0 -27 -13 -45 -30 -18 -16 -39 -30 -46 -30 -6 0 -17 -5 -24 -12 -9 -9
-15 -9 -24 0 -7 7 -20 12 -30 12 -10 0 -21 7 -24 15 -4 8 -16 15 -29 15 -13 0
-25 7 -29 15 -3 8 -14 15 -25 15 -11 0 -22 4 -25 9 -9 15 5 41 22 41 14 0 103
66 110 82 7 15 80 9 86 -8z m342 -49 c10 -8 31 -15 47 -15 15 0 27 -4 27 -10
0 -5 14 -16 30 -25 31 -16 42 -55 15 -55 -8 0 -15 -5 -15 -10 0 -6 -8 -14 -17
-17 -20 -8 -35 -19 -64 -48 -26 -25 -117 -26 -131 -1 -5 9 -20 16 -34 16 -13
0 -27 7 -30 15 -4 8 -17 15 -30 15 -33 0 -52 43 -22 48 11 2 33 17 49 33 16
16 32 29 37 29 5 0 19 9 32 20 27 24 78 26 106 5z m-565 -101 c8 -9 21 -13 35
-10 14 4 24 1 28 -9 3 -8 15 -15 26 -15 11 0 20 -6 20 -14 0 -7 9 -16 20 -19
25 -6 26 -23 3 -31 -42 -14 -107 -71 -98 -85 3 -6 19 -11 34 -11 16 0 34 -7
41 -15 7 -8 23 -15 36 -15 13 0 24 -4 24 -10 0 -5 14 -10 30 -10 17 0 30 -4
30 -8 0 -5 12 -14 26 -21 14 -6 24 -15 22 -21 -2 -5 -37 -36 -78 -69 -55 -45
-83 -61 -106 -61 -19 0 -34 6 -38 15 -3 8 -14 15 -24 15 -11 0 -25 7 -32 15
-7 8 -17 15 -23 15 -25 0 -87 36 -87 51 0 9 -2 18 -5 21 -9 9 -55 -15 -55 -28
0 -7 -9 -14 -20 -17 -11 -3 -20 -10 -20 -16 0 -14 33 -14 46 -1 11 11 71 -14
86 -35 4 -5 20 -9 35 -7 19 1 38 -7 61 -28 31 -29 43 -60 22 -60 -5 0 -18 -8
-29 -17 -72 -69 -86 -77 -130 -76 -29 1 -48 7 -53 17 -5 9 -20 16 -32 16 -13
0 -26 7 -30 15 -3 8 -16 15 -30 15 -13 0 -26 7 -30 15 -3 8 -12 15 -21 15 -24
0 -17 26 11 39 41 18 94 62 88 72 -3 5 -16 9 -30 9 -14 0 -27 7 -30 15 -4 8
-16 15 -29 15 -13 0 -25 7 -29 15 -3 8 -14 15 -24 15 -11 0 -25 7 -32 15 -7 8
-21 15 -31 15 -31 0 -22 30 14 46 56 26 72 37 122 82 19 17 60 15 76 -4 8 -10
21 -13 36 -9 13 3 23 1 23 -4 0 -5 12 -14 28 -19 61 -24 92 -72 46 -72 -9 0
-14 -6 -12 -12 6 -18 38 -23 38 -6 0 7 16 24 35 38 19 14 33 30 31 35 -1 6
-22 11 -47 13 -25 2 -47 10 -52 18 -4 8 -19 14 -31 14 -13 0 -26 7 -30 15 -3
8 -17 15 -31 15 -20 0 -25 5 -25 25 0 17 6 25 18 25 14 0 65 37 107 79 16 16
61 13 76 -5z m323 -55 c16 -13 33 -18 46 -14 11 4 20 2 20 -4 0 -6 11 -13 25
-17 14 -3 25 -12 25 -20 0 -8 10 -14 25 -14 14 0 25 -4 25 -10 0 -10 -36 -50
-45 -50 -6 0 -23 -13 -54 -41 -10 -8 -25 -18 -34 -22 -9 -3 -17 -11 -17 -17 0
-15 -36 -12 -50 5 -7 8 -21 15 -32 15 -10 0 -21 7 -24 15 -4 8 -18 15 -34 15
-16 0 -30 7 -34 15 -3 8 -17 15 -31 15 -21 0 -25 5 -25 31 0 25 3 29 18 25 11
-4 29 5 50 23 17 16 41 32 52 36 11 3 20 10 20 15 0 7 14 14 41 19 4 0 18 -8
33 -20z m889 0 c3 -12 10 -18 17 -14 14 8 118 -45 125 -64 3 -8 4 -14 3 -15
-17 -8 -106 -73 -116 -85 -16 -20 -102 -18 -118 4 -6 8 -23 15 -37 15 -13 0
-27 7 -31 15 -3 8 -17 15 -31 15 -45 0 -29 33 42 86 74 55 89 62 119 63 14 1
24 -7 27 -20z m-553 -89 c13 -11 31 -20 41 -20 10 0 21 -4 24 -10 3 -5 17 -10
30 -10 13 0 34 -10 48 -22 23 -20 24 -24 10 -45 -9 -13 -21 -23 -27 -23 -6 0
-23 -13 -36 -28 -14 -15 -32 -31 -40 -35 -8 -4 -23 -12 -32 -19 -14 -10 -20
-9 -36 5 -10 9 -26 17 -34 17 -9 0 -21 7 -28 15 -7 8 -20 15 -30 15 -10 0 -23
7 -30 15 -7 8 -21 15 -31 15 -20 0 -59 33 -59 50 0 6 7 10 17 10 15 0 51 24
102 69 30 27 81 27 111 1z m-211 -151 c12 -14 26 -19 38 -15 14 4 30 -4 56
-29 30 -29 41 -34 66 -29 17 4 31 2 31 -3 0 -15 -72 -83 -87 -83 -7 0 -16 -7
-19 -15 -4 -8 -13 -15 -20 -15 -8 0 -17 -7 -20 -15 -4 -8 -17 -15 -30 -15 -14
0 -27 7 -30 15 -4 8 -14 15 -24 15 -10 0 -23 7 -30 15 -7 8 -23 15 -35 15 -13
0 -25 7 -29 15 -3 8 -15 15 -26 15 -20 0 -60 32 -60 49 0 5 10 11 23 15 12 3
34 16 49 28 59 50 73 58 100 58 15 0 36 -9 47 -21z m-904 2 c9 -16 66 -41 91
-41 13 0 35 -11 49 -25 29 -30 33 -65 7 -65 -10 0 -32 -13 -49 -29 -17 -15
-38 -31 -47 -34 -9 -4 -16 -11 -16 -17 0 -16 -60 -12 -66 5 -4 8 -16 15 -29
15 -13 0 -25 7 -29 15 -3 8 -14 15 -24 15 -11 0 -25 7 -32 15 -7 8 -21 15 -31
15 -32 0 -21 30 16 46 19 8 35 18 35 23 0 5 10 11 23 15 12 3 31 17 42 30 20
26 49 33 60 17z m711 -155 c8 -9 24 -16 35 -16 10 0 19 -4 19 -10 0 -5 14 -10
30 -10 18 0 33 -6 36 -15 4 -8 17 -15 30 -15 13 0 24 -5 24 -11 0 -17 -20 -49
-31 -49 -10 0 -32 -18 -90 -72 -24 -22 -87 -24 -95 -3 -4 8 -16 15 -29 15 -13
0 -25 7 -29 15 -3 8 -16 15 -30 15 -13 0 -26 7 -30 15 -3 8 -15 15 -27 15 -22
0 -48 25 -49 48 0 6 11 12 25 12 14 0 25 4 25 9 0 5 17 20 38 32 20 13 43 30
51 37 18 17 75 10 97 -12z m-916 -1 c7 -8 19 -15 26 -15 8 0 14 -4 14 -10 0
-5 16 -10 36 -10 26 0 43 -7 60 -26 30 -32 30 -52 2 -63 -13 -5 -35 -20 -49
-33 -15 -14 -34 -28 -43 -31 -9 -4 -16 -11 -16 -17 0 -16 -67 -12 -74 5 -3 8
-15 15 -26 15 -11 0 -23 7 -26 15 -4 8 -17 15 -30 15 -14 0 -27 7 -30 15 -4 8
-15 15 -25 15 -33 0 -23 37 12 45 17 4 33 13 36 21 3 8 10 14 17 14 6 0 25 13
41 29 34 33 57 38 75 16z m1296 -91 c7 -6 24 -9 37 -7 16 3 33 -4 55 -25 40
-38 40 -53 -1 -75 -18 -10 -53 -36 -78 -58 -42 -38 -81 -50 -94 -29 -3 6 -15
10 -26 10 -11 0 -22 7 -25 15 -4 8 -18 15 -34 15 -16 0 -30 7 -34 15 -3 8 -17
15 -31 15 -21 0 -25 5 -25 30 0 23 3 28 16 23 10 -3 22 0 28 8 14 18 94 81
121 94 20 11 60 -3 91 -31z m-937 5 c11 -13 26 -19 35 -16 16 6 76 -22 76 -36
0 -4 11 -12 25 -17 27 -10 34 -30 10 -30 -7 0 -18 -6 -22 -13 -4 -7 -25 -23
-45 -36 -21 -12 -38 -26 -38 -29 0 -4 -14 -13 -31 -21 -25 -11 -36 -11 -50 -2
-10 6 -25 11 -33 11 -7 0 -19 7 -26 15 -7 8 -20 15 -30 15 -10 0 -23 6 -30 14
-6 8 -21 16 -32 18 -11 2 -27 13 -35 25 -14 21 -14 23 3 30 19 6 104 62 114
74 21 25 85 23 109 -2z m-567 -66 c18 -10 36 -22 40 -28 4 -5 20 -9 35 -7 31
2 83 -37 83 -62 0 -8 -10 -21 -22 -27 -12 -6 -31 -20 -42 -30 -54 -51 -91 -69
-129 -62 -20 3 -37 10 -37 15 0 4 -10 13 -22 18 -13 6 -31 14 -40 20 -10 5
-26 15 -35 20 -10 6 -28 14 -40 20 -34 14 -28 25 20 39 23 7 54 25 68 41 14
15 35 31 47 34 12 4 22 12 22 17 0 13 14 11 52 -8z m904 2 c9 -8 24 -15 34
-15 10 0 20 -7 24 -15 4 -10 14 -13 34 -9 21 4 31 2 35 -10 4 -9 13 -16 21
-16 15 0 36 -29 36 -49 0 -6 -7 -11 -15 -11 -9 0 -18 -7 -21 -15 -4 -8 -11
-15 -17 -15 -6 0 -26 -15 -45 -32 -28 -28 -39 -33 -79 -31 -30 1 -49 7 -55 17
-11 20 -48 21 -48 1 0 -8 8 -15 18 -15 17 0 52 -32 52 -48 0 -8 -68 -72 -75
-72 -2 0 -19 -13 -37 -30 -33 -31 -62 -38 -73 -19 -4 5 -17 14 -28 20 -12 5
-30 13 -39 19 -10 5 -26 15 -35 20 -10 6 -25 13 -33 16 -38 15 -80 39 -80 46
0 10 38 48 48 48 4 0 23 14 42 30 19 16 40 34 47 40 18 15 59 12 73 -5 7 -8
18 -15 25 -15 7 0 18 -7 25 -15 16 -19 55 -16 55 5 0 8 -9 16 -20 18 -11 2
-27 10 -35 17 -8 6 -23 15 -32 18 -16 6 -15 47 2 47 4 0 25 16 46 35 22 19 45
35 52 35 6 0 12 5 12 10 0 16 70 12 86 -5z m-558 -84 c38 -20 73 -35 105 -45
9 -3 17 -12 17 -21 0 -11 6 -14 25 -9 15 4 25 2 25 -5 0 -14 -36 -51 -50 -51
-5 0 -10 -4 -10 -9 0 -4 -19 -21 -42 -37 -24 -16 -44 -32 -46 -36 -6 -14 -60
-8 -66 7 -3 8 -15 15 -26 15 -11 0 -23 7 -26 15 -4 8 -14 15 -24 15 -10 0 -23
7 -30 15 -7 8 -23 15 -35 15 -22 0 -35 17 -35 46 0 8 5 14 11 14 10 0 97 57
109 71 19 22 55 22 98 0z m902 -6 c7 -8 21 -15 31 -15 10 0 21 -4 24 -10 3 -5
19 -10 36 -10 16 0 29 -4 29 -8 0 -5 12 -14 28 -21 l27 -13 -74 -69 c-68 -64
-77 -69 -118 -69 -30 0 -45 5 -49 15 -4 8 -17 15 -30 15 -14 0 -27 7 -30 15
-4 8 -16 15 -28 15 -23 1 -66 32 -66 48 0 6 9 14 20 17 11 4 37 22 58 41 20
19 45 37 55 40 9 3 17 10 17 15 0 15 56 10 70 -6z m239 -125 c4 0 18 -9 31
-20 13 -11 29 -20 37 -20 9 0 13 -15 13 -52 0 -28 3 -48 8 -44 4 4 7 22 7 39
0 26 5 33 23 35 13 2 25 -3 28 -12 3 -9 17 -16 30 -16 33 0 30 -23 -7 -57 -18
-15 -49 -45 -70 -66 -35 -37 -40 -38 -82 -32 -25 4 -48 13 -51 21 -3 8 -14 14
-24 14 -11 0 -24 6 -30 13 -6 6 -31 21 -56 32 -38 17 -46 24 -46 48 0 16 5 27
14 27 7 0 26 12 42 27 47 44 97 74 112 68 7 -3 17 -5 21 -5z m-1361 -15 c42
-30 134 -75 152 -75 27 0 32 -15 12 -38 -9 -11 -73 -62 -142 -113 -117 -88
-128 -94 -173 -94 -36 0 -51 5 -58 18 -6 9 -19 17 -29 17 -11 0 -20 4 -20 8 0
5 -22 18 -50 30 -27 12 -50 28 -50 35 0 21 22 37 53 37 15 0 26 4 23 9 -3 4
16 23 42 42 25 18 54 40 62 49 22 20 101 76 120 83 25 9 35 8 58 -8z m925 -35
c14 -11 33 -20 42 -20 25 0 115 -53 115 -67 0 -7 -7 -13 -15 -13 -9 0 -18 -7
-21 -15 -4 -8 -11 -15 -18 -15 -6 0 -33 -20 -60 -44 l-49 -44 -41 19 c-22 10
-42 23 -44 28 -2 6 -12 11 -22 11 -9 0 -23 7 -30 15 -7 8 -20 15 -29 15 -17 0
-51 33 -51 50 0 6 8 10 18 10 11 0 41 20 68 45 56 51 95 58 137 25z m230 -114
c18 -19 123 -76 140 -76 32 -1 79 -70 47 -70 -5 0 -37 -27 -70 -60 -54 -54
-62 -59 -92 -53 -18 3 -40 11 -48 18 -8 7 -22 15 -30 19 -8 3 -28 15 -45 26
-16 11 -39 24 -50 30 -31 15 -55 36 -55 48 0 6 15 19 33 28 17 9 34 20 37 23
20 25 93 81 104 81 8 0 21 -6 29 -14z m-180 -186 c14 -11 30 -20 36 -20 6 0
11 -4 11 -10 0 -5 11 -10 25 -10 13 0 28 -6 32 -12 4 -7 17 -18 27 -24 46 -25
43 -40 -19 -98 -33 -31 -66 -56 -72 -56 -7 0 -13 -4 -13 -10 0 -17 -80 -12
-86 5 -4 8 -15 15 -25 15 -11 0 -22 7 -25 15 -4 8 -14 15 -24 15 -10 0 -23 7
-30 15 -7 8 -20 15 -29 15 -10 0 -27 10 -39 23 l-22 24 53 36 c30 21 67 51 83
67 35 35 80 39 117 10z m-232 -177 c35 -26 67 -43 80 -43 6 0 22 -9 36 -20 14
-11 34 -20 44 -20 10 0 21 -10 25 -22 5 -16 0 -26 -17 -39 -13 -9 -34 -25 -46
-36 -12 -10 -37 -29 -54 -43 -18 -14 -44 -35 -57 -47 -34 -32 -65 -29 -132 12
-32 19 -61 35 -65 35 -3 0 -13 7 -21 15 -9 8 -23 15 -33 15 -10 0 -24 11 -31
25 -12 22 -11 27 6 40 10 8 29 15 42 15 13 0 22 6 22 15 0 8 4 15 8 15 5 0 33
23 62 50 59 55 90 63 131 33z"/>
<path d="M6616 3243 c-12 -12 -6 -33 9 -33 8 0 15 6 15 14 0 17 -14 28 -24 19z"/>
<path d="M5890 3164 c-25 -20 -46 -40 -48 -45 -6 -16 -79 -11 -86 6 -6 16 -46
21 -46 5 0 -5 11 -17 25 -26 13 -9 27 -24 30 -35 8 -25 35 -24 65 4 63 56 108
70 136 42 9 -8 24 -15 35 -15 28 0 95 -36 112 -60 13 -19 16 -19 46 -4 41 20
35 38 -13 42 -21 2 -40 10 -43 18 -3 8 -15 14 -28 14 -12 0 -28 7 -35 15 -7 8
-24 15 -37 15 -18 0 -28 8 -36 30 -6 17 -16 30 -22 29 -5 0 -30 -16 -55 -35z"/>
<path d="M6348 3083 c-9 -16 -32 -44 -50 -64 -67 -73 -90 -104 -119 -161 -16
-32 -38 -64 -49 -70 -21 -13 -27 -28 -11 -28 5 0 16 6 23 13 7 7 21 16 31 20
9 3 17 14 17 23 0 18 51 70 168 173 39 34 72 67 72 72 0 14 -38 49 -53 49 -7
0 -20 -12 -29 -27z"/>
<path d="M6010 2680 c0 -5 7 -10 15 -10 8 0 15 5 15 10 0 6 -7 10 -15 10 -8 0
-15 -4 -15 -10z"/>
<path d="M5478 2624 c-7 -6 40 -79 50 -78 4 0 20 6 35 12 35 15 30 36 -9 40
-16 2 -33 10 -37 18 -8 14 -29 19 -39 8z"/>
<path d="M5921 2609 c-13 -11 -21 -22 -18 -25 3 -4 20 5 37 20 17 14 26 26 18
26 -7 -1 -24 -10 -37 -21z"/>
<path d="M5821 2521 c-16 -12 -20 -20 -12 -25 6 -4 14 0 17 8 3 9 12 16 20 16
8 0 14 5 14 10 0 15 -12 12 -39 -9z"/>
<path d="M5754 2465 c-4 -8 -12 -15 -20 -15 -8 0 -14 -4 -14 -10 0 -16 10 -12
42 15 20 17 25 25 13 25 -8 0 -18 -7 -21 -15z"/>
<path d="M5655 2385 c-21 -19 -35 -38 -31 -42 4 -4 13 0 20 10 7 9 18 17 25
17 6 0 11 7 11 15 0 8 7 15 15 15 8 0 15 5 15 10 0 17 -14 11 -55 -25z"/>
<path d="M5572 2317 c-30 -21 -41 -37 -24 -37 12 1 67 49 61 54 -3 3 -19 -5
-37 -17z"/>
<path d="M5500 2262 c0 -15 -58 -42 -90 -42 -44 0 -34 -24 12 -28 30 -3 42 3
72 33 40 40 43 45 21 45 -8 0 -15 -4 -15 -8z"/>
<path d="M5335 2240 c-3 -6 1 -13 10 -16 19 -8 30 0 20 15 -8 14 -22 14 -30 1z"/>
<path d="M5355 3210 c-4 -6 -3 -16 3 -22 6 -6 12 -6 17 2 4 6 3 16 -3 22 -6 6
-12 6 -17 -2z"/>
<path d="M4724 2746 c-8 -22 3 -33 18 -18 9 9 9 15 0 24 -9 9 -13 7 -18 -6z"/>
<path d="M5808 2914 c-3 -5 -2 -20 2 -34 6 -21 8 -22 14 -8 8 18 -8 57 -16 42z"/>
<path d="M4872 2491 c2 -7 7 -12 11 -12 12 1 9 15 -3 20 -7 2 -11 -2 -8 -8z"/>
<path d="M5223 2425 c-15 -17 -17 -45 -3 -45 6 0 10 7 10 16 0 9 8 23 18 30
14 11 14 13 2 13 -8 0 -21 -6 -27 -14z"/>
<path d="M4304 2426 c-4 -10 -2 -22 4 -28 8 -8 13 -7 18 6 4 10 2 22 -4 28 -8
8 -13 7 -18 -6z"/>
<path d="M3840 2096 c-11 -25 -24 -48 -30 -51 -12 -7 -14 -35 -2 -35 4 0 15
14 24 30 9 17 24 30 33 30 10 0 15 10 15 29 0 47 -17 46 -40 -3z"/>
<path d="M3570 1995 c0 -8 8 -15 19 -15 10 0 24 -7 31 -15 7 -8 17 -15 23 -15
6 0 19 -8 30 -17 17 -16 20 -16 30 -2 7 8 21 21 32 27 20 11 20 11 -2 12 -12
0 -23 -5 -25 -10 -3 -10 -72 20 -92 40 -15 15 -46 12 -46 -5z"/>
<path d="M4786 2103 c-12 -12 -6 -33 9 -33 8 0 15 6 15 14 0 17 -14 28 -24 19z"/>
<path d="M4589 1563 c-13 -21 -28 -41 -33 -45 -16 -11 -54 -9 -75 4 -21 13
-56 4 -46 -12 3 -5 15 -10 25 -10 10 0 23 -7 28 -16 5 -9 22 -16 37 -16 16 0
34 7 40 16 7 9 17 16 24 16 6 0 11 9 11 20 0 11 7 23 15 26 16 7 21 54 6 54
-5 0 -20 -17 -32 -37z"/>
<path d="M6479 4314 c-11 -14 -10 -15 11 -12 13 1 25 9 28 16 5 17 -23 15 -39
-4z"/>
<path d="M5155 4135 c-60 -40 -86 -52 -104 -48 -21 5 -23 3 -18 -16 4 -16 0
-22 -19 -27 -13 -3 -24 -10 -24 -14 0 -4 -8 -10 -17 -14 -21 -7 -46 -22 -94
-58 -19 -15 -57 -32 -83 -39 -39 -10 -47 -15 -43 -30 3 -11 1 -19 -3 -19 -9 0
-56 -29 -146 -90 -23 -15 -58 -33 -79 -40 -20 -7 -39 -20 -42 -29 -2 -9 -23
-27 -46 -40 -23 -13 -81 -50 -129 -81 -48 -32 -103 -61 -123 -64 -24 -5 -35
-12 -35 -24 0 -10 -28 -34 -70 -60 -111 -69 -156 -112 -115 -112 19 0 18 -1
304 189 128 86 252 167 275 180 22 13 43 27 46 30 9 10 69 51 76 51 3 0 23 14
44 30 21 17 43 30 48 30 6 0 15 6 19 13 4 6 24 20 43 31 19 10 40 24 45 30 6
7 17 16 25 20 24 11 53 29 90 56 41 30 67 46 98 59 12 6 22 15 22 21 0 5 7 10
15 10 7 0 18 6 22 13 9 14 37 32 71 47 12 5 22 14 22 20 0 5 6 10 14 10 8 0
18 5 21 10 16 26 -38 4 -110 -45z"/>
<path d="M7213 4043 c-3 -10 -12 -22 -20 -26 -18 -11 -17 -27 2 -27 8 0 15 7
15 15 0 8 7 15 15 15 17 0 20 25 5 35 -6 3 -13 -2 -17 -12z"/>
<path d="M6112 4023 c4 -20 18 -26 37 -14 18 12 5 31 -20 31 -14 0 -19 -6 -17
-17z"/>
<path d="M1440 3891 c0 -17 5 -33 10 -36 6 -4 10 8 10 29 0 20 -4 36 -10 36
-5 0 -10 -13 -10 -29z"/>
<path d="M5880 3881 c0 -10 24 -21 46 -21 8 0 14 7 14 15 0 10 -10 15 -30 15
-16 0 -30 -4 -30 -9z"/>
<path d="M1477 3740 c-10 -38 -8 -130 3 -130 19 0 23 30 14 93 -8 50 -11 57
-17 37z"/>
<path d="M1497 3521 c-2 -21 -1 -69 4 -107 5 -38 13 -125 19 -194 6 -69 15
-138 20 -154 6 -16 10 -52 10 -80 0 -28 7 -82 15 -121 8 -38 15 -91 15 -117 0
-41 6 -81 25 -175 3 -12 15 -25 28 -28 12 -4 51 -20 86 -37 58 -26 65 -28 80
-14 10 9 22 16 28 16 6 0 18 11 27 25 16 24 16 25 -9 25 -14 0 -25 5 -25 10 0
23 -18 8 -23 -20 -4 -16 -11 -30 -16 -30 -9 0 -27 41 -33 75 -2 12 -10 19 -20
17 -34 -5 -74 98 -83 213 -10 127 -17 171 -31 202 -8 17 -17 67 -21 110 -3 43
-12 87 -19 98 -9 12 -14 47 -14 87 0 37 -7 82 -14 100 -8 18 -18 54 -21 80 -8
60 -21 69 -28 19z"/>
<path d="M3777 3270 c-14 -11 -30 -20 -36 -20 -6 0 -11 -5 -11 -10 0 -6 -10
-15 -22 -21 -31 -13 -57 -29 -98 -59 -37 -27 -66 -45 -90 -56 -8 -4 -19 -13
-23 -21 -4 -7 -17 -13 -27 -13 -11 0 -20 -4 -20 -9 0 -10 -38 -34 -72 -47 -10
-3 -18 -10 -18 -15 0 -5 -10 -14 -22 -19 -13 -6 -36 -19 -53 -30 -16 -11 -37
-23 -45 -26 -8 -4 -22 -13 -30 -20 -9 -7 -40 -26 -70 -42 -64 -34 -71 -47 -31
-55 17 -4 48 -22 70 -42 21 -20 41 -32 43 -28 6 14 95 83 107 83 6 0 11 5 11
10 0 6 10 15 23 21 34 15 69 36 76 46 8 11 42 32 64 39 9 4 17 10 17 15 0 5
10 14 23 20 30 13 56 29 97 59 41 30 67 46 98 59 12 6 22 15 22 20 0 5 8 11
18 15 9 3 31 15 47 26 17 11 38 23 48 26 9 4 17 10 17 14 0 4 11 11 25 14 14
4 25 10 25 14 0 11 -55 42 -73 42 -8 0 -20 7 -27 15 -17 20 -32 19 -63 -5z"/>
<path d="M7803 2575 c-23 -25 -47 -45 -53 -45 -5 0 -10 -7 -10 -15 0 -8 -7
-15 -15 -15 -8 0 -15 -7 -15 -15 0 -8 -7 -15 -15 -15 -8 0 -15 -7 -15 -15 0
-8 -7 -15 -15 -15 -8 0 -15 -7 -15 -15 0 -8 -7 -15 -15 -15 -8 0 -15 -7 -15
-15 0 -8 -7 -15 -15 -15 -8 0 -15 -7 -15 -15 0 -8 -7 -15 -15 -15 -8 0 -15 -7
-15 -15 0 -8 -7 -15 -15 -15 -8 0 -15 -7 -15 -15 0 -8 -7 -15 -15 -15 -8 0
-15 -5 -15 -11 0 -7 -8 -18 -17 -25 -10 -7 -14 -16 -10 -21 5 -4 14 0 21 10 7
9 18 17 25 17 6 0 11 5 11 10 0 13 37 50 50 50 6 0 10 7 10 15 0 8 7 15 15 15
8 0 15 7 15 15 0 8 7 15 15 15 8 0 15 7 15 15 0 8 7 15 15 15 8 0 15 7 15 15
0 8 7 15 15 15 8 0 15 7 15 15 0 8 7 15 15 15 8 0 15 7 15 15 0 8 7 15 15 15
8 0 15 7 15 15 0 8 7 15 15 15 8 0 15 7 15 15 0 8 7 15 15 15 8 0 15 7 15 15
0 8 7 15 15 15 8 0 15 7 15 15 0 24 -12 18 -57 -30z"/>
<path d="M2630 2533 c-8 -3 -19 -12 -23 -19 -4 -8 -14 -14 -21 -14 -8 0 -16
-7 -20 -15 -3 -8 -15 -15 -26 -15 -11 0 -20 -4 -20 -9 0 -10 -38 -34 -72 -47
-10 -3 -18 -10 -18 -15 0 -5 -10 -14 -22 -19 -13 -6 -36 -19 -53 -30 -16 -10
-49 -29 -72 -41 -46 -24 -47 -41 -5 -59 32 -13 64 -31 84 -47 10 -9 25 -3 68
28 30 21 62 42 70 46 8 3 31 18 50 32 48 36 72 51 92 57 9 3 19 12 22 20 3 8
15 14 26 14 11 0 20 4 20 10 0 5 21 19 48 31 26 12 49 23 51 25 7 6 -43 43
-59 44 -8 0 -24 7 -34 15 -20 15 -58 18 -86 8z"/>
<path d="M2022 2308 c6 -18 28 -21 28 -4 0 9 -7 16 -16 16 -9 0 -14 -5 -12
-12z"/>
<path d="M2065 2280 c-3 -5 -1 -10 5 -10 6 0 34 -25 63 -56 38 -41 74 -67 133
-95 45 -21 87 -39 94 -39 46 0 119 -41 196 -111 78 -71 116 -98 248 -173 28
-15 58 -34 66 -41 8 -7 60 -36 115 -65 55 -29 122 -68 150 -86 27 -19 54 -34
58 -34 5 0 39 -17 75 -39 37 -21 85 -49 108 -62 22 -13 87 -50 145 -83 57 -32
116 -67 130 -76 14 -10 54 -32 90 -49 35 -18 84 -45 109 -61 25 -16 56 -35 70
-41 14 -6 32 -15 40 -20 8 -5 60 -34 115 -66 55 -31 143 -82 195 -112 113 -66
144 -82 229 -116 75 -29 81 -30 81 -10 0 8 -7 15 -15 15 -8 0 -19 9 -25 20 -6
11 -16 20 -21 20 -6 0 -28 13 -48 28 -20 16 -43 32 -51 35 -8 4 -28 16 -45 27
-16 11 -39 24 -50 29 -11 5 -37 21 -58 35 -21 14 -40 26 -42 26 -2 0 -57 32
-122 71 -65 39 -127 75 -138 80 -11 5 -33 18 -50 29 -16 11 -39 24 -50 30 -11
6 -36 20 -55 31 -139 84 -348 207 -360 212 -8 4 -28 16 -45 27 -16 11 -36 23
-44 27 -8 3 -104 60 -213 125 -109 65 -201 118 -203 118 -2 0 -46 25 -97 56
-126 77 -214 124 -231 124 -8 0 -20 6 -26 14 -7 8 -20 12 -30 9 -9 -2 -23 3
-30 11 -8 9 -24 16 -37 16 -15 0 -24 6 -24 15 0 8 -9 15 -20 15 -10 0 -24 8
-29 19 -6 10 -25 26 -43 35 -57 30 -79 43 -91 55 -6 6 -19 11 -29 11 -10 0
-21 7 -24 15 -4 8 -14 15 -24 15 -10 0 -25 6 -32 13 -7 8 -26 17 -41 21 -15 3
-27 11 -27 16 0 13 -37 13 -45 0z"/>
<path d="M7445 2219 c-10 -15 3 -25 16 -12 7 7 7 13 1 17 -6 3 -14 1 -17 -5z"/>
<path d="M3506 2178 c-9 -12 -16 -28 -16 -34 0 -7 -7 -15 -16 -18 -8 -3 -12
-11 -9 -16 9 -14 55 30 55 53 0 9 7 17 15 17 8 0 15 5 15 10 0 18 -29 10 -44
-12z"/>
<path d="M3285 2150 c-3 -6 5 -14 18 -19 14 -6 28 -15 32 -20 3 -6 15 -11 25
-11 10 0 23 -7 28 -16 5 -9 18 -14 31 -12 30 4 27 22 -4 26 -14 2 -25 8 -25
13 0 5 -5 9 -11 9 -6 0 -22 9 -36 20 -28 22 -48 25 -58 10z"/>
<path d="M3260 2075 c0 -8 9 -15 20 -15 24 0 27 15 4 24 -22 9 -24 8 -24 -9z"/>
<path d="M3317 2054 c-13 -13 -7 -24 14 -24 11 0 19 5 17 12 -5 14 -22 21 -31
12z"/>
<path d="M4215 2050 c-3 -5 -4 -14 -1 -18 3 -5 -4 -23 -15 -40 -23 -39 -23
-42 -4 -42 8 0 15 3 15 8 0 4 14 16 30 27 16 11 30 25 30 30 -1 16 -48 46 -55
35z"/>
<path d="M4530 1931 c-11 -22 -20 -47 -20 -56 0 -8 -4 -15 -10 -15 -5 0 -10
-8 -10 -17 1 -17 1 -17 14 0 7 9 16 17 20 17 17 0 46 43 46 69 0 45 -17 46
-40 2z"/>
<path d="M4160 1918 c0 -19 2 -20 10 -8 13 19 13 30 0 30 -5 0 -10 -10 -10
-22z"/>
<path d="M3840 1840 c0 -5 7 -10 15 -10 8 0 15 5 15 10 0 6 -7 10 -15 10 -8 0
-15 -4 -15 -10z"/>
<path d="M3890 1820 c0 -6 8 -13 18 -17 9 -3 25 -13 34 -21 14 -12 25 -13 50
-5 l33 10 -42 7 c-23 4 -47 14 -54 22 -13 16 -39 19 -39 4z"/>
<path d="M3790 1776 c0 -7 23 -24 50 -37 28 -13 50 -27 50 -31 0 -5 11 -8 25
-8 31 0 33 16 3 26 -12 3 -28 13 -36 20 -7 8 -19 14 -26 14 -8 0 -19 7 -26 15
-16 19 -40 20 -40 1z"/>
<path d="M4162 1668 c3 -7 13 -15 22 -16 12 -3 17 1 14 10 -3 7 -13 15 -22 16
-12 3 -17 -1 -14 -10z"/>
<path d="M4210 1641 c0 -13 37 -24 50 -16 6 4 8 11 5 16 -8 12 -55 12 -55 0z"/>
<path d="M4057 1633 c-9 -9 12 -33 29 -33 8 0 14 -4 14 -9 0 -5 10 -13 23 -17
12 -3 29 -13 38 -20 9 -8 24 -12 33 -8 20 8 21 24 2 24 -8 0 -21 6 -28 13 -11
11 -93 57 -102 57 -1 0 -6 -3 -9 -7z"/>
<path d="M5450 405 c0 -9 5 -15 11 -13 6 2 11 8 11 13 0 5 -5 11 -11 13 -6 2
-11 -4 -11 -13z"/>
<path d="M5426 322 c6 -4 15 -20 21 -37 l10 -30 8 24 c5 18 3 28 -11 38 -10 7
-23 13 -28 13 -8 0 -7 -3 0 -8z"/>
</g>
</svg>
