<?xml version="1.0" standalone="no"?>
<!DOCTYPE svg PUBLIC "-//W3C//DTD SVG 20010904//EN"
 "http://www.w3.org/TR/2001/REC-SVG-20010904/DTD/svg10.dtd">
<svg version="1.0" xmlns="http://www.w3.org/2000/svg"
 width="300.000000pt" height="347.000000pt" viewBox="0 0 300.000000 347.000000"
 preserveAspectRatio="xMidYMid meet">
<metadata>
Created by potrace 1.10, written by Peter Selinger 2001-2011
</metadata>
<g transform="translate(0.000000,347.000000) scale(0.050000,-0.050000)"
fill="#000000" stroke="none">
<path d="M2690 6831 c-127 -43 -294 -108 -306 -120 -16 -17 8 -13 67 9 47 18
52 16 40 -14 -12 -32 -10 -32 24 0 55 50 196 95 221 70 13 -13 33 -13 61 2 22
12 61 21 87 20 34 -2 37 -5 11 -12 -20 -5 -30 -18 -24 -28 7 -10 5 -17 -5 -15
-34 8 -124 -28 -155 -62 -31 -34 -29 -37 18 -46 37 -7 51 -1 52 23 0 27 3 26
21 -4 18 -30 26 -32 53 -10 24 19 29 20 18 1 -11 -18 1 -25 41 -25 77 0 114
-59 73 -118 -16 -23 -23 -42 -16 -42 8 0 3 -13 -11 -30 -21 -25 -17 -30 29
-30 30 0 48 9 41 20 -7 11 -4 20 7 20 11 0 24 -11 30 -25 7 -18 10 -18 11 2 2
21 9 22 29 6 20 -17 35 -14 59 12 29 32 34 44 34 76 0 7 27 -8 60 -31 42 -30
60 -35 60 -16 1 19 6 18 21 -4 17 -26 23 -25 47 6 21 27 31 30 38 10 8 -19 11
-19 12 -1 2 17 16 19 51 5 51 -19 171 24 171 61 0 29 -122 9 -142 -23 -11 -17
-18 -19 -18 -5 0 51 24 84 55 72 20 -7 27 -4 18 11 -11 17 2 17 48 0 49 -17
67 -16 80 5 12 20 23 21 43 4 17 -14 38 -16 56 -5 42 26 62 4 48 -51 -9 -37
-4 -49 20 -49 18 0 32 -9 32 -19 0 -10 23 -43 50 -73 28 -30 48 -64 46 -76 -7
-40 25 -108 57 -121 29 -11 29 -16 -3 -51 -34 -38 -70 -37 -70 1 0 10 13 13
28 7 15 -6 34 -1 41 10 8 13 1 17 -16 10 -16 -6 -35 -1 -42 11 -7 11 -35 21
-62 21 -27 0 -49 8 -49 17 0 10 27 15 60 11 52 -6 57 -2 41 27 -10 19 -24 60
-30 90 -7 30 -21 55 -33 55 -11 0 -15 -9 -8 -21 31 -49 29 -143 -2 -131 -17 7
-36 12 -41 12 -5 0 -4 9 3 20 7 11 5 21 -4 22 -9 0 -32 4 -51 8 -47 9 -44 -15
6 -46 22 -14 35 -34 29 -45 -7 -11 4 -25 24 -33 65 -25 97 -67 65 -86 -15 -10
-36 -12 -46 -6 -11 7 -13 2 -4 -12 10 -17 3 -23 -20 -18 -33 6 -83 -97 -58
-121 15 -16 31 10 34 56 l4 43 33 -45 c34 -45 98 -68 98 -35 0 10 14 18 30 18
17 0 30 9 30 21 0 11 16 18 35 15 26 -4 38 12 47 64 7 39 14 58 15 44 2 -15
11 -21 22 -15 10 6 32 -8 49 -33 22 -31 25 -48 9 -58 -12 -7 -16 -24 -8 -36 7
-12 0 -22 -18 -22 -17 0 -31 11 -31 23 0 13 -5 18 -12 12 -7 -7 -5 -24 4 -39
29 -45 31 -100 3 -84 -18 10 -19 8 -3 -10 28 -31 89 -7 75 30 -6 15 -21 22
-32 15 -13 -8 -15 -4 -6 11 14 23 58 3 92 -42 35 -47 60 23 30 83 -23 43 -29
85 -20 127 11 56 9 60 -14 31 -25 -31 -30 -30 -67 7 l-40 41 45 -14 c35 -11
42 -7 33 18 -7 17 -20 26 -30 20 -10 -6 -18 -2 -18 10 0 11 10 21 22 21 13 0
18 18 12 41 -9 34 -6 37 18 17 19 -15 22 -31 9 -46 -22 -27 -2 -64 35 -63 14
1 33 13 42 28 13 21 19 20 29 -6 9 -23 5 -28 -12 -18 -17 10 -16 4 2 -19 33
-40 66 -26 49 20 -8 20 -5 28 8 20 12 -8 21 -49 20 -93 -1 -68 -6 -76 -32 -55
-19 15 -25 16 -16 1 8 -13 -3 -27 -25 -33 -28 -7 -35 -21 -27 -53 7 -28 22
-39 41 -32 24 9 26 6 8 -15 -28 -34 -10 -54 45 -54 33 -1 36 -4 13 -19 -16
-10 -36 -14 -45 -8 -9 5 -16 -1 -16 -14 0 -18 -7 -18 -27 -1 -17 13 -45 16
-70 7 l-42 -16 42 -26 c37 -24 41 -23 31 5 -7 18 -4 32 7 32 10 0 20 -25 22
-55 3 -52 2 -71 -10 -145 -10 -59 -44 -97 -83 -94 -23 2 -38 -7 -35 -21 3 -14
-4 -25 -15 -25 -11 0 -20 9 -20 20 0 11 -10 20 -22 20 -16 0 -15 -9 2 -30 29
-35 31 -34 -67 -40 -44 -2 -65 2 -51 11 28 17 -69 52 -117 42 -22 -4 -29 9
-23 50 1 7 -11 20 -25 29 -19 13 -20 17 -3 18 14 0 20 14 13 30 -6 17 -3 30 8
30 11 0 27 -29 37 -63 10 -35 30 -68 45 -73 21 -7 21 -1 2 31 -16 25 -18 50
-6 71 16 29 21 29 44 -9 14 -22 16 -35 4 -28 -11 7 -21 9 -21 3 0 -28 84 -54
109 -33 14 12 42 16 62 8 23 -9 31 -6 22 8 -8 12 -5 28 7 35 11 7 20 3 20 -9
0 -11 11 -21 24 -21 19 0 19 5 0 24 -30 30 -32 83 -2 65 14 -9 14 2 -2 31 -19
35 -28 39 -41 19 -9 -15 -12 -34 -7 -42 5 -8 -1 -20 -12 -27 -11 -7 -15 -21
-9 -31 6 -11 2 -19 -10 -19 -11 0 -21 9 -21 20 0 11 -9 20 -19 20 -11 0 -15
-16 -9 -35 8 -27 5 -26 -15 5 -36 56 -34 75 12 116 32 29 34 40 13 53 -15 9
-20 27 -12 41 8 13 -7 10 -34 -8 -27 -18 -56 -26 -64 -18 -8 8 -8 -1 -1 -20 8
-21 4 -34 -12 -34 -13 0 -35 -14 -47 -31 -21 -28 -30 -25 -80 21 -52 48 -60
50 -89 22 -24 -24 -25 -32 -5 -32 21 0 22 -6 3 -29 -14 -16 -19 -39 -12 -50 8
-12 1 -16 -18 -9 -17 7 -31 19 -31 27 0 8 -15 14 -33 14 -27 0 -27 -4 5 -28
21 -15 36 -36 33 -46 -3 -11 6 -19 20 -19 17 -1 15 -7 -5 -20 -16 -11 -39 -19
-50 -19 -11 0 -8 7 6 16 21 13 20 22 -5 42 -23 20 -31 20 -31 2 0 -42 -50 -10
-52 33 -1 22 -8 50 -15 62 -8 12 -3 28 10 36 14 9 18 6 9 -9 -10 -15 4 -23 41
-23 52 0 53 1 16 29 -35 26 -35 30 -5 30 24 1 31 12 22 36 -9 27 -6 30 13 12
28 -26 106 -12 89 16 -6 10 13 14 45 8 59 -11 167 21 167 50 0 9 5 30 12 47
11 29 6 29 -44 3 -57 -30 -135 -23 -183 14 -17 14 -25 12 -25 -6 0 -14 -5 -21
-10 -15 -19 18 13 76 34 64 11 -7 17 4 13 25 -9 44 -138 54 -152 11 -7 -19 6
-22 46 -12 40 10 51 7 40 -10 -8 -13 -9 -48 -2 -77 9 -36 19 -45 29 -28 12 19
21 18 41 -6 28 -33 31 -31 -79 -42 -27 -2 -59 -7 -70 -9 -11 -3 -36 -3 -55 -1
-19 2 -35 -10 -35 -26 0 -16 -13 -34 -30 -40 -16 -7 -30 -2 -30 10 0 12 -14
16 -31 9 -19 -7 -26 -3 -18 10 8 12 31 17 52 11 25 -6 36 -1 31 14 -4 12 -20
23 -36 23 -15 0 -44 16 -64 36 -29 29 -43 32 -65 13 -29 -24 -91 -13 -87 15 7
43 -6 59 -46 56 -24 -2 -48 -15 -53 -30 -5 -17 2 -22 23 -14 18 6 36 -1 42
-19 14 -37 -1 -67 -34 -67 -17 1 -17 5 2 17 18 12 10 23 -29 41 -46 21 -50 20
-30 -5 20 -23 19 -31 -1 -39 -19 -8 -19 -11 -2 -12 14 -1 20 -15 13 -32 -13
-33 23 -42 43 -10 7 12 21 15 31 9 11 -6 19 -3 19 8 0 11 20 15 45 9 36 -8 39
-5 15 12 -21 15 -22 21 -5 22 14 0 36 -22 48 -50 16 -33 45 -54 89 -62 44 -8
71 -27 80 -55 7 -24 23 -49 35 -57 13 -8 3 -13 -20 -11 -27 2 -39 13 -32 30 6
15 -2 24 -18 21 -15 -3 -25 5 -22 19 3 14 -8 25 -23 25 -16 0 -43 5 -60 12
-18 7 -32 3 -32 -8 0 -12 14 -25 30 -30 21 -7 20 -9 -5 -6 -25 2 -33 18 -30
55 5 46 -1 52 -52 47 -71 -6 -108 -26 -92 -51 27 -44 -29 -14 -59 31 -18 28
-46 50 -61 50 -16 0 -38 16 -50 35 -17 30 -23 31 -39 6 -40 -60 -83 11 -49 80
31 62 56 74 78 38 8 -14 22 -13 42 3 23 19 24 28 3 40 -14 9 -32 5 -40 -8 -25
-39 -20 22 5 69 18 32 27 35 51 15 16 -13 35 -18 42 -11 7 7 0 13 -16 13 -23
1 -23 4 2 20 25 16 23 19 -12 20 -23 0 -48 -7 -56 -15 -19 -18 -79 -19 -92 -2
-36 47 -116 39 -113 -11 3 -47 53 -96 53 -51 0 10 23 19 51 19 38 0 50 -9 45
-33 -8 -46 -56 -59 -56 -16 0 28 -5 30 -31 8 -17 -14 -26 -37 -21 -51 13 -34
-122 -134 -166 -123 -37 10 -118 -24 -121 -50 -2 -21 -5 -42 -10 -65 -3 -11
-6 -33 -8 -48 -4 -40 -30 -9 -34 40 -1 23 9 46 24 52 15 6 22 17 17 26 -12 19
119 100 161 100 16 0 29 9 29 20 0 11 13 20 28 20 15 0 33 14 40 32 21 54 13
55 -39 3 -60 -60 -96 -59 -165 7 -40 38 -46 40 -29 9 17 -31 14 -45 -12 -65
-28 -22 -25 -23 21 -7 45 16 52 14 43 -11 -7 -16 -16 -25 -22 -20 -5 6 -24 -5
-42 -23 -31 -30 -34 -29 -40 4 -4 19 3 45 15 57 29 29 28 60 -1 42 -14 -8 -18
-5 -10 8 8 12 -5 39 -28 61 -36 33 -38 42 -13 65 28 27 23 98 -8 98 -23 0 -59
-72 -44 -87 7 -7 2 -13 -12 -13 -13 0 -21 16 -18 35 4 24 -5 33 -29 29 -19 -3
-35 3 -35 14 0 11 22 15 49 11 54 -10 90 25 44 42 -18 8 -25 27 -17 55 9 36 1
32 -44 -21 -51 -59 -175 -99 -142 -45 7 12 21 15 31 9 11 -6 19 2 19 19 0 16
-10 36 -23 44 -15 9 -18 5 -8 -11 12 -18 5 -22 -21 -14 -29 9 -46 -5 -71 -55
-33 -65 -23 -119 22 -124 12 -2 31 -4 42 -5 29 -4 6 -38 -42 -64 -27 -14 -39
-14 -39 0 0 12 15 21 33 21 42 0 23 21 -26 29 -21 3 -35 19 -31 37 3 17 -10
34 -29 37 -31 6 -31 10 4 45 27 27 31 41 14 47 -14 5 -25 22 -25 38 0 17 -11
24 -25 17 -14 -7 0 8 30 34 30 26 55 56 55 67 0 10 -9 6 -20 -11 -17 -26 -19
-26 -20 3 0 17 13 43 29 56 16 13 23 38 17 55 -21 53 -166 -176 -166 -260 0
-47 -53 -81 -67 -45 -6 17 -4 31 5 31 10 0 23 14 29 30 11 27 7 27 -34 0 -36
-23 -45 -45 -40 -101 4 -50 -2 -69 -19 -63 -13 5 -22 18 -20 30 3 11 10 50 16
86 11 63 75 149 186 251 63 58 23 42 -71 -29 -37 -28 -93 -106 -130 -181 -36
-73 -81 -149 -100 -168 -19 -19 -35 -49 -35 -66 0 -17 -8 -26 -18 -20 -9 6
-38 -37 -63 -94 -53 -121 -78 -335 -39 -335 14 0 19 -13 12 -32 -7 -19 11 -54
49 -92 l62 -62 48 72 c58 84 49 118 -43 172 -67 40 -87 88 -48 112 12 7 15 23
9 36 -7 13 2 7 19 -14 17 -21 26 -46 20 -55 -6 -10 -4 -17 6 -15 38 6 54 -4
30 -19 -21 -13 -20 -22 5 -42 25 -21 31 -21 31 1 0 15 14 6 32 -19 25 -36 37
-40 60 -21 16 13 35 17 43 10 8 -8 1 -23 -16 -33 -38 -24 -15 -24 51 1 29 11
47 12 41 2 -20 -32 45 -40 71 -9 21 24 20 33 -3 48 -48 31 11 21 77 -12 105
-52 201 -60 217 -18 8 22 5 40 -9 44 -13 5 -24 18 -24 29 0 11 31 -3 69 -32
37 -28 77 -52 89 -52 11 0 52 -19 91 -42 116 -68 81 -28 -62 72 -77 53 -148
89 -168 84 -19 -5 -49 8 -66 28 -18 21 -26 38 -18 39 8 0 -6 18 -32 40 -29 23
-37 39 -20 39 16 0 19 6 7 15 -39 29 -30 79 19 101 36 16 51 16 58 -2 7 -18
10 -17 11 2 3 36 -59 55 -78 24 -8 -14 -26 -19 -38 -11 -12 7 -22 4 -22 -8 0
-11 -11 -21 -25 -20 -35 1 63 79 98 79 17 0 23 10 15 23 -10 16 -3 19 21 10
34 -13 34 -11 1 39 -19 29 -23 46 -10 38 18 -11 21 -2 11 32 -9 32 -8 39 5 21
10 -14 26 -26 36 -25 10 1 18 -18 18 -42 1 -24 13 -47 28 -52 15 -5 22 -1 16
10 -7 11 0 19 16 19 15 0 27 -5 27 -11 -4 -37 5 -67 16 -55 7 7 27 -6 43 -29
23 -33 24 -46 3 -65 -19 -18 -21 -16 -9 7 11 21 9 24 -5 10 -23 -21 -32 -59
-27 -110 2 -20 13 -13 32 20 33 58 41 37 8 -23 -16 -30 -16 -47 0 -63 26 -26
29 -54 5 -54 -9 0 -28 23 -43 50 -18 33 -32 43 -41 28 -8 -13 -25 -17 -37 -9
-12 7 -22 0 -22 -18 0 -17 14 -31 30 -31 17 0 30 -9 30 -20 0 -12 25 -31 55
-43 75 -30 189 -39 173 -14 -7 11 16 6 50 -12 35 -18 59 -40 53 -50 -13 -20
45 -46 69 -31 24 15 11 71 -21 91 -15 9 -23 22 -16 28 6 6 37 -8 69 -32 32
-24 47 -32 33 -16 -14 15 -25 44 -25 65 0 21 11 33 25 28 14 -5 23 -19 20 -31
-6 -29 87 -90 113 -74 10 6 25 2 32 -9 7 -11 22 -15 34 -7 34 21 105 20 120
-1 8 -13 31 -11 61 5 53 29 91 25 131 -12 15 -14 41 -25 58 -25 17 0 59 -17
94 -37 34 -21 107 -49 162 -62 106 -27 221 -70 270 -103 17 -10 46 -24 65 -31
19 -6 35 -18 35 -26 0 -9 40 -41 89 -72 49 -31 94 -69 101 -85 37 -99 200
-284 239 -272 40 12 40 11 3 -17 -26 -20 -31 -33 -15 -43 13 -8 23 -31 23 -51
0 -20 14 -47 30 -61 27 -23 27 -28 -1 -48 -32 -24 -33 -1498 0 -1550 7 -12 5
-37 -6 -55 -11 -20 -11 -58 -1 -94 11 -38 9 -69 -4 -86 -12 -14 -17 -33 -11
-42 6 -10 -1 -53 -16 -96 -19 -55 -21 -87 -7 -104 15 -18 13 -25 -7 -25 -28 0
-36 -30 -41 -144 -1 -32 -10 -49 -22 -42 -13 7 -16 0 -9 -19 7 -18 0 -36 -16
-43 -16 -6 -29 -27 -29 -47 0 -20 -17 -48 -37 -63 -22 -16 -35 -46 -32 -74 3
-27 -3 -43 -13 -37 -10 6 -18 -16 -18 -49 0 -56 -70 -126 -100 -100 -5 4 -13
-23 -17 -61 -5 -62 -63 -179 -63 -129 0 12 -14 21 -31 21 -19 0 -26 -11 -20
-28 16 -42 -26 -185 -58 -197 -15 -6 -38 -37 -52 -69 -13 -33 -32 -59 -41 -59
-30 0 -20 -44 17 -72 19 -15 25 -27 12 -27 -12 -1 -33 13 -47 29 -14 17 -34
30 -45 30 -11 0 -9 -13 5 -30 20 -25 19 -30 -8 -30 -59 0 -60 -58 -2 -112 30
-27 48 -56 41 -64 -7 -7 -19 -3 -27 9 -42 64 -153 70 -114 6 8 -13 -6 -17 -39
-11 -34 6 -57 0 -64 -18 -6 -15 -23 -23 -38 -17 -17 7 -32 -8 -40 -41 -7 -29
-22 -52 -33 -52 -10 0 -13 -20 -6 -45 11 -40 9 -41 -11 -9 -12 20 -17 51 -10
69 11 27 6 27 -28 -4 -23 -21 -41 -51 -41 -68 0 -24 -6 -22 -29 8 -29 37 -30
38 -30 2 -1 -32 -6 -34 -31 -13 -26 22 -29 20 -19 -12 10 -29 8 -31 -7 -10
-11 16 -17 58 -12 95 7 52 2 63 -22 54 -16 -6 -31 -26 -31 -44 -1 -19 -15 -6
-33 31 -51 102 -126 111 -126 15 0 -57 -49 -67 -69 -14 -12 31 -17 29 -42 -15
l-28 -50 -1 50 c0 28 -9 64 -20 80 -14 21 -16 11 -7 -35 9 -52 5 -65 -20 -65
-18 0 -34 -9 -35 -20 -2 -11 -4 -28 -5 -38 -6 -40 -31 -43 -51 -6 -11 21 -15
44 -8 51 7 7 2 13 -12 13 -13 0 -18 10 -10 23 9 15 5 18 -9 9 -13 -8 -18 -25
-12 -38 7 -13 -2 -7 -20 15 -27 34 -31 34 -31 5 0 -19 -13 -34 -28 -34 -15 0
-33 -13 -39 -30 -7 -16 -21 -30 -33 -30 -12 0 -6 22 12 50 21 33 25 50 9 50
-13 0 -18 9 -11 20 26 42 -11 17 -79 -53 l-71 -73 0 66 c0 37 6 61 13 54 7 -8
25 -4 40 9 34 27 37 105 4 85 -16 -10 -20 -4 -11 20 16 40 -132 28 -184 -15
-23 -18 -26 -17 -19 7 6 17 28 33 49 37 97 18 84 91 -31 161 -43 27 -83 67
-89 91 -9 36 -134 219 -270 393 -22 29 -44 74 -49 100 -18 90 -89 223 -141
261 -9 7 -11 23 -3 35 7 12 0 36 -16 52 -16 16 -33 39 -36 50 -5 14 -40 14
-107 2 -114 -21 -142 -13 -61 18 43 16 53 30 45 62 -11 40 -10 40 28 7 59 -55
67 -21 22 95 -43 108 -97 343 -113 486 -7 67 -9 360 -6 1190 0 118 -4 157 -35
294 -6 24 3 128 19 230 31 199 35 371 9 387 -9 6 -7 32 6 59 12 27 29 44 38
39 17 -11 7 69 -11 87 -6 6 4 34 22 62 20 30 -17 5 -84 -57 -66 -59 -118 -120
-116 -134 1 -15 -5 -22 -14 -16 -23 14 -61 -61 -49 -95 6 -14 -10 -84 -35
-156 -41 -117 -37 -772 5 -840 12 -20 15 -53 19 -200 2 -82 9 -139 14 -125 6
14 19 20 29 14 27 -17 22 -49 -9 -49 -71 0 -71 -296 -1 -362 l53 -48 -43 80
c-24 45 -41 114 -41 160 l2 80 28 -77 c16 -43 48 -108 71 -146 46 -74 77 -281
39 -257 -12 7 -17 20 -11 30 11 18 -26 131 -39 118 -4 -5 2 -62 12 -128 18
-114 2 -286 -40 -430 -19 -63 -5 -243 18 -230 9 6 22 2 29 -10 7 -11 -2 -20
-19 -20 -41 0 -43 -179 -2 -258 16 -31 35 -127 42 -214 20 -245 73 -380 141
-355 15 6 28 2 28 -9 0 -11 -10 -24 -23 -28 -15 -5 -13 -26 9 -68 17 -32 37
-93 45 -134 7 -41 24 -74 36 -74 13 0 35 -18 48 -40 14 -22 35 -40 46 -40 12
0 16 8 10 18 -6 10 7 14 29 8 46 -12 54 -60 11 -70 -22 -4 -25 -14 -9 -36 16
-23 24 -24 31 -5 6 14 19 25 29 25 27 0 22 -68 -7 -98 -21 -22 -17 -23 20 -4
50 26 55 18 24 -40 -16 -29 -14 -46 7 -67 16 -16 25 -50 19 -78 -9 -51 50 -91
95 -63 30 18 24 -22 -7 -47 -15 -13 -34 -16 -43 -8 -9 8 -10 3 -1 -11 8 -15
29 -21 46 -15 25 10 26 6 7 -17 -20 -24 -17 -27 17 -18 34 9 39 4 28 -25 -11
-28 -6 -33 19 -23 22 8 29 3 21 -17 -16 -40 13 -36 45 6 25 32 27 32 27 -10 1
-25 -11 -45 -25 -45 -14 0 -27 -17 -28 -39 -2 -23 7 -35 21 -29 13 5 43 -9 67
-30 23 -22 47 -34 54 -27 7 6 12 1 12 -13 0 -16 15 -20 45 -11 45 14 45 14 -3
-29 -38 -33 -41 -42 -15 -42 18 0 33 -10 33 -22 0 -13 15 -17 35 -9 28 11 30
8 10 -12 -27 -27 38 -117 86 -117 13 0 49 -23 81 -51 93 -81 103 -87 116 -74
7 6 12 -3 12 -21 0 -39 71 -82 103 -62 12 8 40 -8 62 -34 25 -31 35 -36 28
-14 -6 19 -3 40 8 47 10 6 19 -4 19 -22 0 -24 12 -31 40 -23 22 6 40 3 40 -5
0 -24 288 1 304 26 10 17 21 16 39 -2 30 -30 110 -33 127 -5 7 12 -3 14 -24 7
-33 -11 -33 -10 -5 20 24 26 44 29 94 14 56 -16 63 -13 59 19 -2 21 5 36 16
34 11 -2 18 -11 15 -19 -3 -8 4 -15 16 -15 11 0 19 11 18 25 -7 51 2 85 16 65
63 -86 82 -74 74 49 l-7 121 84 0 c95 1 121 14 130 67 5 25 -1 32 -18 22 -18
-11 -21 -5 -11 23 12 36 11 36 -14 3 -36 -46 -53 -44 -53 5 0 51 74 54 114 5
28 -33 29 -33 18 2 -7 20 -12 45 -12 55 0 10 -15 18 -33 18 -30 0 -29 4 5 37
28 28 50 33 83 21 34 -13 45 -10 45 12 0 17 -17 30 -38 30 -23 0 -56 30 -82
74 -28 49 -32 65 -12 47 22 -17 32 -18 32 -3 0 12 9 22 20 22 11 0 20 -14 20
-31 0 -19 9 -26 23 -17 16 10 20 1 12 -29 -6 -24 -3 -38 7 -32 10 6 24 -3 30
-20 18 -45 88 -40 88 7 0 23 -13 37 -35 35 -22 -2 -37 14 -41 42 -4 25 -15 45
-25 45 -11 0 -19 7 -19 16 0 9 25 15 55 15 30 -1 64 10 75 24 11 14 56 30 100
34 44 5 84 9 89 10 6 0 -11 15 -36 33 -42 30 -49 29 -89 -5 -24 -20 -37 -28
-29 -18 8 10 2 38 -15 63 -33 51 29 65 88 19 22 -16 26 -14 19 9 -6 17 -30 33
-54 36 -23 4 -43 21 -43 38 0 18 11 26 28 19 16 -6 34 4 41 22 9 24 18 26 36
8 12 -12 44 -23 69 -23 30 0 47 -12 48 -35 1 -22 5 -25 11 -9 6 14 1 37 -11
52 -25 30 -8 98 20 81 10 -7 13 -20 7 -30 -6 -11 -2 -19 10 -19 27 0 27 -1 -8
98 -17 46 -23 80 -15 75 8 -5 27 5 43 22 26 28 24 30 -20 19 -44 -11 -45 -9
-14 14 19 15 35 37 35 49 0 13 14 23 30 23 17 0 30 -11 30 -24 0 -47 41 16 50
76 4 32 3 47 -3 33 -12 -30 -67 -34 -67 -5 0 11 -16 20 -35 20 -37 0 -95 72
-70 86 8 5 47 19 85 32 88 29 187 153 171 215 -6 25 0 48 14 54 15 6 10 10
-11 11 -32 2 -31 7 9 62 24 33 38 66 30 74 -8 8 -20 -6 -26 -31 -7 -27 -25
-43 -45 -39 -17 3 -42 -1 -55 -9 -12 -8 -34 -1 -47 15 -20 24 -20 30 1 30 47
0 4 23 -64 33 -85 14 -89 18 -49 57 17 18 32 24 32 13 0 -11 18 -21 40 -22 22
0 57 -2 77 -2 78 -3 136 82 141 206 4 123 -4 133 -75 83 -25 -18 -50 -27 -56
-22 -6 6 10 21 34 35 34 18 38 27 18 40 -14 8 -28 31 -31 49 -3 23 2 27 19 12
16 -13 34 -13 54 1 24 17 24 19 -4 10 -19 -6 -39 2 -45 20 -7 16 -21 24 -32
17 -11 -7 -14 1 -7 20 10 28 14 28 36 -2 18 -24 29 -27 39 -11 8 13 6 23 -4
23 -10 0 -20 25 -22 55 -2 30 -6 82 -9 115 -3 33 1 95 9 137 8 45 2 124 -13
191 -47 203 -42 358 17 472 79 153 86 202 32 216 -35 10 -40 18 -22 39 13 16
28 95 35 176 12 155 62 404 92 463 10 19 19 163 21 319 2 156 7 274 11 261 5
-14 16 -20 25 -14 10 6 4 35 -11 65 -33 64 -38 113 -9 95 11 -7 20 -3 20 9 0
39 -118 257 -144 268 -20 8 -19 15 3 30 26 18 26 22 0 32 -23 9 -32 48 -35
147 -8 212 -158 574 -239 574 -8 0 -44 21 -80 46 -36 26 -65 41 -65 35 0 -7
-20 6 -44 28 -50 47 -69 51 -83 16 -6 -16 -10 -13 -11 8 -4 73 -286 243 -384
232 -24 -3 -48 6 -52 20 -22 61 233 8 384 -81 123 -72 172 -114 158 -137 -6
-9 -2 -17 8 -17 10 0 51 -32 91 -71 104 -101 90 -52 -25 86 -169 204 -481 326
-763 298 -65 -6 -119 -4 -119 4 0 28 -381 90 -404 67 -23 -23 66 -57 98 -38 9
5 57 2 106 -6 l90 -15 -120 -4 c-89 -4 -107 -9 -70 -20 46 -14 44 -16 -30 -31
-44 -8 -89 -23 -101 -31 -11 -9 -32 -9 -47 0 -21 13 -19 21 11 38 20 12 28 22
17 23 -11 0 -7 9 9 19 36 23 -46 59 -145 64 -41 2 -25 8 46 17 l110 13 -130 2
c-71 1 -166 -10 -210 -24z m986 -114 c-37 -13 -66 -13 -90 1 -29 17 -18 21 54
20 83 -1 86 -3 36 -21z m-187 -40 c11 -10 -7 -17 -43 -17 -35 0 -79 -6 -98
-13 -28 -11 -32 -6 -21 22 13 34 10 34 -34 5 -26 -17 -80 -37 -121 -45 -41 -8
-88 -27 -104 -44 -20 -20 -37 -24 -50 -11 -13 13 -9 29 11 45 17 14 31 22 31
16 0 -5 61 11 135 35 131 43 251 46 294 7z m2 -68 c-21 -16 -46 -29 -55 -29
-9 0 -16 -9 -16 -20 0 -11 15 -20 33 -20 47 0 22 -20 -37 -31 -72 -13 -64 47
12 93 73 45 119 50 63 7z m-237 -36 c-5 -13 -24 -22 -42 -20 -19 2 -30 -2 -24
-8 7 -6 3 -22 -8 -35 -23 -28 -120 -16 -120 15 0 11 19 15 42 9 31 -8 38 -3
30 18 -6 17 -3 25 7 19 10 -7 30 1 45 16 29 31 82 20 70 -14z m826 -217 c0 -9
7 -15 15 -14 60 10 97 -6 100 -44 3 -39 0 -39 -45 -10 -27 18 -60 32 -74 32
-19 -1 -19 -5 -3 -15 16 -11 14 -23 -7 -42 -24 -23 -28 -23 -23 0 3 15 -6 47
-19 71 -21 38 -19 43 16 41 22 -2 40 -11 40 -19z m-1990 -156 c-8 -26 -4 -40
14 -40 20 -1 20 -4 -2 -18 -22 -14 -19 -22 15 -41 45 -23 56 -89 24 -140 -25
-40 26 -133 83 -148 30 -9 38 -18 23 -28 -28 -18 0 -63 63 -103 30 -19 31 -22
5 -14 -19 6 -35 1 -35 -11 0 -14 -12 -12 -33 5 -18 15 -46 28 -63 28 -17 0
-32 20 -34 45 -2 25 4 45 13 45 9 0 11 12 5 28 -6 15 -25 26 -44 25 -37 -3
-44 34 -21 100 10 31 5 52 -18 70 -28 24 -31 22 -18 -11 12 -32 9 -34 -17 -12
-26 21 -29 21 -19 -5 6 -17 2 -37 -10 -44 -12 -8 -16 -22 -10 -33 6 -10 21
-13 33 -6 12 8 17 2 11 -14 -5 -15 13 -53 42 -84 44 -47 48 -59 23 -75 -51
-31 -89 -24 -60 11 28 33 -8 100 -42 79 -10 -6 -18 0 -18 14 0 18 -6 19 -22 3
-16 -16 -15 -35 4 -69 33 -59 39 -94 19 -106 -9 -6 -15 10 -13 34 1 32 -8 43
-33 39 -24 -4 -35 7 -35 35 0 42 -29 55 -49 23 -6 -10 -1 -22 12 -26 14 -5 17
-19 9 -33 -13 -20 -24 -19 -51 6 -19 17 -40 25 -48 18 -7 -8 -13 1 -13 20 0
18 18 51 40 73 22 22 40 51 40 65 -1 17 -6 16 -19 -4 -14 -22 -24 -23 -46 -5
-16 13 -35 17 -43 9 -8 -7 -8 3 0 23 14 36 16 36 40 3 23 -32 25 -30 20 19 -3
29 -18 62 -34 71 -40 25 5 65 77 67 41 1 58 -8 60 -33 1 -19 -6 -35 -16 -35
-10 0 -12 -16 -6 -35 10 -28 6 -27 -20 5 -31 40 -32 40 -32 -5 -1 -43 9 -47
94 -45 8 1 14 28 12 60 -2 41 7 60 27 60 18 0 26 12 19 29 -7 19 4 31 33 35
35 5 43 17 38 61 -4 32 3 55 16 55 14 0 18 -16 10 -40z m1930 -128 c0 -15 -15
-33 -32 -40 -24 -9 -29 -4 -20 20 9 24 4 29 -19 20 -18 -6 -26 -3 -19 8 19 30
90 24 90 -8z m478 -109 c-10 -3 -12 -16 -5 -28 8 -12 4 -15 -10 -7 -13 8 -23
5 -23 -7 0 -11 -10 -21 -22 -21 -17 0 -16 8 1 28 17 22 17 32 0 43 -17 10 -17
18 2 30 14 8 36 5 50 -8 14 -13 17 -26 7 -30z m-1679 -138 c16 -27 24 -29 37
-9 14 20 23 18 45 -10 15 -20 20 -29 10 -21 -9 8 -28 0 -41 -19 -30 -40 -100
-20 -83 24 7 17 3 30 -8 30 -10 0 -19 -7 -19 -17 0 -9 -13 -16 -30 -16 -16 0
-30 7 -30 16 0 10 14 17 30 17 17 0 30 9 30 20 0 32 36 23 59 -15z m261 -27
c0 -10 -10 -18 -21 -18 -12 0 -17 8 -11 17 6 9 -3 16 -19 16 -43 0 -35 -28 11
-43 22 -7 35 -21 29 -31 -7 -11 -25 -12 -45 -2 -19 10 -45 14 -59 9 -45 -17
-26 64 20 85 45 21 95 3 95 -33z m1468 -10 c24 -9 26 -17 6 -36 -34 -35 -94
-54 -94 -31 0 10 14 19 32 19 20 0 28 11 21 30 -13 33 -10 35 35 18z m56 -261
c-5 -30 -2 -48 9 -41 10 6 18 -6 18 -27 0 -22 -6 -39 -14 -39 -39 0 -77 28
-77 57 1 29 3 29 20 3 17 -26 19 -25 20 4 0 18 -10 40 -22 47 -16 10 -14 19 5
31 44 28 52 21 41 -35z m-304 -86 c-11 -40 -9 -62 7 -68 13 -5 4 -8 -20 -7
-24 1 -39 12 -33 26 14 37 -32 54 -68 25 -29 -25 -30 -23 -4 18 15 25 38 41
51 36 13 -4 29 5 35 22 21 54 50 9 32 -52z m51 20 c-6 -10 -3 -24 9 -31 11 -7
20 -4 20 7 0 11 16 16 35 13 19 -4 43 -8 53 -8 10 -1 -3 -20 -28 -42 l-46 -40
48 0 48 -1 -46 -35 c-46 -36 -41 -64 11 -64 15 0 22 9 15 20 -7 11 -3 20 8 20
46 0 39 -40 -9 -52 -61 -15 -87 5 -101 82 -5 31 -18 72 -28 90 -10 19 -13 40
-6 47 19 19 30 16 17 -6z m281 -293 c0 -86 -28 -79 -61 14 -23 68 -22 71 19
63 33 -6 42 -23 42 -77z m88 -75 c0 -25 -61 -93 -83 -93 -24 0 -21 68 4 93 26
26 79 26 79 0z m-109 -288 c0 -71 -17 -68 -56 12 -27 52 -26 56 13 53 33 -3
42 -17 43 -65z m84 -2455 c-17 -55 -32 -70 -70 -70 -63 0 -54 67 10 76 25 4
45 20 45 35 0 16 8 29 18 29 10 0 9 -31 -3 -70z m-3010 -263 c-35 -14 -31 -57
8 -89 29 -25 31 -22 19 22 -12 43 -11 45 9 14 12 -20 17 -49 11 -65 -13 -35
-72 -16 -72 24 0 16 -8 24 -18 18 -10 -6 -17 0 -15 14 7 41 34 75 59 73 17 -1
17 -4 -1 -11z m2845 -4 c-5 -5 0 -25 11 -46 16 -29 13 -37 -11 -37 -19 0 -27
-9 -18 -23 8 -13 6 -19 -4 -14 -10 5 -42 21 -71 35 -64 32 -23 104 56 97 25
-2 41 -7 37 -12z m-95 -123 c6 -38 -28 -93 -47 -75 -7 8 -2 28 12 45 14 17 20
37 13 43 -6 7 -17 -1 -24 -18 -7 -19 -27 -27 -51 -20 -31 8 -34 16 -15 38 29
36 105 27 112 -13z m-2658 -82 c35 -12 58 -30 51 -41 -7 -11 -22 -10 -39 4
-22 18 -30 12 -41 -30 l-13 -52 -43 45 c-77 80 -36 116 85 74z m2574 3 c-7
-10 -25 -14 -42 -8 -38 15 -37 -21 1 -53 17 -14 30 -35 29 -47 0 -13 -22 1
-48 31 -26 29 -52 48 -59 41 -7 -6 -12 -3 -12 8 0 31 13 38 80 43 37 3 58 -3
51 -15z m-2411 -81 c41 -41 54 -71 22 -51 -27 16 -126 -26 -113 -48 17 -27
-29 -49 -52 -26 -25 25 20 105 58 105 14 0 25 14 25 30 0 40 12 38 60 -10z
m2335 -123 c-37 -24 -49 -21 -63 15 -20 53 9 73 50 36 30 -27 33 -39 13 -51z
m76 18 c1 -25 8 -67 16 -95 10 -33 9 -41 -3 -23 -13 19 -23 21 -33 5 -10 -16
-25 -16 -55 0 -46 25 -13 63 37 44 20 -8 24 5 14 52 -6 34 -4 62 6 62 9 0 17
-20 18 -45z m-2227 -99 c-19 -19 -30 -18 -49 1 -20 20 -19 28 5 43 40 25 76
-12 44 -44z m-161 14 c4 4 8 -21 9 -55 2 -54 -1 -58 -22 -29 -13 19 -47 36
-75 38 -43 4 -55 26 -37 70 1 2 28 -4 60 -14 33 -9 62 -13 65 -10z m2317 -120
c0 -37 -11 -50 -41 -50 -30 0 -40 -10 -34 -35 4 -19 20 -32 34 -29 15 3 35 -6
44 -20 13 -21 24 -21 61 2 41 25 43 25 21 -2 -14 -17 -20 -47 -12 -67 10 -25
7 -31 -11 -20 -15 9 -35 0 -51 -21 -24 -33 -29 -33 -58 -4 -17 17 -26 37 -19
44 11 11 -7 15 -48 11 -8 -1 -22 14 -31 35 -13 29 -14 28 -7 -9 5 -29 -2 -45
-19 -45 -33 0 -4 -98 37 -125 15 -11 10 -15 -16 -11 -22 3 -49 18 -61 32 -11
15 -35 20 -54 13 -35 -13 -30 -49 7 -49 11 0 15 9 8 20 -7 11 -3 20 9 20 26 0
19 -96 -8 -107 -31 -12 -61 29 -65 87 -2 28 -10 71 -18 97 -12 42 -9 46 29 34
25 -8 44 -5 46 8 1 11 3 29 5 38 1 10 32 46 69 80 36 34 60 71 53 82 -7 12 -3
21 8 21 11 0 25 -9 32 -20 8 -13 24 -9 43 10 41 41 47 38 47 -20z m-2130 -230
c7 -11 30 -20 51 -20 24 0 39 -14 39 -35 -1 -30 -3 -31 -21 -5 -17 26 -24 25
-49 -9 -37 -47 -38 -71 -5 -72 14 0 9 -10 -12 -21 -20 -12 -41 -16 -48 -10 -6
7 -1 12 11 12 29 0 7 64 -29 86 -34 20 -35 67 -2 81 39 16 52 14 65 -7z m1565
-119 c-7 -51 -1 -92 16 -115 15 -20 28 -49 28 -66 0 -16 -26 17 -60 75 -33 58
-70 105 -83 105 -13 0 -6 13 15 28 21 16 45 24 54 19 8 -5 15 0 15 12 0 11 6
21 13 21 7 0 8 -36 2 -79z m177 32 c19 8 25 2 17 -19 -9 -24 -89 -43 -89 -21
0 25 29 69 35 52 4 -12 21 -18 37 -12z m-1544 -43 c7 -27 22 -50 32 -50 11 0
20 -13 20 -30 0 -31 -30 -41 -45 -15 -5 8 -6 4 -2 -10 9 -39 -29 -29 -52 14
-14 26 -14 43 -1 51 11 7 20 21 20 32 0 11 -9 15 -20 8 -11 -7 -14 1 -8 19 18
46 42 38 56 -19z m872 -142 c0 -6 -9 -5 -19 1 -10 7 -29 -6 -41 -28 -12 -23
-30 -41 -41 -41 -12 0 -10 18 5 45 13 25 22 52 20 61 -3 9 14 6 36 -6 22 -12
40 -26 40 -32z m367 -24 c-12 -8 -26 -32 -30 -54 -9 -48 -76 -68 -69 -21 2 18
13 33 23 34 11 1 31 20 46 41 15 21 33 33 39 26 7 -7 3 -18 -9 -26z m-274 -34
c0 -34 -42 -53 -81 -38 -24 9 -23 17 5 46 37 39 76 35 76 -8z m-960 1 c-6 -17
3 -38 20 -48 27 -15 25 -19 -11 -28 -23 -6 -37 -3 -31 7 6 10 2 18 -10 18 -11
0 -21 -10 -21 -23 0 -13 -5 -18 -12 -12 -6 6 4 35 23 63 37 57 60 69 42 23z
m1078 -31 c16 0 29 -8 29 -18 0 -10 -16 -16 -35 -13 -37 6 -85 -23 -85 -51 0
-10 14 -18 30 -18 35 0 39 -37 8 -80 -17 -24 -19 -21 -11 17 7 31 2 43 -14 37
-16 -6 -26 12 -29 48 -3 40 5 58 26 58 17 0 31 19 32 45 2 34 5 36 12 10 5
-19 22 -35 37 -35z m401 7 c-11 -29 -9 -29 21 -5 19 15 28 18 21 5 -8 -13 -3
-27 11 -32 18 -6 17 -15 -5 -37 -46 -43 -88 -42 -117 4 -14 23 -17 36 -5 29
11 -7 32 6 46 28 31 49 45 53 28 8z m-805 -13 c-9 -13 -1 -16 19 -8 22 8 29 3
21 -17 -6 -16 -23 -29 -37 -29 -14 0 -30 -17 -35 -39 -12 -43 51 -51 105 -13
21 15 19 9 -4 -19 -33 -39 -33 -41 5 -44 26 -1 40 11 42 36 1 22 3 50 5 64 2
14 -11 36 -27 50 -26 21 -23 22 18 8 41 -14 49 -30 49 -99 0 -45 6 -77 15 -72
8 5 21 -2 29 -15 9 -15 5 -18 -12 -7 -19 12 -23 8 -15 -15 14 -36 -55 -33 -93
5 -26 26 -78 26 -62 0 7 -12 23 -15 36 -7 13 7 17 6 9 -3 -8 -9 1 -28 20 -43
33 -26 33 -26 0 -15 -44 15 -45 0 -1 -43 32 -32 32 -34 -5 -22 -53 16 -93 -12
-77 -54 12 -32 15 -32 40 1 17 24 27 27 27 10 1 -16 11 -20 26 -11 14 9 46 13
72 10 32 -4 43 1 33 17 -8 12 -27 18 -44 11 -16 -6 -26 -1 -22 10 4 12 15 21
24 19 10 -2 26 9 37 23 14 21 16 19 8 -6 -6 -19 2 -39 18 -45 16 -6 29 -25 29
-44 0 -20 -11 -28 -30 -21 -19 7 -30 0 -30 -19 0 -17 7 -26 16 -21 8 6 14 -14
13 -44 -2 -49 -45 -74 -69 -40 -6 8 -36 18 -67 22 -31 4 -64 20 -73 36 -10 15
-24 21 -32 13 -8 -8 -33 2 -55 21 -22 19 -34 26 -28 14 15 -26 -98 -37 -114
-11 -6 11 -3 25 9 32 11 7 20 22 20 34 0 13 -11 12 -30 -4 -24 -20 -30 -19
-30 6 0 18 14 28 35 25 19 -3 34 -21 32 -40 -2 -26 7 -32 40 -23 24 6 59 12
78 12 24 0 35 16 35 51 0 28 8 46 19 40 10 -6 24 -3 31 9 7 11 3 20 -9 20 -11
0 -21 9 -21 19 0 11 15 14 33 7 23 -9 29 -5 19 11 -19 30 -66 30 -79 -2 -13
-33 -56 24 -44 58 11 32 -52 54 -70 25 -16 -25 -59 -8 -59 24 0 11 9 15 20 8
11 -7 20 -4 20 5 0 10 14 18 30 18 17 0 30 -8 30 -19 0 -10 14 -8 30 6 46 38
37 54 -45 78 l-75 21 90 -9 c79 -9 86 -7 55 17 -46 36 -44 42 15 46 31 2 45
-5 37 -19z m658 1 c9 -25 2 -44 -41 -129 -17 -33 -17 -46 2 -53 13 -5 5 -11
-19 -11 -40 -2 -42 3 -21 59 19 50 18 64 -6 80 -26 17 -25 24 9 49 47 37 65
38 76 5z m-1216 -97 c-6 -10 -1 -18 11 -18 12 0 18 -8 12 -17 -13 -21 -108 -6
-123 19 -6 10 8 18 32 18 32 0 40 9 31 33 -11 27 -8 28 17 8 17 -14 26 -34 20
-43z m171 32 c14 -17 19 -37 12 -45 -8 -8 -21 -3 -29 10 -9 15 -24 16 -44 4
-51 -32 -68 -21 -27 20 47 48 57 49 88 11z m143 0 c8 0 21 -7 30 -17 10 -9 8
-14 -3 -12 -46 12 -109 -31 -90 -61 16 -25 23 -24 50 10 32 40 32 40 20 -3
-12 -45 47 -84 88 -58 31 19 42 -46 12 -76 -15 -16 -23 -34 -16 -41 7 -6 -2
-12 -20 -12 -21 0 -29 11 -21 30 13 33 -23 42 -43 10 -7 -11 -30 -20 -52 -20
-22 0 -35 -8 -29 -19 17 -27 -69 -49 -95 -23 -14 14 -15 22 -1 22 11 0 16 27
11 60 -6 44 -1 60 22 60 38 0 60 54 28 69 -18 8 -18 14 1 23 14 6 20 20 14 29
-6 10 4 13 23 5 27 -10 32 -5 22 22 -10 24 -6 29 11 18 14 -8 31 -16 38 -16z
m-148 -90 c26 -41 8 -55 -26 -21 -12 12 -30 12 -49 0 -27 -16 -27 -18 0 -19
23 -1 21 -8 -9 -31 -53 -40 -76 -36 -52 8 11 21 13 45 5 54 -8 8 -3 9 10 2 13
-8 35 -1 50 16 34 39 42 38 71 -9z m739 -73 c-8 -7 -4 -25 9 -40 17 -21 14
-27 -12 -27 -18 0 -28 -9 -21 -20 7 -11 3 -20 -9 -20 -12 0 -27 13 -34 30 -6
16 -19 25 -29 19 -10 -6 -12 2 -6 19 6 16 31 33 55 38 24 5 47 10 51 11 5 2 3
-3 -4 -10z m161 -69 c-3 -13 8 -28 23 -33 15 -6 22 -2 16 9 -7 11 0 19 15 19
15 0 23 -12 17 -27 -7 -18 0 -22 22 -14 19 7 32 2 32 -12 0 -15 -16 -20 -40
-14 -22 6 -45 2 -51 -8 -6 -10 -21 -18 -34 -18 -12 0 -16 6 -9 13 8 7 4 25 -8
39 -12 15 -16 36 -9 47 18 28 32 27 26 -1z m-206 -49 c31 -23 34 -34 14 -54
-26 -26 -71 16 -52 47 5 8 -2 19 -16 25 -14 5 -16 10 -5 11 11 0 38 -13 59
-29z m-894 -29 c-2 -24 -18 -40 -39 -40 -42 0 -45 12 -11 50 35 40 53 37 50
-10z m271 -33 c-7 -19 -5 -28 6 -22 10 6 20 -21 23 -61 5 -68 4 -70 -24 -33
-31 41 -40 113 -18 136 22 22 26 15 13 -20z m769 -102 c14 -3 25 4 25 15 0 11
9 20 20 20 26 0 26 -114 0 -130 -11 -7 -15 1 -8 17 6 16 -1 36 -14 45 -15 8
-29 5 -33 -8 -5 -13 -17 -24 -28 -24 -11 0 -14 9 -7 20 7 11 4 20 -7 20 -11 0
-23 -11 -28 -25 -12 -35 -75 18 -75 62 -1 29 -3 29 -20 3 -12 -19 -20 -21 -20
-6 0 41 78 73 111 45 23 -19 29 -17 31 14 2 26 6 23 15 -13 7 -27 24 -52 38
-55z"/>
<path d="M2693 665 c-42 -22 -51 -35 -34 -52 16 -16 33 -15 64 4 22 14 35 16
28 4 -7 -11 -4 -21 7 -21 35 0 48 43 19 69 -22 20 -38 19 -84 -4z"/>
<path d="M2379 6656 c-16 -9 -64 -31 -107 -48 -58 -23 -72 -36 -51 -49 17 -10
40 -7 58 7 27 21 28 20 4 -11 -15 -19 -37 -29 -48 -22 -13 8 -15 3 -6 -11 8
-13 5 -36 -8 -50 -14 -18 -15 -42 -3 -74 15 -36 20 -39 21 -12 1 31 8 29 56
-15 30 -28 63 -51 72 -51 10 0 6 -16 -9 -35 -22 -30 -22 -31 2 -10 41 36 43
84 3 72 -18 -5 -8 5 23 23 61 35 114 15 114 -45 0 -19 11 -25 33 -16 19 7 41
1 49 -13 9 -14 23 -18 31 -9 17 17 -33 56 -60 47 -9 -3 -52 30 -96 74 -79 79
-89 132 -23 132 29 -1 30 -4 8 -18 -40 -25 -14 -75 57 -111 53 -28 61 -28 61
-2 0 18 -12 25 -30 18 -22 -8 -27 -2 -18 21 7 18 2 32 -11 32 -13 0 -18 -9
-11 -20 20 -33 -3 -23 -33 14 -15 18 -17 27 -4 20 15 -9 31 7 44 41 11 30 21
44 21 30 1 -13 21 -54 44 -90 32 -50 40 -54 32 -20 -7 30 -1 45 18 45 15 0 28
14 28 31 0 17 8 26 19 20 10 -6 25 -1 33 12 8 14 6 18 -8 10 -11 -8 -27 -5
-34 7 -7 11 3 20 21 20 27 0 29 6 10 29 -18 21 -37 24 -74 10 -75 -29 -95 -24
-67 16 14 19 -3 4 -38 -34 -53 -56 -68 -64 -83 -40 -15 24 -18 23 -19 -6 0
-19 -9 -35 -20 -35 -41 0 -18 62 30 80 53 20 68 53 24 53 -14 0 -39 -7 -55
-17z"/>
<path d="M2842 6536 c-9 -25 -13 -53 -8 -62 5 -9 -2 -29 -15 -45 -20 -25 -19
-28 8 -17 20 7 33 2 33 -13 0 -14 5 -21 11 -15 5 6 1 34 -10 63 -15 39 -12 59
10 81 18 19 22 34 9 42 -11 7 -28 -8 -38 -34z"/>
<path d="M3693 6566 c-7 -7 -13 -21 -13 -31 0 -24 105 -10 114 16 7 22 -80 36
-101 15z"/>
<path d="M3765 6486 c-25 -5 -45 -19 -45 -32 -1 -16 -6 -15 -18 3 -14 23 -25
23 -64 1 -27 -15 -54 -27 -61 -27 -8 -1 -20 -8 -29 -16 -8 -8 -31 -15 -50 -15
-20 0 -45 -16 -57 -35 -20 -33 -22 -33 -42 0 -12 20 -30 31 -40 24 -11 -6 -19
-1 -19 12 0 15 -18 19 -52 10 -30 -7 -47 -5 -40 6 7 11 -6 15 -30 8 -39 -10
-38 -13 17 -36 32 -13 65 -40 73 -60 12 -33 14 -33 39 1 25 34 27 34 40 1 11
-28 20 -30 41 -12 22 18 35 13 60 -22 33 -48 43 -29 34 63 -3 27 -1 27 17 0
11 -16 15 -45 10 -63 -9 -28 3 -32 80 -24 78 8 91 5 91 -27 0 -20 -7 -27 -15
-16 -22 30 -78 28 -78 -2 0 -14 7 -22 16 -16 10 6 17 1 17 -11 0 -11 -10 -21
-23 -21 -13 0 -19 -5 -13 -11 9 -8 97 21 133 43 3 3 -3 22 -15 44 -16 30 -14
46 8 64 17 14 30 37 30 52 0 16 12 22 30 15 21 -8 27 -2 19 19 -7 16 -1 37 13
45 16 10 19 7 8 -11 -11 -18 -8 -21 8 -11 24 15 -6 75 -35 68 -7 -1 -33 -6
-58 -11z"/>
<path d="M2620 6399 c0 -7 23 -25 52 -40 40 -21 50 -39 43 -82 -7 -52 -6 -53
44 -27 36 18 53 44 55 83 2 31 -1 46 -7 33 -7 -16 -24 -18 -56 -6 -26 9 -54
11 -62 4 -9 -8 -10 0 -4 17 7 20 -2 30 -27 30 -21 0 -38 -5 -38 -12z"/>
<path d="M2991 6343 c-10 -31 -26 -44 -50 -38 -19 5 -65 -16 -103 -47 -37 -31
-57 -57 -43 -57 14 -1 25 7 25 17 0 9 34 6 75 -9 69 -24 75 -23 81 13 4 21 15
38 25 38 10 0 12 16 5 35 -12 31 -9 32 20 8 18 -15 29 -35 23 -45 -6 -10 2
-12 19 -6 16 6 25 24 19 40 -6 15 -19 23 -29 17 -10 -7 -26 9 -35 34 l-17 46
-15 -46z"/>
<path d="M2535 6267 c14 -6 25 -23 25 -39 0 -33 32 -37 51 -6 16 25 -26 58
-71 56 -20 -1 -22 -4 -5 -11z"/>
<path d="M3378 6245 c-1 -21 -5 -25 -11 -10 -16 38 -43 30 -57 -17 -8 -22 -19
-36 -25 -29 -7 6 -28 -14 -48 -44 -27 -41 -37 -46 -37 -20 0 19 9 35 20 35 11
0 20 9 20 20 0 12 -15 11 -38 -3 -21 -13 -33 -37 -27 -53 6 -15 1 -34 -12 -42
-14 -9 -2 -26 33 -47 37 -21 66 -26 85 -14 27 17 -12 30 -66 21 -25 -4 -17 16
25 58 22 22 67 40 100 40 55 0 60 6 60 70 0 70 -19 101 -22 35z"/>
<path d="M2651 6201 c-9 -14 -6 -34 6 -46 14 -14 15 -33 1 -59 -18 -33 -14
-36 29 -25 60 15 87 -20 38 -51 -33 -22 -33 -22 2 -12 20 7 45 12 56 12 11 0
14 9 7 20 -7 11 -2 20 10 20 12 0 17 9 10 20 -7 11 -2 20 10 20 12 0 17 9 10
20 -7 12 -23 15 -35 7 -13 -8 -18 -2 -11 15 6 15 -1 40 -17 54 -25 24 -35 16
-29 -21 4 -28 -36 -15 -54 18 -14 24 -22 26 -33 8z"/>
<path d="M3476 6193 c-17 -17 -37 -26 -44 -19 -12 13 -14 9 -22 -70 -7 -65
-23 -74 -49 -26 -36 68 -55 49 -53 -55 1 -62 10 -96 27 -96 17 0 18 7 4 25
-15 17 -14 29 3 39 15 10 19 7 10 -8 -8 -13 -5 -23 7 -23 11 0 21 10 21 21 0
32 53 79 89 79 17 0 31 -16 31 -35 -1 -27 -4 -29 -18 -8 -11 17 -22 20 -30 7
-7 -11 -1 -25 13 -31 15 -6 12 -10 -9 -11 -46 -3 -63 -35 -25 -50 17 -6 26 -4
21 5 -19 31 133 90 161 62 9 -9 17 4 17 31 0 30 -14 52 -37 58 -29 7 -35 1
-27 -29 7 -25 0 -39 -17 -39 -17 0 -23 12 -16 30 6 17 1 43 -12 58 -17 21 -17
30 1 36 17 6 19 19 4 44 -18 32 -23 33 -50 5z"/>
<path d="M3784 6187 c-13 -14 -24 -37 -24 -51 -1 -18 -5 -19 -15 -4 -11 15
-32 14 -75 -4 -59 -25 -58 -26 40 -23 56 2 119 17 142 35 l43 32 -44 20 c-32
15 -50 14 -67 -5z"/>
<path d="M2391 6016 c-40 -57 -39 -104 1 -138 27 -22 31 -21 28 13 -7 62 -1
92 16 82 9 -6 17 7 19 28 4 58 -28 65 -64 15z"/>
<path d="M3560 5961 c0 -13 -9 -18 -20 -11 -34 21 -22 -14 15 -42 65 -50 98 0
35 52 -22 19 -30 19 -30 1z"/>
<path d="M4042 3924 c-1 -17 -16 -22 -42 -14 -22 7 -40 4 -40 -6 0 -11 -18
-24 -40 -30 -22 -6 -40 -1 -40 10 0 11 -16 14 -35 7 -19 -8 -89 -18 -155 -22
-171 -13 -227 -27 -249 -66 -14 -23 -20 -25 -20 -6 -1 22 -7 23 -30 4 -16 -14
-38 -19 -48 -13 -15 9 -63 -83 -63 -120 0 -3 47 8 105 26 126 38 195 48 195
27 0 -18 -91 -61 -128 -61 -15 0 -39 -14 -53 -31 -14 -17 -35 -27 -47 -23 -23
8 -77 -53 -97 -110 -27 -73 54 -81 439 -46 181 17 211 35 240 149 l18 69 45
-45 c24 -24 39 -53 33 -64 -7 -10 4 -19 25 -19 20 0 47 -10 59 -22 12 -12 41
-16 64 -9 57 18 63 171 7 171 -27 1 -29 5 -8 17 30 20 -93 45 -242 49 -83 3
-133 44 -53 44 15 0 38 12 50 28 17 22 30 22 67 3 36 -20 50 -19 68 0 18 19
15 22 -12 13 -22 -8 -35 -3 -35 15 0 15 10 31 23 35 13 5 18 21 12 37 -9 21
-12 22 -13 3z m-182 -254 c11 -7 20 -23 20 -36 0 -14 -8 -12 -20 6 -17 26 -19
25 -20 -4 0 -24 -10 -31 -33 -22 -26 10 -31 5 -21 -21 14 -37 -76 -28 -116 13
-13 13 -12 15 5 6 14 -8 25 -10 25 -5 0 5 6 26 14 46 11 30 8 33 -15 15 -64
-48 -114 -55 -69 -10 39 40 173 47 230 12z m-208 -125 c39 -51 34 -69 -17 -61
-25 3 -45 20 -45 36 0 17 -9 37 -20 45 -11 8 -3 15 18 15 21 0 50 -16 64 -35z"/>
<path d="M4096 3928 c19 -9 20 -19 4 -38 -25 -30 -7 -47 60 -60 26 -5 36 0 27
14 -9 15 12 18 69 9 67 -11 81 -8 72 15 -6 15 -44 32 -84 38 -41 5 -96 15
-124 22 -27 7 -38 7 -24 0z"/>
<path d="M1993 3835 c7 -11 -6 -14 -31 -6 -50 16 -162 -4 -162 -29 0 -9 16
-21 35 -26 27 -7 25 -10 -9 -12 -61 -3 -103 -101 -88 -208 4 -33 82 30 82 67
0 21 7 38 15 37 37 -6 65 4 65 23 0 12 -8 16 -19 10 -10 -6 -24 -2 -31 9 -9
14 12 19 58 13 40 -4 72 -1 72 8 0 21 -60 41 -82 28 -9 -6 -12 3 -6 20 13 32
48 43 48 15 0 -23 175 -70 220 -58 22 6 35 2 29 -8 -6 -10 12 -18 41 -18 29 0
48 -7 43 -15 -5 -8 -86 -14 -180 -13 -94 0 -167 -6 -161 -15 6 -10 1 -17 -11
-17 -11 0 -21 -22 -21 -49 0 -38 -12 -50 -54 -55 l-53 -6 49 -57 c53 -61 204
-101 194 -51 -3 14 12 29 34 34 21 5 50 23 63 41 22 30 30 28 81 -21 44 -43
81 -57 166 -63 61 -4 126 -14 145 -22 19 -9 48 -10 64 -4 17 6 35 2 42 -8 6
-11 20 -14 31 -8 10 6 43 16 73 21 124 22 158 332 38 342 -32 2 -75 20 -96 39
-47 42 -63 45 -270 52 -106 4 -159 -2 -151 -15 6 -11 -4 -7 -23 8 -19 15 -39
22 -46 16 -6 -6 -35 -3 -64 7 -50 18 -51 17 -14 -11 38 -30 38 -30 0 -33 -22
-1 -59 -4 -83 -7 -25 -2 -40 3 -35 12 6 9 21 14 35 10 13 -3 17 -2 9 3 -8 5
-11 15 -6 23 5 9 -3 15 -19 15 -16 0 -23 -8 -17 -18z m534 -325 c7 -17 -5 -38
-29 -51 -53 -28 -67 -14 -39 39 26 49 52 54 68 12z"/>
<path d="M2678 2405 c-8 -131 -6 -200 5 -193 7 4 34 -11 60 -34 26 -22 36 -35
22 -28 -16 8 -33 -9 -46 -43 -17 -43 -25 -49 -39 -27 -9 15 -14 33 -10 40 4 6
-12 13 -36 15 -31 2 -36 -2 -17 -13 22 -14 22 -26 3 -62 -21 -39 -20 -44 6
-34 22 8 30 0 28 -27 -1 -22 -5 -39 -7 -39 -25 0 -107 51 -107 66 0 10 -13 8
-28 -4 -23 -19 -32 -13 -48 32 -12 31 -22 45 -22 31 -1 -14 -12 -25 -24 -25
-12 0 -17 13 -11 28 14 38 -77 23 -147 -24 l-50 -34 45 -6 c25 -4 45 -20 45
-37 0 -16 9 -24 21 -16 11 7 32 4 45 -6 48 -37 268 -71 424 -67 88 3 182 -4
210 -14 31 -12 71 -11 106 1 30 11 116 21 190 22 74 2 141 12 149 23 9 13 15
11 15 -4 0 -27 106 -3 151 35 39 32 216 16 233 -21 9 -22 14 -17 15 16 0 25
14 50 30 56 15 6 27 28 26 47 -2 21 -14 32 -28 27 -14 -5 -49 16 -78 47 -33
36 -48 44 -41 22 6 -19 2 -35 -9 -35 -10 0 -19 -15 -19 -34 0 -27 -5 -29 -25
-9 -19 19 -31 15 -57 -19 -49 -65 -249 -83 -229 -21 18 56 -6 56 -26 0 -15
-39 -103 -71 -103 -37 0 30 -117 -6 -126 -40 -9 -35 -174 -57 -174 -23 0 9
-45 27 -100 41 -109 28 -113 32 -72 73 19 19 51 23 105 15 70 -12 75 -10 50
21 -21 24 -21 33 -4 33 14 0 29 -18 35 -40 12 -45 37 -53 51 -15 14 37 -5 75
-37 75 -15 0 -28 18 -28 40 0 35 11 40 80 35 44 -3 80 -11 80 -19 0 -8 19 -25
43 -37 39 -22 42 -19 32 31 -9 49 -7 51 22 22 29 -29 28 -36 -13 -77 -24 -24
-44 -33 -44 -19 0 13 -18 24 -40 24 -43 0 -57 -59 -15 -62 14 -1 50 -5 81 -11
46 -7 56 -2 51 27 -3 20 7 57 21 83 16 29 17 42 4 34 -12 -7 -22 -5 -22 6 0
26 56 45 69 24 6 -9 -3 -49 -19 -89 -33 -78 -11 -100 27 -27 41 77 39 231 -2
276 -37 39 -38 39 -128 -23 -82 -57 -111 -65 -207 -57 -16 1 -49 -4 -71 -11
-30 -9 -65 7 -127 59 -94 78 -141 90 -144 36z"/>
<path d="M4229 2173 c-35 -38 -49 -112 -19 -100 14 5 30 34 36 63 12 64 11 67
-17 37z"/>
<path d="M2946 1704 c-161 -9 -85 -127 86 -134 13 0 39 -14 59 -30 22 -18 30
-20 22 -5 -9 14 -6 25 6 25 11 0 21 -11 21 -25 1 -18 6 -17 18 3 10 16 13 43
6 60 -10 28 -7 28 23 4 30 -24 32 -23 20 8 -9 25 -6 32 10 22 12 -8 23 -5 23
7 0 11 18 21 40 21 49 0 53 32 5 37 -79 9 -241 13 -339 7z"/>
<path d="M4601 1681 c-16 -10 -36 -14 -45 -8 -9 5 -16 0 -16 -12 0 -11 10 -21
21 -21 12 0 16 -9 9 -20 -7 -11 2 -20 19 -20 17 0 32 16 32 35 2 30 4 29 19
-5 15 -35 17 -34 19 15 1 58 -11 66 -58 36z"/>
<path d="M3118 1488 c-16 -129 -12 -224 11 -216 26 10 30 196 4 221 -7 8 -14
5 -15 -5z"/>
</g>
</svg>
