<?xml version="1.0" standalone="no"?>
<!DOCTYPE svg PUBLIC "-//W3C//DTD SVG 20010904//EN"
 "http://www.w3.org/TR/2001/REC-SVG-20010904/DTD/svg10.dtd">
<svg version="1.0" xmlns="http://www.w3.org/2000/svg"
 width="300.000000pt" height="300.000000pt" viewBox="0 0 300.000000 300.000000"
 preserveAspectRatio="xMidYMid meet">
<metadata>
Created by potrace 1.10, written by Peter Selinger 2001-2011
</metadata>
<g transform="translate(0.000000,300.000000) scale(0.050000,-0.050000)"
fill="#000000" stroke="none">
<path d="M2385 5796 c-371 -177 -423 -196 -525 -196 -146 0 -225 -40 -287
-147 -44 -75 -79 -99 -290 -204 -223 -111 -280 -158 -218 -179 14 -5 121 -41
237 -81 l213 -72 10 -228 c10 -227 38 -321 101 -337 13 -3 53 -16 89 -27 48
-16 65 -16 66 2 1 13 10 5 19 -17 16 -38 17 -38 19 4 1 33 10 41 34 32 30 -12
32 8 22 211 -10 174 -7 223 13 223 25 0 154 -40 169 -51 3 -3 -30 -115 -75
-249 -45 -133 -82 -263 -82 -289 0 -25 -13 -84 -30 -131 -16 -47 -30 -113 -30
-147 0 -42 -16 -74 -53 -103 -63 -51 -72 -212 -19 -339 18 -42 32 -107 32
-146 0 -38 13 -129 29 -202 16 -73 48 -259 72 -413 23 -154 53 -319 65 -366
18 -69 17 -94 -6 -130 -76 -117 -114 -214 -105 -264 9 -47 20 -32 80 109 112
259 131 206 85 -229 -11 -110 -29 -245 -39 -300 -9 -55 -32 -187 -49 -293 -34
-210 -120 -622 -201 -962 -71 -299 -82 -275 129 -275 99 0 180 2 180 5 0 3
-13 144 -29 313 -26 286 -26 323 9 520 20 117 43 255 50 307 7 53 19 92 27 87
8 -5 12 65 10 155 l-4 163 42 -55 c23 -30 63 -102 89 -160 l46 -105 -12 80
c-7 44 -23 92 -35 107 -110 138 -138 238 -126 440 13 229 15 231 80 97 73
-149 274 -334 363 -334 17 0 -55 108 -85 126 -14 9 -26 36 -27 60 0 24 -5 34
-11 21 -11 -27 -89 40 -125 108 -20 39 -19 45 15 45 25 0 43 -18 51 -50 11
-42 23 -50 76 -46 35 3 66 -5 71 -18 4 -13 22 -18 40 -11 21 8 27 4 17 -12 -8
-13 -3 -23 12 -24 115 -3 270 -27 291 -44 18 -14 25 -10 26 18 0 33 5 32 40
-10 51 -62 49 -76 -16 -111 -85 -45 -3 -68 87 -25 38 18 78 33 90 33 30 0 220
146 283 217 30 35 65 63 76 63 12 0 17 7 11 17 -6 9 3 16 19 16 40 0 38 -10
-32 -166 -34 -75 -79 -182 -99 -237 -21 -55 -82 -217 -136 -361 -55 -143 -124
-367 -154 -498 -50 -212 -145 -431 -188 -431 -7 0 -13 128 -15 285 -2 234 -10
306 -44 402 -58 161 -44 184 213 364 3 2 -28 50 -70 107 l-76 102 -142 0
c-186 0 -245 -13 -316 -70 l-58 -47 50 -59 c63 -75 112 -249 73 -262 -92 -30
-116 -100 -244 -707 l-87 -415 62 1 c34 1 103 9 152 18 l90 16 -80 4 c-70 4
-73 7 -30 20 l50 15 -50 10 c-50 10 -50 11 -3 13 34 2 44 12 35 34 -6 18 -3
26 8 19 11 -7 20 -30 20 -51 0 -22 10 -39 21 -39 12 0 17 7 11 16 -35 58 -28
124 14 127 28 1 18 8 -26 17 l-70 15 80 5 80 5 -70 15 -70 15 70 5 70 5 -70
15 -70 15 70 5 70 5 -70 15 -70 15 80 5 80 6 -80 14 -80 14 80 6 80 5 -70 15
-70 15 65 2 c72 3 81 44 15 66 -38 12 -38 13 4 15 48 2 76 89 58 177 -6 26 0
46 14 46 13 1 6 10 -16 19 -40 17 -40 17 0 20 40 3 40 3 0 20 -40 17 -40 17 0
20 40 3 40 3 0 20 -37 16 -36 17 10 19 28 1 41 8 29 16 -29 21 -25 132 6 151
14 9 20 26 12 39 -7 12 9 5 37 -16 41 -31 49 -52 43 -109 -18 -147 -16 -240 3
-240 11 0 7 -9 -10 -20 -27 -17 -27 -19 0 -20 25 -1 25 -4 3 -18 -23 -14 -23
-19 0 -28 21 -9 21 -11 -3 -13 -19 -2 -12 -13 20 -33 l50 -30 -50 12 -50 12
50 -30 c45 -28 46 -31 10 -33 -40 -2 -40 -2 0 -19 40 -17 40 -17 0 -20 -40 -3
-40 -3 0 -20 27 -12 30 -18 10 -19 -27 -1 -27 -4 0 -21 25 -16 23 -20 -10 -21
-36 -1 -35 -3 6 -20 26 -10 42 -27 36 -37 -7 -9 6 -22 27 -27 51 -14 41 -94
-23 -179 -88 -118 -89 -116 44 -116 112 0 122 3 111 38 -17 51 6 62 89 44 64
-14 66 -16 25 -30 -70 -23 -53 -52 30 -52 l76 0 57 285 c168 835 368 1382 717
1965 108 181 118 220 106 437 -11 192 -9 211 34 274 173 260 264 699 155 753
-61 30 -75 88 -91 356 -7 110 -25 261 -41 336 -15 75 -28 145 -28 155 0 21
129 83 790 380 264 119 480 224 480 233 0 16 -257 108 -1080 385 -231 78 -591
205 -800 283 -546 203 -521 204 -1045 -46z m562 -38 c7 -34 21 -55 32 -49 13
8 13 30 0 63 -24 63 -24 68 1 68 11 0 18 -8 15 -17 -3 -9 24 -41 60 -72 50
-42 65 -47 65 -23 0 18 10 32 21 32 12 0 15 -11 7 -23 -10 -16 -4 -20 19 -11
20 8 33 3 33 -12 0 -42 74 -78 88 -42 12 31 16 29 100 -46 17 -15 33 -17 46
-4 13 13 29 9 45 -11 14 -17 38 -31 53 -31 16 0 29 -11 30 -25 1 -17 4 -18 11
-2 13 32 92 8 79 -25 -6 -15 0 -22 16 -16 14 5 35 -11 47 -36 12 -25 23 -34
24 -20 1 20 10 18 34 -6 30 -31 35 -31 51 -2 23 41 105 44 89 3 -7 -19 -1 -25
16 -19 36 14 191 -29 191 -53 0 -10 26 -19 59 -19 32 0 72 -13 88 -30 17 -16
43 -25 60 -18 16 6 53 -4 81 -23 29 -18 68 -29 88 -24 38 10 84 -27 84 -69 1
-20 4 -20 16 -2 17 27 104 12 104 -18 0 -10 -10 -12 -23 -4 -15 9 -18 5 -8
-10 11 -18 21 -18 43 -1 22 19 28 18 27 -4 0 -27 -139 -104 -139 -77 0 8 -22
15 -50 15 -57 0 -68 -28 -15 -40 27 -5 20 -15 -30 -42 -36 -18 -65 -29 -65
-23 0 6 -19 -6 -42 -27 -42 -40 -69 -44 -113 -16 -15 9 -25 6 -25 -8 0 -13
-15 -18 -35 -11 -32 11 -32 10 -2 -14 30 -23 28 -28 -20 -48 -115 -47 -143
-46 -143 6 0 26 -11 48 -24 48 -17 0 -18 6 -2 22 23 23 12 98 -16 98 -26 0
-98 152 -82 173 8 9 6 10 -4 2 -10 -8 -33 -2 -50 14 -18 15 -39 28 -47 29 -9
0 -57 19 -108 41 -51 23 -112 45 -135 49 -72 14 -112 35 -112 59 0 13 -29 23
-65 24 -110 2 -284 32 -310 54 -19 15 -23 13 -15 -8 8 -21 -4 -27 -45 -24 -30
2 -55 5 -55 6 0 1 -137 7 -305 13 -209 7 -305 4 -305 -11 0 -11 34 -22 75 -23
41 -2 84 -5 95 -7 11 -3 40 -6 65 -8 53 -4 62 -40 10 -41 -128 -1 -305 -30
-298 -50 4 -12 20 -19 34 -16 20 5 20 0 3 -22 -16 -19 55 -7 231 38 140 35
296 67 345 69 152 8 528 -58 635 -112 36 -17 73 -27 82 -21 10 7 30 -2 43 -18
13 -16 31 -25 40 -20 22 14 140 -71 188 -136 63 -86 65 -367 3 -424 -60 -55
-77 -109 -46 -146 21 -27 20 -29 -5 -14 -26 15 -26 13 -2 -17 50 -61 9 -56
-122 16 -71 39 -141 71 -156 71 -15 0 -45 16 -67 35 -22 19 -33 24 -25 10 18
-31 -26 -33 -68 -3 -25 18 -24 20 6 10 22 -7 31 -3 23 9 -7 11 -30 15 -52 8
-57 -18 -220 12 -167 31 22 8 56 7 75 -3 22 -12 35 -11 35 1 0 25 -73 48 -100
32 -11 -7 -20 -4 -20 5 0 10 -14 18 -31 18 -17 0 -26 -11 -21 -24 14 -37 -10
-52 -41 -26 -20 16 -27 15 -27 -4 0 -16 -17 -10 -46 18 -56 52 -67 54 -68 8 0
-45 30 -64 98 -65 29 0 59 -8 65 -18 18 -29 -45 -42 -100 -21 -65 24 -60 25
-98 -12 -28 -29 -31 -27 -31 25 1 61 50 434 72 546 7 39 8 65 1 58 -12 -10
-81 -335 -100 -468 -5 -33 -15 -81 -24 -107 l-15 -48 -26 58 -25 57 11 -70
c10 -67 9 -68 -21 -30 -17 22 -32 31 -33 20 0 -11 -9 -6 -20 10 -11 17 -20 20
-20 7 0 -18 -12 -18 -50 0 -76 35 -59 60 32 45 60 -10 80 -7 74 11 -5 14 -45
25 -91 26 -45 0 -88 8 -97 16 -8 8 2 15 22 15 20 0 31 5 25 12 -18 18 -137
-13 -125 -32 6 -10 -19 -13 -55 -7 -40 7 -105 -5 -170 -29 -58 -22 -100 -32
-94 -22 6 10 1 18 -11 18 -12 0 -17 8 -11 18 6 11 -3 33 -20 50 -18 18 -26 32
-19 32 7 0 5 11 -3 25 -20 31 -10 96 19 132 18 22 3 25 -87 14 -133 -17 -244
36 -128 60 71 14 76 99 9 159 -37 33 -35 81 5 164 11 25 29 40 38 34 9 -6 17
-1 17 11 0 11 7 19 15 17 8 -2 42 3 75 11 124 29 154 31 201 13 39 -15 49 -13
49 12 0 22 -12 27 -40 18 -23 -7 -40 -4 -40 9 0 11 16 21 35 21 30 1 30 3 5
19 -65 42 15 68 209 69 155 1 283 28 156 33 -142 6 -293 39 -178 39 18 0 33
10 33 21 0 12 10 15 21 8 25 -15 139 28 139 53 0 10 23 18 50 18 34 0 50 11
50 35 1 30 3 31 20 5 16 -25 19 -23 20 12 0 97 86 54 107 -54z m-1119 -472 c7
-112 18 -263 24 -337 8 -93 5 -129 -10 -120 -12 7 -22 2 -23 -13 0 -17 -9 -14
-27 9 -31 42 -51 -2 -52 -113 0 -86 -13 -57 -28 65 -11 84 -8 103 12 91 19
-12 21 -8 6 13 -17 24 -22 245 -12 483 2 44 78 150 93 131 2 -3 10 -97 17
-209z m-147 49 c0 -14 2 -104 5 -200 2 -96 -3 -175 -12 -175 -9 0 -11 -8 -5
-18 6 -10 5 -34 -2 -54 -18 -46 -43 10 -46 102 -2 57 -4 58 -31 21 -34 -44
-34 -43 -68 43 -27 67 -12 195 20 175 10 -6 18 5 19 25 0 34 1 34 22 -1 26
-45 56 -12 57 62 0 46 40 65 41 20z m1033 -833 c136 -54 158 -57 362 -47 384
18 629 -50 812 -227 62 -60 112 -112 112 -117 0 -4 -5 -21 -12 -38 -12 -32 -6
-35 -133 72 -54 46 -75 44 -75 -5 0 -22 13 -40 29 -40 78 0 132 -265 138 -678
4 -293 -6 -382 -41 -382 -14 0 -29 -20 -34 -45 -5 -25 -15 -72 -22 -105 -7
-33 -18 -91 -26 -128 -13 -63 -74 -52 -62 11 10 57 -7 95 -21 47 -9 -27 -11
-73 -6 -101 5 -32 -4 -61 -24 -78 -30 -25 -31 -23 -11 21 17 38 16 62 -7 105
l-29 57 0 -97 c0 -53 -3 -115 -7 -137 -4 -22 3 -38 15 -36 11 2 20 -16 18 -40
-2 -24 -19 -47 -38 -51 -30 -6 -32 0 -13 35 19 36 17 42 -18 42 -34 0 -41 13
-42 75 -1 41 -8 92 -17 113 -8 21 -13 -40 -11 -136 2 -95 -4 -177 -13 -183 -9
-6 -8 -32 1 -58 10 -26 13 -52 6 -59 -6 -7 4 -12 23 -12 23 0 29 8 18 25 -25
39 -20 113 8 124 30 11 34 -16 9 -65 -10 -21 -7 -53 9 -82 24 -48 25 -47 47
34 24 88 60 129 62 70 2 -32 4 -32 19 4 12 30 15 20 11 -36 -4 -51 -20 -87
-49 -107 -23 -16 -37 -39 -30 -50 7 -11 -7 -8 -30 6 -23 15 -42 33 -42 42 0 8
-9 15 -19 15 -11 0 -15 -14 -8 -30 8 -22 2 -27 -21 -18 -17 7 -32 33 -32 59 0
26 -10 53 -22 60 -15 10 -18 0 -9 -28 8 -26 5 -43 -8 -43 -29 0 -26 -54 4 -67
14 -5 9 -11 -12 -11 -25 -1 -33 -12 -26 -32 7 -16 4 -30 -6 -30 -10 0 -22 11
-27 25 -13 37 -38 5 -41 -54 -3 -50 -4 -50 -33 -10 -26 33 -36 36 -60 15 -16
-15 -11 -5 11 21 33 41 40 43 46 13 7 -37 63 51 63 100 0 14 15 32 34 39 26
10 29 17 9 29 -19 12 -18 21 6 41 17 14 31 45 31 68 -1 34 -4 37 -19 14 -10
-16 -14 -36 -8 -45 5 -9 0 -16 -12 -16 -26 0 -41 33 -49 107 -8 78 -25 83 -49
14 -19 -56 -15 -69 21 -64 17 3 43 -76 30 -89 -5 -6 -23 4 -40 21 -17 17 -41
31 -53 31 -11 0 -21 10 -21 21 0 12 -10 15 -22 8 -15 -10 -15 -20 0 -35 15
-15 7 -39 -26 -83 -26 -34 -53 -80 -59 -102 -6 -21 -8 -13 -4 19 9 77 -55 155
-80 98 -8 -20 -16 -42 -17 -49 -1 -8 -9 -20 -17 -29 -8 -8 -15 -31 -15 -51 0
-44 -31 -49 -47 -7 -23 60 -102 23 -100 -47 2 -66 -39 -88 -60 -33 -7 19 0 30
20 30 20 0 27 11 19 32 -7 17 -12 44 -12 59 0 16 -12 23 -30 16 -69 -26 11
133 89 179 59 35 65 94 10 94 -39 0 -56 38 -30 69 18 22 16 27 -13 22 -20 -3
-48 3 -62 15 -18 14 -33 13 -49 -3 -32 -32 -55 -29 -55 7 0 17 -16 30 -35 30
-19 0 -54 6 -76 12 -31 8 -47 -2 -64 -39 -25 -56 6 -84 57 -51 63 39 110 22
62 -23 -24 -22 -45 -65 -47 -95 -1 -30 -4 -73 -7 -96 -2 -23 6 -41 18 -41 13
0 21 33 20 77 -1 65 9 85 60 121 44 31 54 34 35 9 -20 -24 -21 -34 -4 -34 13
0 18 -9 11 -20 -17 -27 17 -25 45 3 25 25 85 9 85 -23 0 -11 -18 -36 -40 -55
-22 -18 -40 -57 -40 -84 -1 -36 -6 -43 -18 -24 -12 19 -19 9 -26 -35 -5 -33 1
-72 13 -86 13 -15 8 -14 -14 2 -19 15 -35 51 -36 79 0 72 -30 19 -45 -82 -11
-75 15 -107 32 -40 6 21 10 12 12 -21 2 -45 9 -54 39 -45 24 8 36 2 36 -19 0
-16 -4 -26 -9 -21 -5 5 -26 1 -47 -10 -28 -16 -37 -14 -37 9 0 16 -10 36 -23
44 -13 8 -18 6 -11 -5 17 -28 -18 -74 -44 -58 -12 7 -22 29 -23 47 0 30 -4 29
-29 -5 -34 -44 -40 -41 -58 34 -9 38 -5 55 13 55 17 1 16 7 -5 20 -29 19 -26
22 23 28 28 3 48 52 21 52 -10 0 -14 22 -9 48 7 36 -2 51 -34 62 -43 13 -43
14 10 66 29 29 43 56 32 60 -30 10 -106 -35 -94 -55 6 -9 -5 -29 -23 -44 -29
-24 -32 -23 -20 9 10 27 5 34 -21 30 -24 -4 -33 5 -29 31 4 20 -2 32 -13 25
-11 -7 -15 5 -9 28 6 22 1 40 -12 40 -20 0 -25 -20 -30 -135 -1 -25 -9 -45
-17 -45 -8 0 -23 0 -34 0 -10 0 -21 34 -25 75 -4 57 -14 74 -40 72 -28 -2 -31
5 -15 34 28 53 24 144 -6 134 -14 -5 -22 -30 -18 -55 6 -42 4 -44 -25 -15 -18
18 -32 46 -32 63 0 17 -30 86 -67 152 -70 126 -85 266 -20 186 27 -33 28 -33
17 9 -9 33 -4 45 18 45 24 0 27 11 14 45 -9 25 -14 67 -12 93 3 44 2 45 -22
12 -44 -60 -62 29 -66 337 -4 353 63 693 137 693 12 0 21 10 21 21 0 12 -10
15 -23 7 -16 -10 -20 -1 -12 29 8 29 2 43 -17 43 -46 0 -32 53 30 115 131 131
384 158 616 67z m1416 -854 c-26 -20 -32 -34 -18 -44 54 -34 40 -384 -15 -384
-12 0 -16 13 -10 28 6 16 -1 33 -16 39 -23 9 -34 80 -34 213 0 122 68 243 112
199 15 -15 10 -30 -19 -51z m-2256 -107 c-6 -54 -21 -115 -34 -135 -18 -29
-20 -17 -11 62 6 54 11 114 11 135 0 20 10 37 22 37 15 0 19 -33 12 -99z
m1981 -965 c-24 -21 -35 -48 -27 -67 6 -18 -3 -47 -21 -65 -30 -30 -31 -29
-18 12 7 24 5 44 -5 44 -11 0 -35 24 -54 52 -19 29 -25 47 -13 40 11 -7 26 -3
34 9 22 36 95 55 121 31 17 -16 13 -30 -17 -56z m-1388 -301 c-10 -44 -9 -44
21 -6 43 52 52 34 20 -39 -14 -33 -27 -47 -27 -31 -1 21 -9 18 -29 -10 -30
-40 -23 -78 9 -58 11 6 19 1 19 -12 0 -15 -18 -19 -50 -11 -29 7 -50 4 -50 -8
0 -11 -8 -20 -18 -20 -27 0 -1 82 30 94 15 5 33 40 40 78 7 37 20 68 28 68 9
0 12 -20 7 -45z m854 -52 c39 -36 39 -36 -5 -35 -49 2 -83 -80 -50 -123 12
-16 12 -25 -2 -25 -12 0 -29 11 -38 25 -10 16 -19 1 -26 -43 -12 -80 -50 -103
-66 -41 -6 24 -20 38 -31 31 -11 -7 -24 -1 -30 13 -6 14 -11 9 -11 -12 -1 -25
8 -34 28 -26 17 7 30 3 30 -8 0 -11 -13 -25 -30 -32 -16 -6 -24 -21 -16 -34 8
-13 -2 -10 -21 5 -21 17 -30 44 -24 70 6 23 5 31 -1 17 -6 -14 -20 -20 -29
-14 -10 6 -14 -1 -8 -17 11 -28 -57 -35 -84 -8 -7 7 -32 10 -55 7 -23 -4 -31
-3 -17 1 14 5 25 23 25 40 0 25 6 26 30 6 25 -21 30 -18 32 13 2 32 4 32 12 3
10 -39 66 -26 66 15 0 14 20 33 45 40 25 8 52 24 60 37 8 13 15 2 15 -24 0
-30 8 -41 23 -32 16 10 20 4 12 -16 -6 -16 -3 -42 8 -58 13 -19 17 -2 13 57
-4 47 0 85 8 85 9 0 16 -10 16 -23 0 -34 22 -7 30 36 4 20 9 39 11 42 2 3 6
14 9 25 3 11 6 25 8 30 4 18 23 10 63 -27z m289 -63 c18 15 28 13 37 -9 11
-28 -10 -40 -53 -33 -10 2 -12 -5 -6 -15 6 -10 -7 -34 -28 -53 -22 -20 -40
-26 -40 -14 0 12 9 27 20 34 36 22 21 55 -20 44 -44 -11 -54 24 -17 61 17 17
30 15 52 -7 21 -21 36 -23 55 -8z m-888 -737 c14 21 17 19 18 -8 0 -19 14 -35
30 -35 34 0 39 -36 10 -80 -17 -26 -19 -25 -20 4 0 18 -9 39 -20 46 -11 7 -15
-1 -8 -18 13 -33 -27 -172 -49 -172 -51 1 -65 37 -44 115 12 44 15 97 8 116
-10 24 -6 31 10 21 13 -8 24 -3 25 12 1 20 4 20 12 -1 9 -23 14 -23 28 0z"/>
<path d="M2886 5254 c-6 -10 0 -28 12 -40 16 -16 22 -15 22 4 0 15 13 21 28
15 16 -6 34 2 40 18 12 32 -82 34 -102 3z"/>
<path d="M2224 5234 c-27 -13 -52 -50 -65 -99 -18 -64 -29 -77 -60 -69 -22 6
-39 2 -39 -8 0 -55 121 -15 148 49 15 37 47 85 70 107 46 43 20 52 -54 20z"/>
<path d="M2372 5148 c-116 -78 -167 -125 -92 -87 28 14 82 48 120 76 39 28 74
54 78 57 5 3 5 9 0 13 -4 3 -52 -23 -106 -59z"/>
<path d="M3284 5170 c29 -30 215 -107 225 -92 5 8 -24 29 -65 47 -96 41 -178
64 -160 45z"/>
<path d="M2633 5107 c-125 -38 -113 -51 17 -18 83 21 102 21 110 -1 7 -18 19
-21 40 -8 27 17 27 20 0 21 -20 1 -17 7 10 19 71 31 -69 21 -177 -13z"/>
<path d="M2853 5058 c-20 -97 -14 -136 11 -78 25 55 30 70 34 99 1 11 17 14
35 7 23 -9 29 -5 19 11 -29 47 -87 25 -99 -39z"/>
<path d="M3280 5099 c17 -12 107 -57 200 -100 94 -44 187 -89 207 -101 27 -15
33 -15 24 1 -17 27 -400 221 -436 221 -17 -1 -16 -7 5 -21z"/>
<path d="M2483 5007 c-37 -16 -63 -33 -58 -38 5 -6 49 8 97 29 48 22 75 39 58
39 -16 0 -60 -13 -97 -30z"/>
<path d="M3371 4991 c22 -17 47 -30 56 -30 9 -1 41 -17 70 -37 29 -19 89 -51
133 -70 124 -54 31 13 -135 98 -143 73 -187 86 -124 39z"/>
<path d="M3303 4851 c17 -18 282 -113 290 -104 5 4 -55 31 -133 60 -140 52
-176 62 -157 44z"/>
<path d="M3520 4850 c0 -5 43 -32 95 -60 52 -27 117 -66 144 -85 27 -19 43
-24 35 -11 -27 43 -274 185 -274 156z"/>
<path d="M3390 4741 c153 -64 250 -97 240 -81 -13 20 -220 101 -256 99 -13 -1
-6 -9 16 -18z"/>
<path d="M2185 3882 c-47 -34 -85 -67 -85 -72 0 -18 80 -90 100 -90 11 0 21
-9 23 -20 3 -28 8 -45 25 -84 17 -37 132 -86 132 -55 0 10 -7 19 -15 19 -37 0
-56 90 -28 135 37 60 59 57 67 -10 8 -74 122 -83 132 -10 4 25 17 45 29 45 12
0 45 -20 73 -45 37 -33 43 -35 21 -7 -27 36 -26 37 16 14 50 -26 46 -101 -8
-164 -15 -17 -22 -37 -15 -43 7 -7 -3 -59 -22 -116 -22 -64 -31 -137 -25 -191
7 -60 1 -94 -17 -110 -16 -13 -28 -16 -28 -7 0 8 -18 -1 -39 -20 -22 -20 -51
-31 -65 -26 -60 23 -116 -22 -116 -92 0 -59 6 -68 40 -59 22 6 70 -4 108 -22
74 -35 141 -43 123 -14 -16 26 62 38 209 32 72 -4 151 -7 176 -8 36 -2 45 -12
40 -45 -4 -32 6 -45 40 -50 26 -4 42 1 36 10 -17 27 148 48 177 24 16 -14 22
-55 16 -119 -5 -53 0 -114 11 -135 16 -28 21 12 21 161 0 137 -9 212 -29 242
-15 24 -21 51 -13 61 8 10 2 8 -15 -3 -35 -24 -119 -21 -137 5 -25 34 -131 72
-139 49 -11 -33 -44 -26 -44 8 0 38 -10 38 -71 -2 -85 -56 -35 -165 60 -128
35 13 50 10 59 -11 12 -32 -110 -40 -254 -16 l-76 13 66 68 66 69 -55 -14
c-43 -10 -53 -7 -45 15 6 15 40 30 75 32 35 3 73 14 84 25 25 25 98 24 124 -2
15 -15 32 -11 56 13 44 44 28 183 -26 229 -66 55 -25 319 49 319 17 0 25 -9
18 -20 -7 -11 -3 -20 9 -20 11 0 21 7 21 16 0 8 26 31 58 50 58 34 58 34 78
-23 24 -70 103 -74 134 -7 11 24 26 44 34 44 23 0 58 -76 38 -83 -9 -4 -23
-27 -31 -52 -17 -56 17 -60 62 -7 18 21 45 34 60 28 33 -12 33 -9 6 69 -37
106 -320 141 -451 56 -62 -41 -74 -39 -48 9 18 33 15 40 -14 39 -48 0 -108
-86 -116 -165 -4 -35 -12 -111 -19 -169 -7 -59 -4 -105 6 -105 90 0 -14 -160
-122 -187 -87 -22 -132 145 -65 241 36 52 62 476 30 496 -11 7 -29 -8 -39 -34
-18 -45 -19 -45 -20 -3 -1 48 -32 56 -281 78 -145 12 -153 10 -235 -49z m378
-69 c67 -30 66 -30 -87 -31 -84 -1 -176 -10 -203 -21 -52 -20 -95 64 -45 88
39 18 266 -6 335 -36z m477 -613 c0 -51 -30 -66 -60 -30 -20 24 -20 36 0 60
30 36 60 21 60 -30z m114 -333 c-29 -29 -112 19 -93 55 19 36 21 36 61 -4 23
-23 37 -46 32 -51z"/>
<path d="M3319 3933 c-5 -5 -74 -13 -153 -17 -152 -10 -206 -36 -206 -100 0
-27 10 -36 35 -29 19 6 78 16 130 22 53 7 119 21 147 32 113 43 347 -8 372
-82 8 -25 76 -4 76 24 0 11 -9 14 -20 7 -11 -7 -20 -3 -20 8 0 55 -319 174
-361 135z"/>
<path d="M2211 3442 c-6 -10 -28 -14 -49 -8 -45 11 -75 -29 -45 -59 16 -16 32
-13 58 9 19 17 48 35 64 40 20 6 22 13 6 23 -12 7 -27 5 -34 -5z"/>
<path d="M3160 3231 c0 -34 51 -111 74 -111 19 0 14 17 -17 60 -43 58 -57 70
-57 51z"/>
<path d="M3604 3075 c-10 -38 -10 -68 1 -72 25 -10 33 2 47 73 17 86 -25 85
-48 -1z"/>
<path d="M3460 2720 c-32 -60 -45 -140 -22 -140 11 0 23 16 28 35 9 33 9 33
12 0 1 -19 10 -35 20 -35 17 0 12 157 -6 175 -5 5 -19 -11 -32 -35z"/>
<path d="M3020 2631 c-14 -27 -32 -46 -40 -41 -7 4 -13 -5 -13 -21 0 -16 6
-29 13 -29 23 0 120 96 120 119 0 40 -53 21 -80 -28z"/>
<path d="M3095 2398 c5 -21 17 -33 25 -28 8 5 20 -7 25 -27 5 -20 24 -36 42
-36 43 0 42 18 -4 74 -47 59 -102 69 -88 17z"/>
<path d="M2588 2232 c8 -32 6 -64 -4 -70 -10 -7 -25 -34 -33 -62 -8 -29 -6
-40 3 -26 19 27 55 10 71 -34 8 -21 12 -16 13 13 1 24 -9 48 -23 54 -15 6 -10
11 11 11 24 1 31 11 21 27 -9 14 -14 39 -11 57 3 18 -10 45 -29 60 -31 26 -32
23 -19 -30z"/>
<path d="M4040 2339 c0 -40 -84 -255 -186 -479 -63 -138 -69 -163 -93 -411
-13 -136 -49 -296 -111 -500 -50 -164 -114 -420 -141 -569 -27 -148 -54 -295
-61 -325 -13 -62 36 -75 118 -32 43 23 174 41 174 24 0 -5 -20 -17 -45 -27
-39 -17 -36 -19 25 -15 l69 5 84 419 c45 231 93 436 105 456 24 38 65 374 102
825 26 332 60 570 80 570 8 0 39 -36 70 -79 37 -55 68 -78 96 -75 97 10 95
-331 -6 -1006 -47 -314 -126 -740 -176 -955 l-39 -165 105 0 c140 0 204 59 67
62 l-87 1 76 24 c94 28 98 59 10 75 -55 11 -58 13 -16 16 116 8 143 80 32 84
-62 2 -61 2 13 22 93 25 98 71 10 81 l-65 7 82 16 c104 20 111 71 10 74 l-72
2 75 20 c41 11 75 32 75 48 0 19 -25 29 -75 30 -41 2 -57 6 -35 11 22 5 60 13
85 18 69 15 55 65 -20 75 l-65 8 73 3 c111 5 122 63 11 63 -61 1 -76 6 -54 20
17 11 55 20 85 20 87 0 70 56 -20 66 -46 5 -32 8 35 6 87 -2 109 -8 103 -32
-4 -16 -10 -48 -14 -70 -15 -87 -35 -190 -81 -417 -26 -131 -43 -246 -36 -256
6 -10 1 -32 -13 -48 -20 -24 -14 -29 34 -29 66 0 129 93 77 113 -20 7 -23 23
-10 57 10 25 12 51 5 58 -6 7 0 12 14 12 17 0 23 22 17 70 -4 39 -1 70 8 70 9
0 16 18 16 40 0 22 13 40 30 40 17 0 30 14 30 30 0 17 -13 30 -28 30 -16 0
-26 15 -22 35 4 19 8 41 8 49 1 8 16 10 32 3 17 -6 30 -1 30 11 0 12 -9 22
-20 22 -32 0 -23 80 10 93 17 6 30 20 30 30 0 11 -9 14 -20 7 -25 -15 -25 2 0
89 12 44 12 76 0 91 -11 13 -15 28 -9 34 12 12 31 223 35 380 1 73 9 109 23
102 12 -7 10 0 -2 14 -19 19 -16 34 13 65 20 22 32 52 26 67 -8 21 10 28 72
28 45 0 82 -9 82 -20 0 -11 20 -20 45 -20 36 -1 39 -4 15 -20 -25 -16 -23 -20
10 -23 22 -2 51 -4 64 -5 13 -2 30 -9 38 -17 8 -8 28 -15 43 -15 16 0 55 -19
87 -41 32 -23 58 -35 58 -26 0 8 11 4 24 -9 13 -13 40 -24 60 -24 20 0 36 -11
36 -25 1 -17 7 -15 19 4 16 26 21 25 32 -3 7 -19 25 -29 41 -23 40 16 36 -52
-13 -178 -22 -58 -49 -141 -59 -185 -11 -44 -32 -122 -48 -174 -28 -91 -28
-93 12 -85 53 10 72 29 29 29 -18 0 -33 9 -33 19 0 11 11 17 25 14 14 -4 18
-3 10 2 -27 15 -16 65 15 65 17 0 30 10 30 21 0 12 -7 17 -17 11 -9 -6 -16 2
-16 18 0 15 5 27 11 27 36 -4 49 6 26 20 -35 22 21 83 75 83 58 0 66 54 10 69
-51 12 -68 77 -28 102 12 7 30 35 40 61 18 47 20 48 59 13 96 -84 111 -95 135
-97 57 -5 63 -10 51 -41 -8 -21 -5 -29 9 -20 34 21 130 -24 179 -83 l45 -54 0
122 1 121 -95 61 c-52 34 -136 80 -185 102 -50 23 -107 59 -127 81 -20 22
-155 86 -300 142 -144 57 -330 133 -413 170 -82 37 -181 77 -220 90 -53 17
-85 48 -130 126 -33 58 -76 108 -96 111 -20 4 -77 48 -128 97 -57 55 -106 87
-126 81 -19 -5 -44 8 -57 29 -31 50 -83 47 -83 -4z m-48 -643 c-7 -79 -22
-150 -35 -158 -13 -8 -15 -24 -5 -41 28 -44 31 -101 5 -85 -15 9 -18 5 -8 -10
8 -13 8 -68 1 -123 -21 -154 -89 -115 -74 42 1 6 -6 45 -15 85 -12 53 -10 70
6 61 14 -8 13 -2 -2 14 -27 29 -34 67 -10 52 8 -5 16 41 18 103 2 95 11 119
56 158 76 65 78 62 63 -98z m627 -15 c49 -31 17 -34 -79 -9 -90 25 -90 25 -20
26 39 1 83 -7 99 -17z m0 -60 c49 -31 17 -34 -79 -9 -90 25 -90 25 -20 26 39
1 83 -7 99 -17z m1 -71 c21 -25 17 -27 -33 -11 -31 10 -75 23 -97 28 -22 4 -7
9 33 11 42 1 82 -10 97 -28z m-21 -49 c50 -31 16 -36 -69 -9 -76 24 -77 25
-20 26 33 1 73 -7 89 -17z m-8 -71 c37 -29 36 -30 -21 -18 -75 16 -113 48 -58
48 22 0 58 -14 79 -30z m19 -70 c9 -14 -17 -16 -74 -8 -114 18 -122 28 -21 28
46 0 88 -9 95 -20z m-14 -78 c6 -19 1 -22 -18 -11 -15 9 -58 23 -97 31 -69 14
-68 15 17 11 56 -2 92 -13 98 -31z m-13 -56 c24 -29 23 -32 -10 -20 -20 8 -54
14 -75 14 -21 0 -38 9 -38 20 0 33 93 23 123 -14z m-13 -66 c9 -14 -17 -16
-74 -8 -114 18 -122 28 -21 28 46 0 88 -9 95 -20z m-674 -160 c66 -63 46 -89
-75 -96 -117 -7 -182 25 -96 47 49 12 61 51 26 83 -10 9 -10 3 -1 -12 10 -18
9 -23 -5 -15 -12 7 -17 31 -11 52 12 46 76 23 162 -59z m670 87 c23 -22 -8
-50 -33 -30 -13 11 -55 24 -93 28 -62 8 -60 9 22 12 50 2 97 -3 104 -10z m-3
-77 c21 -21 -9 -130 -35 -130 -16 0 -28 8 -28 19 0 10 -29 22 -65 27 -64 7
-64 8 10 11 103 4 103 58 0 68 -71 8 -70 8 17 12 50 1 96 -1 101 -7z m-712
-208 c-6 -10 0 -23 14 -29 14 -5 7 -11 -15 -12 -39 -2 -39 -3 -1 -32 37 -28
37 -29 -10 -30 -45 -2 -46 -3 -9 -19 40 -17 40 -17 0 -19 -22 -1 -53 -11 -70
-23 -24 -17 -21 -20 15 -12 25 6 45 2 45 -8 0 -10 -16 -19 -35 -20 -21 -1 -25
-5 -10 -11 14 -6 25 -24 25 -40 0 -16 -9 -24 -20 -17 -11 7 -20 -2 -20 -19 0
-22 -20 -31 -71 -31 -46 0 -67 8 -58 22 7 12 30 17 50 12 20 -5 41 3 47 18 7
19 -5 28 -39 28 -27 0 -49 10 -49 21 0 13 17 16 40 9 49 -16 53 20 6 66 -31
32 -29 35 25 47 l59 12 -60 4 c-52 3 -55 6 -20 21 22 9 31 18 20 19 -31 3 76
57 116 59 20 1 31 -6 25 -16z m-56 -354 c-7 -6 -55 -16 -108 -21 -70 -6 -89
-3 -67 12 31 21 196 30 175 9z m-75 -68 c48 -15 48 -16 5 -18 -54 -2 -59 -32
-10 -60 28 -17 20 -21 -41 -21 -47 -1 -71 7 -64 19 7 12 21 15 31 9 11 -6 19
-3 19 8 0 10 -13 24 -30 30 -90 35 -9 65 90 33z m20 -180 c-16 -11 -61 -19
-100 -18 -64 2 -66 3 -20 18 76 24 158 24 120 0z m-25 -65 c-7 -36 -59 -72
-88 -61 -13 5 -19 24 -12 41 9 24 3 29 -22 19 -18 -7 -33 -4 -33 7 0 10 36 19
80 19 53 0 78 -8 75 -25z"/>
<path d="M1761 1907 c-22 -29 -41 -62 -42 -75 -2 -48 -592 -304 -783 -340
-109 -20 -289 -106 -429 -205 -68 -48 -194 -123 -280 -167 -213 -108 -227
-121 -227 -210 0 -65 4 -72 30 -50 17 14 37 19 45 12 8 -8 1 -23 -16 -33 -21
-14 -22 -18 -3 -19 15 0 21 -8 15 -19 -6 -10 -2 -24 9 -31 12 -7 19 -6 17 4
-7 31 28 126 47 126 10 0 13 -19 5 -42 -11 -35 -7 -40 27 -29 40 12 40 9 15
-98 -28 -119 -10 -146 37 -55 18 35 22 67 11 86 -22 39 53 198 93 198 15 0 28
12 28 27 0 15 36 38 80 53 44 15 80 33 80 41 0 9 19 10 43 4 27 -7 38 -3 31 9
-14 21 146 113 196 113 17 0 30 12 30 26 0 15 20 26 45 26 43 -2 43 -3 5 -19
-31 -13 -32 -18 -7 -19 31 -1 98 60 77 70 -5 3 -3 12 5 21 8 8 15 2 15 -13 0
-20 6 -21 22 -5 25 25 78 13 78 -17 0 -11 -7 -15 -16 -9 -28 17 -78 -58 -74
-110 4 -41 13 -47 68 -43 36 3 79 -2 96 -12 20 -11 -11 -17 -88 -17 -96 0
-259 -43 -171 -45 30 -1 34 -61 4 -61 -12 0 -16 -9 -9 -20 11 -18 -16 -29 -56
-22 -10 2 -11 -7 -4 -18 16 -25 -48 -218 -85 -256 -15 -16 -25 -18 -25 -5 0
11 -19 21 -41 21 -23 0 -36 -9 -29 -20 7 -12 21 -16 30 -10 26 16 47 -119 25
-163 -10 -20 -20 -73 -23 -116 -2 -44 -10 -85 -18 -90 -8 -6 -16 -29 -19 -51
-2 -22 -10 -83 -16 -135 -10 -78 -6 -95 20 -95 17 0 31 9 31 20 0 11 25 19 55
19 49 -2 50 -4 15 -19 -32 -14 -26 -17 34 -19 78 -1 80 2 107 139 59 306 163
609 310 908 86 175 153 325 149 332 -5 7 3 13 17 13 52 0 211 129 285 231 56
78 78 97 84 71 9 -45 -49 -244 -81 -279 -14 -15 -28 -40 -32 -56 -12 -55 -68
-104 -86 -75 -13 19 -17 18 -18 -5 0 -16 -12 -3 -27 30 l-25 60 -15 -80 c-9
-44 -48 -161 -87 -260 -86 -221 -150 -445 -205 -726 -23 -118 -46 -234 -51
-259 -11 -52 78 -68 97 -18 15 38 94 57 94 23 0 -15 -11 -32 -25 -38 -14 -6
10 -9 54 -6 l79 4 75 370 c105 518 323 1434 367 1545 22 53 -22 42 -69 -18z
m-271 -807 c7 -11 1 -20 -13 -20 -15 0 -13 -9 8 -25 30 -23 29 -30 -15 -80
-57 -65 -61 -66 -61 -17 0 21 10 33 23 28 13 -5 30 1 37 13 8 12 7 20 -3 16
-19 -6 -26 11 -26 65 0 42 29 54 50 20z m-10 -262 c0 -8 -18 -21 -40 -28 -22
-7 -35 -21 -29 -31 13 -22 4 -24 -39 -7 -57 22 -39 74 20 59 28 -7 46 -5 41 5
-6 9 2 17 18 17 16 0 29 -7 29 -15z m-580 -159 c-94 -14 -126 -7 -85 18 14 8
58 11 100 5 l75 -10 -90 -13z m524 -14 c-13 -5 -19 -17 -13 -27 6 -10 0 -18
-15 -18 -19 -1 -18 -6 4 -20 22 -14 9 -19 -50 -18 -54 1 -67 6 -40 15 45 15
64 63 25 63 -18 1 -18 5 2 18 15 9 46 12 70 6 23 -6 31 -15 17 -19z m-125
-376 c-20 -24 -15 -29 24 -31 31 -1 21 -8 -31 -20 -91 -22 -109 -12 -65 32 17
17 26 45 19 63 -10 27 -6 28 32 8 36 -19 40 -29 21 -52z m18 -103 c-36 -6 -57
-24 -66 -57 -6 -27 -20 -49 -31 -49 -12 0 -12 18 -1 48 10 26 13 53 6 60 -6 7
24 11 67 9 56 -2 63 -5 25 -11z"/>
<path d="M2194 1129 c-60 -52 -29 -69 37 -21 30 22 45 23 67 5 24 -19 25 -16
5 22 -30 56 -40 56 -109 -6z"/>
<path d="M5822 948 c66 -71 158 -135 173 -120 26 26 -150 172 -207 172 -8 0 7
-23 34 -52z"/>
<path d="M5720 947 c0 -14 97 -107 112 -107 13 0 -10 40 -48 85 -30 35 -64 47
-64 22z"/>
<path d="M5440 800 c-27 -17 -27 -19 0 -20 23 -1 21 -8 -9 -31 -26 -19 -29
-29 -11 -29 18 0 15 -10 -11 -29 -31 -24 -33 -30 -8 -30 17 -1 49 12 70 28 26
20 30 30 12 30 -23 1 -23 7 -3 31 19 22 19 30 1 30 -13 0 -18 9 -11 20 15 25
8 25 -30 0z"/>
<path d="M5274 635 c-17 -47 -36 -128 -44 -180 -7 -53 -21 -91 -31 -84 -11 6
-21 -18 -22 -55 -4 -68 -10 -119 -17 -136 -2 -5 -6 -28 -9 -50 -10 -70 -20
-100 -41 -115 -11 -8 -6 -15 13 -15 40 0 63 65 107 300 17 94 40 173 50 177
11 3 14 28 8 55 -11 42 -5 48 45 50 57 2 57 2 7 17 -43 13 -45 18 -15 30 19 9
35 24 35 34 0 11 -9 14 -20 7 -11 -7 -20 -4 -20 7 0 11 11 24 25 30 16 6 13
10 -7 11 -21 1 -44 -29 -64 -83z"/>
<path d="M5492 668 c-105 -38 -118 -56 -32 -42 39 6 59 7 45 1 -36 -15 -31
-48 5 -34 19 7 30 -1 30 -23 0 -20 -11 -30 -26 -24 -15 5 -25 -5 -25 -26 0
-23 11 -32 30 -26 17 6 6 -8 -25 -29 -52 -36 -35 -80 27 -70 17 3 18 -73 2
-83 -21 -13 -3 -152 19 -152 10 0 18 52 18 115 1 63 4 185 7 270 4 85 6 154 5
154 -1 -1 -37 -15 -80 -31z"/>
<path d="M44 656 c-32 -32 -31 -116 1 -116 15 0 25 27 25 70 0 39 0 70 -1 70
-1 0 -12 -11 -25 -24z"/>
<path d="M100 662 c0 -10 -5 -33 -12 -50 -9 -24 -1 -31 36 -28 43 4 46 9 27
50 -21 46 -51 62 -51 28z"/>
<path d="M5786 629 c-20 -45 -19 -51 10 -45 19 4 37 27 40 51 9 61 -20 57 -50
-6z"/>
<path d="M5879 546 c47 -154 119 -297 119 -236 0 68 -83 275 -115 286 -14 4
-15 -12 -4 -50z"/>
<path d="M116 208 c-5 -87 -2 -171 7 -188 11 -20 16 -8 18 40 1 39 5 109 10
157 5 47 1 100 -9 118 -11 21 -20 -20 -26 -127z"/>
</g>
</svg>
